SplineFontDB: 1.0
FontName: Garuda-BoldOblique
FullName: Garuda Bold Oblique
FamilyName: Garuda
Weight: Bold
Copyright: Generated by NECTEC for Public Domain\n\nModified by TLWG
Version: 2.0 : Oct 10, 2003
ItalicAngle: -12
UnderlinePosition: -27
UnderlineWidth: 20
Ascent: 872
Descent: 128
NeedsXUIDChange: 1
FSType: 0
PfmFamily: 33
TTFWeight: 700
TTFWidth: 5
Panose: 2 11 7 4 2 2 2 2 2 4
LineGap: 0
VLineGap: 0
OS2WinAscent: 0
OS2WinAOffset: 1
OS2WinDescent: 0
OS2WinDOffset: 1
HheadAscent: 0
HheadAOffset: 1
HheadDescent: 0
HheadDOffset: 1
ScriptLang: 3
 1 latn 1 dflt 
 1 thai 4 KUY  PAL  THA  dflt 
 1 thai 1 PAL  
ContextSub: glyph 0 2 ' RQD' 0 0 0 1
 String: 15 uni0E0D uni0E10
 BString: 0 
 FString: 0 
 1
  SeqLookup: 0 'nds0'
EndFPST
ChainSub: coverage 0 1 'ccmp' 0 0 0 1
 2 0 0
  Coverage: 19 uni0E4B uni0E4B.low
  Coverage: 7 uni0E4D
 2
  SeqLookup: 0 'amni'
  SeqLookup: 1 'G006'
EndFPST
ChainSub: coverage 0 1 'ccmp' 0 0 0 1
 2 0 0
  Coverage: 19 uni0E4A uni0E4A.low
  Coverage: 7 uni0E4D
 2
  SeqLookup: 0 'amni'
  SeqLookup: 1 'G005'
EndFPST
ChainSub: coverage 0 1 'ccmp' 0 0 0 1
 2 0 0
  Coverage: 19 uni0E49 uni0E49.low
  Coverage: 7 uni0E4D
 2
  SeqLookup: 0 'amni'
  SeqLookup: 1 'G004'
EndFPST
ChainSub: coverage 0 1 'ccmp' 0 0 0 1
 2 0 0
  Coverage: 19 uni0E48 uni0E48.low
  Coverage: 7 uni0E4D
 2
  SeqLookup: 0 'amni'
  SeqLookup: 1 'G003'
EndFPST
ChainSub: coverage 0 1 'ccmp' 0 0 0 1
 1 0 1
  Coverage: 15 uni0E0D uni0E10
  FCoverage: 23 uni0E38 uni0E39 uni0E3A
 1
  SeqLookup: 0 'ndsc'
EndFPST
ChainSub: coverage 0 1 'ccmp' 0 0 0 1
 1 2 0
  Coverage: 39 uni0E48 uni0E49 uni0E4A uni0E4B uni0E4C
  BCoverage: 23 uni0E38 uni0E39 uni0E3A

StartChar: .notdef
Encoding: 0 -1 0
OldEncoding: 0
Width: 766
VWidth: 2048
Flags: W
HStem: 0 95<212 671> 1242 95<379 838>
Fore
95 0 m 1
 379 1337 l 1
 955 1337 l 1
 671 0 l 1
 95 0 l 1
212 95 m 1
 595 95 l 1
 838 1242 l 1
 455 1242 l 1
 212 95 l 1
EndSplineSet
EndChar
StartChar: exclam
Encoding: 33 33 2
OldEncoding: 33
Width: 308
Flags: W
HStem: 2 145<161 192> 677 20G<247 369>
Fore
262 212 m 1
 143 212 l 1
 247 697 l 1
 369 697 l 1
 262 212 l 1
242 75 m 0
 236 41 207 2 161 2 c 0
 123 2 107 31 107 58 c 0
 107 64 107 71 109 75 c 0
 116 109 146 147 192 147 c 0
 230 147 244 121 244 94 c 0
 244 87 244 81 242 75 c 0
EndSplineSet
EndChar
StartChar: quotedbl
Encoding: 34 34 3
OldEncoding: 34
Width: 458
Flags: W
HStem: 677 20G<210 311 445 546>
Fore
457 455 m 1
 431 455 l 1
 418 578 l 1
 445 697 l 1
 546 697 l 1
 520 578 l 1
 457 455 l 1
221 455 m 1
 195 455 l 1
 184 578 l 1
 210 697 l 1
 311 697 l 1
 285 578 l 1
 221 455 l 1
EndSplineSet
EndChar
StartChar: numbersign
Encoding: 35 35 4
OldEncoding: 35
Width: 597
Flags: W
HStem: 0 21G<86 184 290 386> 166 99<86 155 294 360 498 575> 412 103<180 253 391 461 593 655> 680 20G<365 464 575 670>
Fore
498 265 m 1
 596 265 l 1
 575 166 l 1
 457 166 l 1
 386 0 l 1
 290 0 l 1
 360 166 l 1
 253 166 l 1
 184 0 l 1
 86 0 l 1
 155 166 l 1
 66 166 l 1
 87 265 l 1
 196 265 l 1
 253 412 l 1
 159 412 l 1
 181 515 l 1
 291 515 l 1
 365 700 l 1
 464 700 l 1
 391 515 l 1
 497 515 l 1
 575 700 l 1
 670 700 l 1
 593 515 l 1
 676 515 l 1
 655 412 l 1
 556 412 l 1
 498 265 l 1
294 265 m 1
 400 265 l 1
 461 412 l 1
 351 412 l 1
 294 265 l 1
EndSplineSet
EndChar
StartChar: dollar
Encoding: 36 36 5
OldEncoding: 36
Width: 574
Flags: W
HStem: 679 20G<412 507>
VStem: 127 115<138 158> 185 115<415 454> 455 117<205 228> 506 116<481 504>
Fore
399 636 m 0xa0
 412 699 l 1
 507 699 l 1
 494 636 l 1
 566 625 622 575 622 504 c 0
 622 489 619 472 613 454 c 0
 607 435 590 434 589 434 c 2
 518 434 l 2
 515 434 503 435 503 449 c 0
 503 454 l 0
 504 463 506 472 506 481 c 0xa8
 506 504 497 524 472 532 c 1
 438 377 l 1
 469 366 526 342 552 302 c 0
 566 281 572 256 572 228 c 0
 572 175 547 113 509 75 c 0
 458 23 395 5 359 2 c 1
 343 -75 l 1
 248 -75 l 1
 264 2 l 1
 173 9 127 57 127 138 c 0
 127 150 129 162 130 175 c 0
 132 189 139 210 158 210 c 2
 227 210 l 2
 230 210 244 208 244 193 c 0
 244 193 244 193 244 192 c 1
 244 184 l 1
 242 175 242 166 242 158 c 0xd0
 242 130 251 116 287 106 c 1
 325 285 l 1
 291 291 231 310 199 357 c 0
 190 371 185 391 185 415 c 0
 185 466 207 530 258 575 c 0
 300 612 349 633 399 636 c 0xa0
357 434 m 0
 357 434 l 0
 363 460 379 535 379 535 c 1
 349 530 311 509 300 461 c 0
 300 458 300 457 300 454 c 0
 300 428 333 406 346 406 c 0
 349 406 353 408 353 411 c 0
 353 411 l 0
 353 411 l 0
 353 412 356 429 357 434 c 0
415 264 m 1
 380 104 l 1
 408 110 443 133 454 189 c 0
 455 195 455 199 455 205 c 0x90
 455 238 432 256 415 264 c 1
EndSplineSet
EndChar
StartChar: percent
Encoding: 37 37 6
OldEncoding: 37
Width: 697
Flags: W
HStem: -8 62<543 560> 311 58<606 622> 322 61<247 261> 642 57<312 326>
VStem: 143 81<435 450> 353 79<573 594> 437 83<103 122> 647 83<243 265>
Fore
150 510 m 0xbf
 150 510 l 0
 170 607 230 699 326 699 c 0
 403 699 432 644 432 573 c 0
 432 553 431 532 426 510 c 0
 406 415 346 322 247 322 c 0
 172 322 143 379 143 448 c 0
 143 468 146 489 150 510 c 0xbf
353 598 m 0
 353 598 l 0
 353 624 340 642 314 642 c 0
 259 642 242 549 235 510 c 0
 231 494 224 463 224 437 c 0
 224 408 231 383 259 383 c 0
 316 383 331 469 339 507 c 0
 345 535 353 564 353 592 c 0
 353 593 353 596 353 598 c 0
445 182 m 0
 445 182 l 0
 464 276 524 369 622 369 c 0xdf
 699 369 730 314 730 245 c 0
 730 225 727 204 722 182 c 0
 702 86 641 -8 543 -8 c 0
 466 -8 437 49 437 120 c 0
 437 139 440 161 445 182 c 0
610 311 m 0
 610 311 l 0
 555 311 538 219 530 182 c 0
 527 166 520 135 520 107 c 0
 520 78 527 54 555 54 c 0
 610 54 627 139 635 176 c 0
 639 196 647 230 647 258 c 0
 647 287 639 311 610 311 c 0
656 699 m 1
 773 699 l 1
 215 -2 l 1
 95 -2 l 1
 656 699 l 1
EndSplineSet
EndChar
StartChar: ampersand
Encoding: 38 38 7
OldEncoding: 38
Width: 717
Flags: W
HStem: -8 95<270 310> 2 98<635 674> 635 72<454 480>
VStem: 71 136<166 198> 251 115<520 542> 544 88<561 581>
Fore
635 2 m 0x7c
 635 2 l 0x7c
 576 2 540 18 506 81 c 1
 415 14 351 -8 270 -8 c 0xbc
 212 -8 153 3 115 38 c 0
 86 66 71 115 71 166 c 0
 71 182 74 201 77 219 c 0
 98 314 176 351 296 394 c 1
 277 426 273 438 267 449 c 0
 258 471 251 494 251 520 c 0
 251 529 251 540 254 552 c 0
 276 659 379 707 478 707 c 0
 569 707 632 665 632 581 c 0
 632 569 630 555 627 540 c 0
 610 460 553 412 451 372 c 1
 550 235 l 1
 605 288 635 342 656 389 c 1
 759 374 l 1
 723 299 671 228 598 155 c 1
 621 120 639 100 674 100 c 0
 677 100 679 100 682 100 c 2
 705 101 l 1
 685 8 l 1
 667 3 651 2 635 2 c 0x7c
466 635 m 0
 466 635 l 0
 431 635 380 612 368 556 c 0
 366 550 366 544 366 540 c 0
 366 506 388 480 403 457 c 1
 422 429 l 1
 472 449 527 478 541 540 c 0
 543 547 544 555 544 561 c 0
 544 609 509 635 466 635 c 0
339 326 m 1
 268 314 216 276 208 219 c 0
 207 212 207 204 207 198 c 0
 207 130 250 87 310 87 c 0xbc
 354 87 403 107 463 149 c 1
 339 326 l 1
EndSplineSet
EndChar
StartChar: quotesingle
Encoding: 39 39 8
OldEncoding: 39
Width: 298
Flags: W
Fore
267 489 m 1
 241 489 l 1
 230 612 l 1
 254 731 l 1
 354 731 l 1
 330 612 l 1
 267 489 l 1
EndSplineSet
EndChar
StartChar: parenleft
Encoding: 40 40 9
OldEncoding: 40
Width: 378
Flags: W
VStem: 100 92<63 115>
Fore
215 276 m 0
 199 205 192 133 192 63 c 0
 192 -18 202 -97 222 -167 c 1
 155 -167 l 1
 120 -83 100 14 100 115 c 0
 100 169 104 224 116 281 c 0
 150 441 233 604 348 731 c 1
 415 731 l 1
 314 592 248 435 215 276 c 0
EndSplineSet
EndChar
StartChar: parenright
Encoding: 41 41 10
OldEncoding: 41
Width: 378
Flags: W
VStem: 262 95<454 501>
Fore
110 -167 m 1
 43 -167 l 1
 136 -34 205 124 238 276 c 0
 254 353 262 428 262 501 c 0
 262 581 253 659 230 731 c 1
 297 731 l 1
 337 650 357 553 357 454 c 0
 357 397 351 339 339 281 c 0
 305 120 221 -37 110 -167 c 1
EndSplineSet
EndChar
StartChar: asterisk
Encoding: 42 42 11
OldEncoding: 42
Width: 597
Flags: W
Fore
437 524 m 1
 504 386 l 1
 464 359 l 1
 406 504 l 1
 287 359 l 1
 259 386 l 1
 388 524 l 1
 242 572 l 1
 265 616 l 1
 402 558 l 1
 432 731 l 1
 475 731 l 1
 432 558 l 1
 595 618 l 1
 598 572 l 1
 437 524 l 1
EndSplineSet
EndChar
StartChar: plus
Encoding: 43 43 12
OldEncoding: 43
Width: 565
Flags: W
HStem: 264 90<140 303 405 567>
Fore
386 264 m 1
 343 64 l 1
 261 64 l 1
 303 264 l 1
 123 264 l 1
 141 354 l 1
 322 354 l 1
 365 553 l 1
 448 553 l 1
 405 354 l 1
 586 354 l 1
 567 264 l 1
 386 264 l 1
EndSplineSet
EndChar
StartChar: comma
Encoding: 44 44 13
OldEncoding: 44
Width: 252
Flags: W
HStem: -20 20G<105 129.5 129 132>
Fore
106 -71 m 0
 126 -43 127 -29 132 0 c 1
 130 0 130 0 129 0 c 0
 81 0 63 28 63 60 c 0
 63 106 100 159 153 159 c 0
 158 159 l 0
 205 156 219 121 219 83 c 0
 219 64 216 46 212 29 c 0
 178 -71 126 -143 18 -161 c 1
 29 -110 l 1
 57 -106 86 -98 106 -71 c 0
EndSplineSet
EndChar
StartChar: hyphen
Encoding: 45 45 14
OldEncoding: 45
Width: 455
Flags: W
HStem: 241 81<108 463>
Fore
90 241 m 1
 109 322 l 1
 481 322 l 1
 463 241 l 1
 90 241 l 1
EndSplineSet
EndChar
StartChar: period
Encoding: 46 46 15
OldEncoding: 46
Width: 217
Flags: W
HStem: 2 21G<99 141>
Fore
201 75 m 0
 195 41 164 2 118 2 c 0
 80 2 64 31 64 58 c 0
 64 64 64 71 66 75 c 0
 74 109 103 147 149 147 c 0
 187 147 202 121 202 92 c 0
 202 87 202 81 201 75 c 0
EndSplineSet
EndChar
StartChar: slash
Encoding: 47 47 16
OldEncoding: 47
Width: 597
Flags: W
HStem: -2 21G<32 161> 679 20G<593 719>
Fore
593 699 m 1
 719 699 l 1
 161 -2 l 1
 32 -2 l 1
 593 699 l 1
EndSplineSet
EndChar
StartChar: zero
Encoding: 48 48 17
OldEncoding: 48
Width: 697
Flags: W
HStem: 0 77<369 391> 619 81<494 526>
VStem: 143 124<223 257> 627 126<463 497>
Fore
737 353 m 0
 737 353 l 0
 696 181 613 2 369 0 c 0
 368 0 368 0 366 0 c 0
 202 0 143 106 143 235 c 0
 143 273 147 311 156 351 c 0
 190 512 303 699 518 700 c 0
 520 700 521 700 524 700 c 0
 696 700 753 593 753 471 c 0
 753 432 746 392 737 353 c 0
506 619 m 0
 374 618 308 468 281 351 c 0
 273 317 267 277 267 239 c 0
 267 155 296 77 389 77 c 0
 527 77 586 233 610 349 c 0
 619 389 627 434 627 475 c 0
 627 553 599 619 507 619 c 0
 506 619 l 0
EndSplineSet
EndChar
StartChar: one
Encoding: 49 49 18
OldEncoding: 49
Width: 697
Flags: W
HStem: -5 21G<374 503> 682 20G<497 653>
Fore
374 -5 m 1
 509 624 l 1
 464 584 443 566 408 541 c 0
 380 521 354 501 322 481 c 1
 277 540 l 1
 303 556 l 2
 333 575 460 665 481 690 c 0
 486 696 489 702 497 702 c 2
 653 702 l 1
 503 -5 l 1
 374 -5 l 1
EndSplineSet
EndChar
StartChar: two
Encoding: 50 50 19
OldEncoding: 50
Width: 697
Flags: W
HStem: -3 101<288 644.36> 625 89<514 544>
VStem: 207 132<458 487> 664 119<524 542>
Fore
667 -3 m 1
 116 -3 l 1
 136 80 156 155 228 216 c 0
 311 290 392 328 489 372 c 1
 616 429 664 486 664 530 c 0
 664 587 592 625 515 625 c 0
 463 625 408 607 371 566 c 0
 349 540 339 515 339 487 c 0
 339 475 342 460 346 445 c 1
 219 400 l 1
 210 420 207 440 207 458 c 0
 207 480 210 500 216 521 c 0
 233 575 291 639 356 671 c 0
 414 700 481 714 544 714 c 0
 632 714 710 688 746 638 c 0
 773 604 783 570 783 540 c 0
 783 452 697 382 650 354 c 0
 595 322 552 297 510 276 c 0
 448 244 379 205 314 144 c 0
 299 130 293 116 288 98 c 1
 394 98 659 98 690 100 c 1
 667 -3 l 1
EndSplineSet
EndChar
StartChar: three
Encoding: 51 51 20
OldEncoding: 51
Width: 697
Flags: W
HStem: -8 85<387 420> 326 82<420 463> 618 89<525 556>
VStem: 141 129<157 175> 595 130<228 235> 650 118<533 549>
Fore
353 504 m 1xf4
 356 501 l 1
 233 506 l 1
 251 566 268 596 317 636 c 0
 372 681 469 707 556 707 c 0
 628 707 696 688 730 648 c 0
 757 616 768 581 768 547 c 0xf4
 768 501 748 458 717 432 c 0
 688 408 638 383 604 377 c 1
 602 368 l 1
 636 363 681 343 704 305 c 0
 717 282 725 258 725 230 c 0
 725 187 707 139 673 98 c 0
 615 28 498 -8 389 -8 c 0
 287 -8 192 23 159 84 c 0
 146 107 141 132 141 159 c 0
 141 175 143 193 146 212 c 1
 271 212 l 1
 270 198 270 184 270 173 c 0
 270 156 271 143 279 129 c 0
 299 95 351 77 406 77 c 0
 484 77 570 113 590 201 c 0
 593 213 595 224 595 233 c 0xf8
 595 317 500 326 420 326 c 0
 409 326 400 326 391 326 c 1
 409 412 l 1
 429 409 446 408 463 408 c 0
 477 408 490 409 504 412 c 0
 555 422 615 438 638 483 c 0
 641 489 650 510 650 535 c 0
 650 573 628 618 529 618 c 0
 527 618 527 618 526 618 c 0
 458 618 394 587 360 523 c 0
 359 518 357 512 354 507 c 0
 354 506 353 504 353 504 c 1xf4
EndSplineSet
EndChar
StartChar: four
Encoding: 52 52 21
OldEncoding: 52
Width: 697
Flags: W
HStem: -5 21G<457 586> 178 83<244 497 641 739> 685 20G<569 736>
Fore
625 178 m 1
 586 -5 l 1
 457 -5 l 1
 497 178 l 1
 107 178 l 1
 127 271 l 1
 569 705 l 1
 736 705 l 1
 641 261 l 1
 756 261 l 1
 739 178 l 1
 625 178 l 1
587 612 m 1
 244 261 l 1
 512 261 l 1
 587 612 l 1
EndSplineSet
EndChar
StartChar: five
Encoding: 53 53 22
OldEncoding: 53
Width: 697
Flags: W
HStem: -15 89<397 435> 392 103<486 546> 601 96<325 779>
VStem: 158 129<154 184> 619 126<276 305>
Fore
400 -15 m 0
 262 -15 202 26 176 72 c 0
 161 97 158 123 158 156 c 0
 158 164 158 173 158 184 c 1
 287 184 l 1
 287 179 287 175 287 172 c 0
 287 98 334 74 411 74 c 0
 412 74 415 74 417 74 c 0
 530 75 584 139 610 222 c 0
 616 242 619 261 619 277 c 0
 619 354 559 392 486 392 c 0
 428 392 359 366 307 314 c 1
 189 314 l 1
 325 697 l 1
 786 697 l 1
 779 601 l 1
 411 601 l 1
 406 593 403 586 400 578 c 0
 379 526 360 481 340 429 c 1
 363 441 411 471 435 478 c 0
 463 486 498 495 546 495 c 0
 552 495 559 495 566 495 c 0
 693 489 745 411 745 305 c 0
 745 282 743 259 739 235 c 0
 711 87 607 -15 400 -15 c 0
EndSplineSet
EndChar
StartChar: six
Encoding: 54 54 23
OldEncoding: 54
Width: 697
Flags: W
HStem: -15 86<392 435> 380 78<483 521> 628 82<542 569>
VStem: 162 126<182 210> 609 121<260 284>
Fore
391 -15 m 0
 391 -15 l 0
 215 -8 162 92 162 210 c 0
 162 264 175 322 189 377 c 0
 231 533 345 707 561 710 c 0
 563 710 566 710 567 710 c 0
 685 710 771 668 780 550 c 1
 667 550 l 1
 653 605 609 628 549 628 c 0
 544 628 l 0
 437 628 369 540 337 446 c 0
 330 423 325 405 320 382 c 1
 326 385 333 388 337 392 c 2
 346 400 l 2
 397 440 452 455 509 458 c 0
 521 458 l 0
 658 458 730 391 730 284 c 0
 730 264 728 245 723 224 c 0
 697 97 592 -15 409 -15 c 0
 391 -15 l 0
477 380 m 0
 397 379 308 322 291 215 c 0
 290 204 288 193 288 182 c 0
 288 118 325 71 414 71 c 0
 523 71 586 139 604 221 c 0
 607 236 609 248 609 262 c 0
 609 342 550 380 483 380 c 0
 481 380 478 380 477 380 c 0
EndSplineSet
EndChar
StartChar: seven
Encoding: 55 55 24
OldEncoding: 55
Width: 697
Flags: W
HStem: -2 21G<231 376> 609 85<278 681>
Fore
477 253 m 0
 422 158 400 101 376 -2 c 1
 231 -2 l 1
 271 133 320 224 409 339 c 0
 483 435 578 524 681 609 c 1
 261 609 l 1
 279 694 l 1
 808 694 l 1
 788 601 l 1
 667 507 550 376 477 253 c 0
EndSplineSet
EndChar
StartChar: eight
Encoding: 56 56 25
OldEncoding: 56
Width: 697
Flags: W
HStem: -6 73<386 423> 348 87<459 483> 639 66<517 542>
VStem: 150 120<168 186> 254 120<513 523> 595 119<233 255> 635 121<564 578>
Fore
711 218 m 0xe4
 711 218 l 0
 688 94 582 -6 397 -6 c 0
 388 -6 l 0
 221 -5 150 74 150 170 c 0xf4
 150 185 153 202 156 219 c 0
 185 349 325 380 359 385 c 1
 365 408 l 1
 300 415 254 451 254 513 c 0
 254 527 256 541 261 556 c 0
 291 661 422 705 540 705 c 0
 656 705 756 670 756 576 c 0xea
 756 570 756 563 754 555 c 0
 740 469 676 422 598 408 c 1
 593 385 l 1
 621 379 714 356 714 253 c 0
 714 242 714 230 711 218 c 0xe4
593 218 m 0
 593 218 l 0
 595 225 595 233 595 241 c 0
 595 296 561 348 461 348 c 0
 353 348 294 288 274 218 c 0
 271 207 270 195 270 184 c 0
 270 124 314 69 402 67 c 0
 403 67 406 67 408 67 c 0
 515 67 584 144 593 218 c 0
526 639 m 0
 460 639 397 612 379 546 c 0
 376 535 374 524 374 513 c 0
 374 468 411 435 477 435 c 0
 477 435 478 435 480 435 c 0
 575 435 624 480 633 544 c 0
 635 552 635 558 635 566 c 0xea
 635 618 589 639 526 639 c 0
EndSplineSet
EndChar
StartChar: nine
Encoding: 57 57 26
OldEncoding: 57
Width: 697
Flags: W
HStem: -8 74<363 390> 248 80<417 454> 628 82<507 541>
VStem: 208 118<418 443> 645 123<497 521>
Fore
742 333 m 0
 742 333 l 0
 700 179 586 -6 372 -8 c 0
 368 -8 l 0
 192 -8 162 90 158 135 c 2
 156 144 l 1
 264 144 l 1
 276 89 322 66 383 66 c 0
 388 66 l 0
 448 66 501 95 549 161 c 0
 615 251 612 253 630 337 c 1
 609 328 601 316 586 303 c 0
 538 265 484 250 429 248 c 0
 425 248 422 248 417 248 c 0
 282 248 208 313 208 418 c 0
 208 435 210 455 215 475 c 0
 241 601 345 710 520 710 c 0
 527 710 533 710 541 710 c 0
 716 702 768 612 768 498 c 0
 768 446 757 388 742 333 c 0
521 628 m 0
 411 628 349 559 331 478 c 0
 328 466 326 454 326 443 c 0
 326 365 386 328 454 328 c 0
 535 328 627 382 642 484 c 0
 644 495 645 506 645 517 c 0
 645 581 609 628 521 628 c 0
EndSplineSet
EndChar
StartChar: colon
Encoding: 58 58 27
OldEncoding: 58
Width: 294
Flags: W
HStem: 2 145<143 173> 383 146<224 254>
Fore
305 455 m 0
 305 455 l 0
 297 422 270 383 224 383 c 0
 185 383 170 409 170 438 c 0
 170 443 170 449 172 455 c 0
 179 489 208 529 254 529 c 0
 293 529 307 503 307 474 c 0
 307 468 307 461 305 455 c 0
224 75 m 0
 218 41 189 2 143 2 c 0
 104 2 89 31 89 58 c 0
 89 64 89 71 90 75 c 0
 98 109 127 147 173 147 c 0
 212 147 225 121 225 94 c 0
 225 87 225 81 224 75 c 0
EndSplineSet
EndChar
StartChar: semicolon
Encoding: 59 59 28
OldEncoding: 59
Width: 320
Flags: W
HStem: 5 153<156 181> 379 145<228 259>
Fore
310 451 m 0
 310 451 l 0
 303 417 274 379 228 379 c 0
 189 379 173 406 173 435 c 0
 173 440 173 446 175 451 c 0
 182 484 213 524 259 524 c 0
 297 524 311 498 311 469 c 0
 311 463 311 457 310 451 c 0
129 -71 m 0
 150 -43 152 -23 156 5 c 1
 110 5 90 31 90 61 c 0
 90 106 129 158 181 158 c 0
 190 158 l 0
 222 155 244 130 244 86 c 0
 244 69 241 48 233 25 c 0
 201 -75 156 -143 49 -161 c 1
 60 -110 l 1
 87 -106 109 -98 129 -71 c 0
EndSplineSet
EndChar
StartChar: less
Encoding: 60 60 29
OldEncoding: 60
Width: 597
Flags: W
Fore
126 247 m 1
 147 349 l 1
 638 533 l 1
 616 435 l 1
 236 299 l 1
 558 161 l 1
 538 63 l 1
 126 247 l 1
EndSplineSet
EndChar
StartChar: equal
Encoding: 61 61 30
OldEncoding: 61
Width: 544
Flags: W
HStem: 138 92<114 526> 402 90<169 582>
Fore
152 402 m 1
 170 492 l 1
 601 492 l 1
 582 402 l 1
 152 402 l 1
95 138 m 1
 115 230 l 1
 546 230 l 1
 526 138 l 1
 95 138 l 1
EndSplineSet
EndChar
StartChar: greater
Encoding: 62 62 31
OldEncoding: 62
Width: 597
Flags: W
Fore
87 63 m 1
 107 161 l 1
 486 299 l 1
 166 435 l 1
 187 533 l 1
 598 349 l 1
 576 247 l 1
 87 63 l 1
EndSplineSet
EndChar
StartChar: question
Encoding: 63 63 32
OldEncoding: 63
Width: 538
Flags: W
HStem: -2 115<268 293> 369 148<256 308> 625 82<386 420>
VStem: 222 117<43 69> 480 115<537 558>
Fore
561 653 m 0
 561 653 l 0
 584 630 595 596 595 558 c 0
 595 484 553 394 472 325 c 0
 418 279 357 244 342 173 c 0
 340 167 340 162 334 141 c 1
 251 139 l 1
 265 184 270 205 279 227 c 0
 288 248 300 268 325 305 c 0
 374 377 454 418 475 504 c 0
 478 517 480 527 480 538 c 0
 480 595 435 625 386 625 c 0
 351 625 314 612 287 581 c 0
 274 569 253 536 253 506 c 0
 253 503 253 501 253 500 c 1
 276 512 294 517 308 517 c 0
 342 517 357 492 357 464 c 0
 357 440 346 412 325 395 c 0
 300 377 277 369 256 369 c 0
 221 369 192 389 178 417 c 0
 170 432 166 451 166 471 c 0
 166 543 216 632 288 671 c 0
 330 694 376 707 420 707 c 0
 475 707 526 690 561 653 c 0
293 113 m 0
 325 113 339 94 339 69 c 0
 339 37 313 -2 268 -2 c 0
 236 -2 222 18 222 43 c 0
 222 75 248 113 293 113 c 0
EndSplineSet
EndChar
StartChar: at
Encoding: 64 64 33
OldEncoding: 64
Width: 784
Flags: W
HStem: -26 80<407 434> 138 95<385 429> 440 96<487 505> 644 79<535 569>
VStem: 120 93<251 279> 265 109<270 299> 743 80<453 483>
Fore
541 135 m 0
 541 135 l 0
 513 135 490 149 490 181 c 0
 490 184 490 190 492 195 c 1
 443 152 412 138 385 138 c 0
 316 138 265 195 265 270 c 0
 265 284 267 296 270 310 c 0
 294 428 389 536 501 536 c 0
 543 536 572 523 601 472 c 1
 624 530 l 1
 704 530 l 1
 664 420 630 328 593 225 c 0
 592 221 592 216 592 213 c 0
 592 205 595 199 605 199 c 0
 645 199 711 277 736 388 c 0
 740 412 743 437 743 457 c 0
 743 581 661 644 543 644 c 0
 388 644 259 520 222 349 c 0
 216 322 213 296 213 271 c 0
 213 135 300 54 432 54 c 0
 498 54 563 80 621 121 c 1
 705 121 l 1
 615 34 530 -26 412 -26 c 0
 408 -26 l 0
 225 -25 120 87 120 253 c 0
 120 282 123 314 130 346 c 0
 175 558 359 723 561 723 c 0
 716 723 823 622 823 483 c 0
 823 463 822 441 817 420 c 0
 800 340 780 282 725 222 c 0
 664 156 628 135 541 135 c 0
377 326 m 0
 376 317 374 307 374 299 c 0
 374 261 392 233 429 233 c 0
 487 233 536 288 550 351 c 0
 552 360 553 368 553 376 c 0
 553 414 532 440 494 440 c 0
 440 440 389 383 377 326 c 0
EndSplineSet
EndChar
StartChar: A
Encoding: 65 65 34
OldEncoding: 65
Width: 628
Flags: W
HStem: 3 21G<25 141 460 590> 155 96<264 451> 684 20G<380 541>
Fore
460 3 m 1
 451 155 l 1
 216 155 l 1
 141 3 l 1
 25 3 l 1
 380 704 l 1
 541 704 l 1
 590 3 l 1
 460 3 l 1
431 596 m 1
 264 251 l 1
 446 251 l 1
 431 596 l 1
EndSplineSet
EndChar
StartChar: B
Encoding: 66 66 35
OldEncoding: 66
Width: 646
Flags: W
HStem: 3 97<224 388> 319 90<290 436> 612 92<233 500>
VStem: 520 124<220 235> 570 129<541 573>
Fore
536 40 m 0xf0
 536 40 l 0
 484 5 425 3 365 3 c 2
 83 3 l 1
 233 704 l 1
 515 704 l 2
 529 704 l 0
 573 704 619 702 655 674 c 0
 684 650 699 615 699 573 c 0xe8
 699 559 697 544 694 529 c 0
 679 457 618 392 535 369 c 1
 532 360 l 1
 602 343 644 290 644 222 c 0
 644 208 642 196 639 182 c 0
 627 126 586 75 536 40 c 0xf0
543 599 m 0
 543 599 l 0
 527 610 504 612 481 612 c 0
 469 612 457 612 446 612 c 2
 333 612 l 1
 290 409 l 1
 415 409 l 2
 418 409 423 409 426 409 c 0
 455 409 484 411 513 431 c 0
 541 451 561 483 567 515 c 0
 569 524 570 532 570 541 c 0
 570 564 563 586 543 599 c 0
489 302 m 0
 468 319 432 319 405 319 c 2
 270 319 l 1
 224 100 l 1
 351 100 l 2
 385 100 422 100 455 120 c 0
 486 139 509 176 518 213 c 0
 520 219 520 227 520 233 c 0xf0
 520 261 509 287 489 302 c 0
EndSplineSet
EndChar
StartChar: C
Encoding: 67 67 36
OldEncoding: 67
Width: 646
Flags: W
HStem: -3 100<339 366> 615 101<469 495>
VStem: 115 138<236 270> 570 126<492 511>
Fore
339 -3 m 0
 189 -3 115 104 115 248 c 0
 115 282 120 319 127 357 c 0
 169 555 307 716 495 716 c 0
 635 716 696 641 696 509 c 0
 696 497 696 484 694 471 c 1
 567 461 l 1
 569 475 570 489 570 503 c 0
 570 563 546 615 472 615 c 0
 471 615 471 615 469 615 c 0
 354 613 284 446 262 349 c 0
 256 322 253 293 253 264 c 0
 253 176 282 97 362 97 c 0
 366 97 l 0
 449 98 501 167 529 235 c 1
 642 227 l 1
 590 80 478 -3 339 -3 c 0
EndSplineSet
EndChar
StartChar: D
Encoding: 68 68 37
OldEncoding: 68
Width: 646
Flags: W
HStem: 3 21G<55 259> 596 108<205 424>
VStem: 553 128<431 457>
Fore
532 100 m 0
 532 100 l 0
 454 25 351 3 259 3 c 2
 55 3 l 1
 205 704 l 1
 383 704 l 2
 480 704 578 696 630 625 c 0
 665 579 681 521 681 457 c 0
 681 425 676 391 668 356 c 0
 648 261 602 169 532 100 c 0
530 540 m 0
 504 593 445 596 392 596 c 0
 386 596 380 596 376 596 c 2
 303 596 l 1
 199 109 l 1
 270 109 l 2
 339 109 412 118 468 190 c 0
 509 242 533 302 546 360 c 0
 550 385 553 409 553 432 c 0
 553 471 546 509 530 540 c 0
EndSplineSet
EndChar
StartChar: E
Encoding: 69 69 38
OldEncoding: 69
Width: 568
Flags: W
HStem: 2 93<219 523> 293 98<282 517> 596 101<228 650>
Fore
80 2 m 1
 228 697 l 1
 671 697 l 1
 650 596 l 1
 326 596 l 1
 282 391 l 1
 536 391 l 1
 517 293 l 1
 262 293 l 1
 219 95 l 1
 543 95 l 1
 523 2 l 1
 80 2 l 1
EndSplineSet
EndChar
StartChar: F
Encoding: 70 70 39
OldEncoding: 70
Width: 530
Flags: W
HStem: 2 21G<78 198> 288 104<281 515> 595 105<227 645>
Fore
323 595 m 1
 281 392 l 1
 536 392 l 1
 515 288 l 1
 259 288 l 1
 198 2 l 1
 78 2 l 1
 227 700 l 1
 668 700 l 1
 645 595 l 1
 323 595 l 1
EndSplineSet
EndChar
StartChar: G
Encoding: 71 71 40
OldEncoding: 71
Width: 646
Flags: W
HStem: -6 98<333 372> 261 96<431 536> 615 96<472 494>
VStem: 94 128<254 291> 590 115<487 507>
Fore
495 0 m 1
 500 17 510 74 510 77 c 0
 510 77 l 0
 510 77 510 77 510 75 c 1
 471 5 405 -6 333 -6 c 0
 181 -6 94 106 94 254 c 0
 94 284 98 314 104 346 c 0
 146 538 290 711 494 711 c 0
 495 711 498 711 501 711 c 0
 627 710 705 636 705 507 c 0
 705 504 705 500 705 497 c 1
 590 480 l 1
 590 483 590 486 590 487 c 0
 590 556 553 613 475 615 c 0
 474 615 l 0
 342 615 250 445 227 342 c 0
 224 326 222 310 222 291 c 0
 222 202 264 92 372 92 c 0
 452 92 518 153 536 261 c 1
 411 261 l 1
 432 357 l 1
 671 357 l 1
 595 0 l 1
 495 0 l 1
EndSplineSet
EndChar
StartChar: H
Encoding: 72 72 41
OldEncoding: 72
Width: 657
Flags: W
HStem: 3 21G<60 181 480 605> 308 107<270 546> 684 20G<210 331 630 756>
Fore
480 3 m 1
 546 308 l 1
 247 308 l 1
 181 3 l 1
 60 3 l 1
 210 704 l 1
 331 704 l 1
 270 415 l 1
 569 415 l 1
 630 704 l 1
 756 704 l 1
 605 3 l 1
 480 3 l 1
EndSplineSet
EndChar
StartChar: I
Encoding: 73 73 42
OldEncoding: 73
Width: 294
Flags: W
HStem: 3 21G<83 202> 684 20G<233 353>
Fore
83 3 m 1
 233 704 l 1
 353 704 l 1
 202 3 l 1
 83 3 l 1
EndSplineSet
EndChar
StartChar: J
Encoding: 74 74 43
OldEncoding: 74
Width: 482
Flags: W
HStem: -3 109<236 255> 680 20G<475 593>
VStem: 66 118<152 174>
Fore
357 29 m 0
 317 6 268 -3 236 -3 c 0
 225 -3 215 -2 208 0 c 1
 92 8 66 92 66 152 c 0
 66 166 67 178 69 187 c 2
 87 274 l 1
 204 274 l 1
 185 190 l 2
 184 184 184 178 184 172 c 0
 184 129 215 106 253 106 c 0
 294 106 343 135 365 196 c 0
 374 221 379 245 383 265 c 2
 475 700 l 1
 593 700 l 1
 483 182 l 1
 458 123 418 64 357 29 c 0
EndSplineSet
EndChar
StartChar: K
Encoding: 75 75 44
OldEncoding: 75
Width: 628
Flags: W
HStem: 0 21G<83 198 458 593> 679 20G<231 346>
Fore
458 0 m 1
 389 326 l 1
 225 130 l 1
 198 0 l 1
 83 0 l 1
 231 699 l 1
 346 699 l 1
 265 317 l 1
 582 697 l 1
 582 697 690 697 710 697 c 1
 500 438 l 1
 593 0 l 1
 458 0 l 1
EndSplineSet
EndChar
StartChar: L
Encoding: 76 76 45
OldEncoding: 76
Width: 490
Flags: W
HStem: 3 107<219 466> 684 20G<225 346>
Fore
75 3 m 1
 225 704 l 1
 346 704 l 1
 219 110 l 1
 489 110 l 1
 466 3 l 1
 75 3 l 1
EndSplineSet
EndChar
StartChar: M
Encoding: 77 77 46
OldEncoding: 77
Width: 862
Flags: W
HStem: 3 21G<80 176 374 454 658 777> 607 97<230 339 713 786>
Fore
658 3 m 1
 786 607 l 1
 750 607 l 1
 454 3 l 1
 374 3 l 1
 339 607 l 1
 305 607 l 1
 176 3 l 1
 80 3 l 1
 230 704 l 1
 445 704 l 1
 471 208 l 1
 713 704 l 1
 927 704 l 1
 777 3 l 1
 658 3 l 1
EndSplineSet
EndChar
StartChar: N
Encoding: 78 78 47
OldEncoding: 78
Width: 646
Flags: W
HStem: 3 21G<80 164 455 561> 684 20G<230 369 625 711>
Fore
455 3 m 1
 310 529 l 1
 276 529 l 1
 164 3 l 1
 80 3 l 1
 230 704 l 1
 369 704 l 1
 495 236 l 1
 526 236 l 1
 625 704 l 1
 711 704 l 1
 561 3 l 1
 455 3 l 1
EndSplineSet
EndChar
StartChar: O
Encoding: 79 79 48
OldEncoding: 79
Width: 646
Flags: W
HStem: -3 104<320 348> 616 100<449 474>
VStem: 98 130<252 286> 567 123<459 485>
Fore
559 112 m 0
 559 112 l 0
 492 35 408 -3 320 -3 c 0
 235 -3 162 26 129 103 c 0
 109 147 98 204 98 261 c 0
 98 293 101 325 109 357 c 0
 149 549 288 716 472 716 c 0
 558 716 632 694 665 619 c 0
 682 582 690 533 690 483 c 0
 690 441 684 397 676 359 c 0
 658 276 615 178 559 112 c 0
561 532 m 0
 552 589 512 616 455 616 c 0
 391 616 337 570 300 512 c 0
 268 463 247 405 238 357 c 0
 231 330 228 300 228 270 c 0
 228 185 258 101 348 101 c 0
 411 101 455 141 494 198 c 0
 527 247 546 307 556 357 c 0
 563 389 567 426 567 461 c 0
 567 486 564 510 561 532 c 0
EndSplineSet
EndChar
StartChar: P
Encoding: 80 80 49
OldEncoding: 80
Width: 625
Flags: W
HStem: 0 21G<63 182> 276 93<261 420> 605 95<212 471>
VStem: 555 126<515 543>
Fore
572 320 m 0
 572 320 l 0
 541 297 513 285 483 281 c 0
 461 276 440 276 417 276 c 0
 406 276 394 276 383 276 c 2
 241 276 l 1
 182 0 l 1
 63 0 l 1
 212 700 l 1
 469 700 l 2
 529 700 587 700 632 662 c 0
 664 632 681 590 681 543 c 0
 681 527 679 512 676 495 c 0
 661 428 625 362 572 320 c 0
532 581 m 0
 507 605 474 605 440 605 c 2
 311 605 l 1
 261 369 l 1
 391 369 l 2
 409 369 428 369 448 374 c 0
 468 379 487 389 507 408 c 0
 532 431 546 460 552 487 c 0
 553 497 555 506 555 515 c 0
 555 540 547 564 532 581 c 0
EndSplineSet
EndChar
StartChar: Q
Encoding: 81 81 50
OldEncoding: 81
Width: 646
Flags: W
HStem: -153 93<502 523> -9 104<302 353> 612 99<453 478>
VStem: 110 129<230 280> 385 70<-43 -2> 561 129<422 457>
Fore
461 28 m 0
 461 28 l 0
 458 15 455 3 455 -6 c 0
 455 -44 481 -60 512 -60 c 0
 515 -60 520 -60 523 -60 c 2
 561 -57 l 1
 541 -150 l 1
 529 -152 515 -153 504 -153 c 0
 423 -153 385 -130 385 -43 c 0
 385 -31 385 -17 386 -2 c 1
 323 -8 l 2
 316 -9 310 -9 302 -9 c 0
 227 -9 167 35 136 106 c 0
 118 149 110 196 110 247 c 0
 110 281 113 317 121 353 c 0
 161 544 293 711 478 711 c 0
 563 711 628 685 662 610 c 0
 681 567 690 512 690 455 c 0
 690 420 687 385 679 353 c 0
 651 221 575 94 461 28 c 0
553 527 m 0
 543 584 513 612 457 612 c 0
 392 612 339 573 305 515 c 0
 279 466 259 400 250 353 c 0
 244 323 239 288 239 256 c 0
 239 173 265 95 353 95 c 0
 415 95 461 129 494 189 c 0
 520 238 541 302 552 353 c 0
 558 380 561 411 561 440 c 0
 561 471 558 500 553 527 c 0
EndSplineSet
EndChar
StartChar: R
Encoding: 82 82 51
OldEncoding: 82
Width: 659
Flags: W
HStem: -2 21G<54 170 506 630 506 506> 281 114<254 454> 582 115<202 525>
VStem: 498 118<67 94> 521 121<221 242> 595 121<524 555>
Fore
506 -2 m 1xf0
 506 -2 l 0
 501 28 498 48 498 67 c 0xf0
 498 92 503 115 510 150 c 0
 517 176 521 201 521 221 c 0xe8
 521 258 504 281 440 281 c 2
 230 281 l 1
 170 -2 l 1
 54 -2 l 1
 202 697 l 1
 523 697 l 2
 619 697 716 679 716 555 c 0xe4
 716 540 714 524 711 506 c 0
 697 417 667 395 592 343 c 1
 630 311 642 276 642 242 c 0xe8
 642 190 616 136 616 94 c 0
 616 72 621 54 638 37 c 1
 630 -2 l 1
 506 -2 l 1xf0
500 582 m 2
 294 582 l 1
 254 395 l 1
 452 395 l 2
 463 395 474 395 483 395 c 0
 527 395 563 402 584 469 c 0
 592 492 595 510 595 524 c 0xe4
 595 581 544 582 500 582 c 2
EndSplineSet
EndChar
StartChar: S
Encoding: 83 83 52
OldEncoding: 83
Width: 588
Flags: W
HStem: -6 110<273 310> 607 106<412 433>
VStem: 155 139<451 497> 449 137<212 261>
Fore
471 48 m 1
 411 6 339 -6 273 -6 c 0
 158 -6 69 44 61 162 c 1
 61 162 181 198 189 198 c 1
 198 123 241 104 310 104 c 0
 342 104 428 118 446 189 c 0
 448 196 449 204 449 212 c 0
 449 241 434 259 415 270 c 0
 392 282 368 287 342 293 c 0
 241 317 155 348 155 451 c 0
 155 466 156 483 161 501 c 0
 173 566 205 618 258 659 c 0
 311 699 372 713 431 713 c 0
 538 713 615 676 632 572 c 1
 517 535 l 1
 507 579 492 607 417 607 c 0
 365 607 311 587 297 526 c 0
 294 515 294 506 294 497 c 0
 294 478 300 466 314 457 c 0
 334 446 357 440 379 435 c 0
 432 423 497 405 533 372 c 0
 567 343 586 305 586 261 c 0
 586 247 584 233 581 219 c 0
 567 153 524 89 471 48 c 1
EndSplineSet
EndChar
StartChar: T
Encoding: 84 84 53
OldEncoding: 84
Width: 530
Flags: W
HStem: 2 21G<202 322> 595 107<178 328 179 616>
Fore
448 595 m 1
 322 2 l 1
 202 2 l 1
 328 595 l 1
 156 595 l 1
 179 702 l 1
 639 702 l 1
 616 595 l 1
 448 595 l 1
EndSplineSet
EndChar
StartChar: U
Encoding: 85 85 54
OldEncoding: 85
Width: 646
Flags: W
HStem: -6 104<325 359> 679 20G<218 353 609 734>
VStem: 110 138<153 184>
Fore
632 215 m 0
 616 159 581 107 535 64 c 1
 472 11 397 -6 325 -6 c 0
 254 -6 182 5 144 51 c 0
 120 80 110 115 110 153 c 0
 110 190 118 231 127 274 c 2
 218 699 l 1
 353 699 l 1
 262 274 l 2
 256 247 248 213 248 184 c 0
 248 172 250 161 253 152 c 0
 268 103 319 98 359 98 c 0
 392 98 435 103 469 139 c 0
 503 178 509 230 518 274 c 2
 609 699 l 1
 734 699 l 1
 644 274 l 2
 632 215 l 0
EndSplineSet
EndChar
StartChar: V
Encoding: 86 86 55
OldEncoding: 86
Width: 588
Flags: W
HStem: 0 21G<222 374> 680 20G<179 310>
Fore
374 0 m 1
 222 0 l 1
 179 700 l 1
 310 700 l 1
 330 126 l 1
 593 699 l 1
 612 700 707 700 707 700 c 1
 374 0 l 1
EndSplineSet
EndChar
StartChar: W
Encoding: 87 87 56
OldEncoding: 87
Width: 882
Flags: W
HStem: -2 203<296 316> 501 199<544 556>
VStem: 175 121<201.465 202 256.117 444.427 511.516 697>
Fore
691 -2 m 1
 561 -2 l 1
 556 501 l 1
 544 501 l 0
 544 501 l 1
 316 -2 l 1
 190 -2 l 1
 175 697 l 1
 297 697 l 1
 294 256 l 1
 296 202 l 1
 296 202 l 0
 296 201 303 201 311 201 c 1
 532 699 l 1
 532 699 587 700 622 700 c 0
 639 700 651 700 651 699 c 0
 651 699 l 1
 664 208 l 1
 674 202 l 1
 697 256 l 1
 894 697 l 1
 1001 699 l 1
 691 -2 l 1
EndSplineSet
EndChar
StartChar: X
Encoding: 88 88 57
OldEncoding: 88
Width: 628
Flags: W
HStem: 0 21G<41 170 440 579> 680 20G<215 354>
Fore
440 0 m 1
 365 268 l 1
 170 0 l 1
 41 0 l 1
 322 363 l 1
 215 700 l 1
 354 700 l 1
 418 471 l 1
 584 699 l 1
 582 699 l 0
 708 699 l 1
 468 372 l 1
 579 0 l 1
 440 0 l 1
EndSplineSet
EndChar
StartChar: Y
Encoding: 89 89 58
OldEncoding: 89
Width: 588
Flags: W
HStem: 0 21G<235 356> 680 20G<184 325 586 705>
Fore
414 282 m 1
 356 0 l 1
 235 0 l 1
 297 297 l 1
 184 700 l 1
 325 700 l 1
 394 418 l 1
 586 700 l 1
 705 700 l 1
 414 282 l 1
EndSplineSet
EndChar
StartChar: Z
Encoding: 90 90 59
OldEncoding: 90
Width: 646
Flags: W
HStem: -2 102<244 593> 599 100<258 573>
Fore
86 -2 m 1
 107 98 l 1
 573 599 l 1
 238 599 l 1
 259 699 l 1
 731 699 l 1
 710 599 l 1
 244 100 l 1
 615 100 l 1
 593 -2 l 1
 86 -2 l 1
EndSplineSet
EndChar
StartChar: bracketleft
Encoding: 91 91 60
OldEncoding: 91
Width: 372
Flags: W
HStem: -190 60<149 235> 638 61<247 409>
Fore
58 -190 m 1
 247 699 l 1
 423 699 l 1
 409 638 l 1
 311 638 l 1
 149 -130 l 1
 247 -130 l 1
 235 -190 l 1
 58 -190 l 1
EndSplineSet
EndChar
StartChar: backslash
Encoding: 92 92 61
OldEncoding: 92
Width: 415
Flags: W
Fore
248 3 m 1
 190 704 l 1
 288 702 l 1
 360 2 l 1
 248 3 l 1
EndSplineSet
EndChar
StartChar: bracketright
Encoding: 93 93 62
OldEncoding: 93
Width: 372
Flags: W
HStem: -201 68<70 231> 632 67<246 331>
Fore
55 -201 m 1
 71 -133 l 1
 169 -133 l 1
 331 632 l 1
 233 632 l 1
 247 699 l 1
 423 699 l 1
 231 -201 l 1
 55 -201 l 1
EndSplineSet
EndChar
StartChar: asciicircum
Encoding: 94 94 63
OldEncoding: 94
Width: 588
Flags: W
HStem: 684 20G<394 490>
Fore
483 285 m 1
 429 642 l 1
 227 285 l 1
 156 285 l 1
 394 704 l 1
 490 704 l 1
 553 285 l 1
 483 285 l 1
EndSplineSet
EndChar
StartChar: underscore
Encoding: 95 95 64
OldEncoding: 95
Width: 556
VWidth: 2048
Flags: W
HStem: -199 64<-45 526>
Fore
-58 -199 m 1
 -44 -135 l 1
 540 -135 l 1
 526 -199 l 1
 -58 -199 l 1
EndSplineSet
EndChar
StartChar: grave
Encoding: 96 96 65
OldEncoding: 96
Width: 372
Flags: W
Fore
406 619 m 1
 235 691 l 1
 267 768 l 1
 429 671 l 1
 406 619 l 1
EndSplineSet
EndChar
StartChar: a
Encoding: 97 97 66
OldEncoding: 97
Width: 536
Flags: W
HStem: -5 74<228 259> 0 61<506 536> 452 74<363 394>
VStem: 71 121<94 123> 435 114<386 423>
Fore
185 -5 m 0xb8
 185 -5 l 0xb8
 115 -5 71 28 71 94 c 0
 71 104 72 116 75 130 c 0
 90 199 139 254 205 279 c 0
 233 291 271 302 307 308 c 0
 340 313 377 314 425 319 c 1
 429 340 l 2
 432 357 435 372 435 386 c 0
 435 399 434 409 428 420 c 0
 417 445 388 452 363 452 c 0
 317 452 267 434 245 380 c 1
 147 380 l 1
 185 487 284 526 394 526 c 0
 471 526 501 510 529 478 c 0
 544 461 549 443 549 423 c 0
 549 406 546 388 543 369 c 0
 540 354 536 339 533 322 c 2
 498 159 l 2
 495 144 494 138 490 124 c 0
 489 118 489 112 489 106 c 0
 489 63 533 61 536 61 c 0
 536 61 536 60 536 58 c 0
 536 48 524 0 523 0 c 0
 523 0 l 1
 521 0 515 0 506 0 c 0x78
 480 0 429 3 417 26 c 0
 400 54 400 69 400 69 c 1
 351 2 285 -5 228 -5 c 0
 213 -5 199 -5 185 -5 c 0xb8
411 250 m 1
 325 241 215 236 195 147 c 0
 193 138 192 130 192 123 c 0
 192 86 215 69 259 69 c 0
 296 69 336 92 362 126 c 0
 392 164 395 182 405 225 c 2
 411 250 l 1
EndSplineSet
EndChar
StartChar: b
Encoding: 98 98 67
OldEncoding: 98
Width: 541
Flags: W
HStem: -3 69<275 310> 435 89<363 415> 682 20G<212 319>
VStem: 458 117<307 342>
Fore
310 -3 m 0
 310 -3 l 0
 245 -3 184 6 173 49 c 1
 170 38 170 35 170 35 c 0
 170 35 l 0
 172 43 l 0
 172 43 l 0
 172 43 170 40 169 31 c 0
 167 21 166 6 162 0 c 1
 63 0 l 1
 212 702 l 1
 319 702 l 1
 270 468 l 1
 276 466 l 1
 308 515 363 524 415 524 c 0
 423 524 432 524 440 524 c 0
 535 520 575 438 575 342 c 0
 575 314 572 285 566 256 c 0
 536 113 443 -3 310 -3 c 0
363 435 m 0
 282 435 248 359 233 290 c 2
 216 212 l 2
 213 193 208 172 208 150 c 0
 208 135 210 121 215 109 c 0
 225 80 248 66 282 66 c 0
 374 66 438 187 452 256 c 0
 455 271 458 288 458 307 c 0
 458 368 434 435 363 435 c 0
EndSplineSet
EndChar
StartChar: c
Encoding: 99 99 68
OldEncoding: 99
Width: 530
Flags: W
HStem: 0 90<279 307> 441 89<381 400>
VStem: 94 128<175 209>
Fore
279 0 m 0
 277 0 276 0 273 0 c 0
 159 0 94 75 94 189 c 0
 94 210 97 233 101 258 c 0
 135 417 256 530 400 530 c 0
 515 530 559 463 559 368 c 0
 559 362 559 357 559 353 c 1
 457 353 l 1
 457 356 457 360 457 363 c 0
 457 406 438 441 385 441 c 0
 293 441 248 354 231 273 c 0
 227 248 222 221 222 196 c 0
 222 139 241 90 307 90 c 0
 363 90 403 135 423 184 c 1
 526 182 l 1
 484 72 408 2 279 0 c 0
EndSplineSet
EndChar
StartChar: d
Encoding: 100 100 69
OldEncoding: 100
Width: 530
Flags: W
HStem: -8 80<274 299> 422 101<343 391> 684 20G<527 635>
VStem: 92 118<170 201>
Fore
383 0 m 1
 395 48 l 0
 395 48 l 0
 395 49 392 49 389 49 c 0
 386 49 383 49 383 46 c 0
 383 46 l 1
 353 0 314 -8 274 -8 c 0
 259 -8 244 -6 228 -6 c 0
 133 -6 92 74 92 170 c 0
 92 196 95 224 101 251 c 0
 129 383 219 523 343 523 c 0
 353 523 362 523 369 523 c 0
 411 523 446 518 477 458 c 1
 527 704 l 1
 635 704 l 1
 484 0 l 1
 383 0 l 1
437 284 m 2
 437 285 440 302 440 323 c 0
 440 365 431 422 380 422 c 0
 287 422 230 320 215 247 c 0
 212 233 210 218 210 201 c 0
 210 139 235 72 299 72 c 0
 336 72 362 92 383 121 c 1
 402 150 418 185 423 213 c 1
 437 284 l 2
EndSplineSet
EndChar
StartChar: e
Encoding: 101 101 70
OldEncoding: 101
Width: 530
Flags: W
HStem: 0 87<271 297> 261 78<238 533> 440 86<347 381>
VStem: 92 112<175 197> 451 98<355.356 385>
Fore
215 261 m 1
 207 216 l 0
 205 205 204 193 204 184 c 0
 204 126 233 87 297 87 c 0
 343 87 386 109 409 162 c 1
 409 162 l 0
 409 162 441 162 472 162 c 0
 487 162 503 162 512 162 c 1
 486 116 425 0 271 0 c 0
 155 0 92 80 92 195 c 0
 92 219 94 244 100 270 c 0
 133 423 225 526 368 526 c 0
 474 526 527 489 541 434 c 0
 547 409 549 389 549 369 c 0
 549 334 543 302 533 261 c 1
 215 261 l 1
369 440 m 0
 316 440 264 428 238 339 c 1
 448 339 l 1
 449 349 451 360 451 369 c 0
 451 425 418 440 369 440 c 0
EndSplineSet
EndChar
StartChar: f
Encoding: 102 102 71
OldEncoding: 102
Width: 294
Flags: W
HStem: 3 21G<86 193> 415 83<132 175 299 371> 628 85<380 397>
Fore
399 628 m 2
 389 628 l 0
 331 628 319 586 305 529 c 2
 299 498 l 1
 388 498 l 1
 371 415 l 1
 282 415 l 1
 193 3 l 1
 86 3 l 1
 175 415 l 1
 116 415 l 1
 133 498 l 1
 192 498 l 1
 201 541 205 566 213 590 c 0
 221 615 230 635 244 651 c 0
 279 694 331 713 382 713 c 0
 386 713 392 713 397 713 c 2
 445 710 l 1
 428 627 l 1
 399 628 l 2
EndSplineSet
EndChar
StartChar: g
Encoding: 103 103 72
OldEncoding: 103
Width: 525
Flags: W
HStem: -230 80<209 219> -2 83<235 268> 431 92<335 342>
VStem: 18 102<-91 -76> 64 100<175 200>
Fore
475 460 m 0xe8
 475 460 l 0
 475 483 489 524 489 524 c 1
 490 524 556 524 581 524 c 1
 490 103 l 2
 455 -64 411 -216 219 -230 c 0
 212 -230 205 -231 198 -231 c 0
 104 -231 18 -187 18 -89 c 0
 18 -83 18 -77 20 -69 c 1
 21 -55 l 1
 120 -55 l 1
 120 -63 120 -72 120 -78 c 0xf0
 120 -103 123 -120 155 -133 c 0
 167 -141 185 -149 210 -150 c 0
 215 -150 218 -150 221 -150 c 0
 251 -150 264 -144 285 -136 c 1
 330 -115 340 -90 359 -51 c 0
 368 -29 369 20 382 40 c 0
 382 41 382 48 386 49 c 1
 343 18 294 -2 235 -2 c 0
 230 -2 227 -2 222 -2 c 0
 189 2 155 5 121 37 c 1
 81 67 64 118 64 175 c 0
 64 267 109 376 169 441 c 0
 182 457 258 523 342 523 c 0
 345 523 346 523 348 523 c 0
 400 520 446 506 475 460 c 0xe8
412 388 m 2
 408 394 l 1
 397 414 357 429 339 431 c 0
 337 431 l 0
 228 431 164 294 164 198 c 0xe8
 164 173 169 152 176 135 c 0
 192 101 228 81 268 81 c 0
 299 81 331 92 357 116 c 0
 406 161 434 242 434 308 c 0
 434 342 426 369 412 388 c 2
EndSplineSet
EndChar
StartChar: h
Encoding: 104 104 73
OldEncoding: 104
Width: 530
Flags: W
HStem: -3 21G<64 172 365 472> 417 107<394 452> 679 20G<213 320>
Fore
365 -3 m 1
 417 242 l 2
 423 273 431 300 438 337 c 0
 440 349 441 360 441 369 c 0
 441 400 429 415 397 417 c 0
 395 417 395 417 394 417 c 0
 346 417 285 382 262 346 c 0
 239 313 230 274 224 242 c 2
 172 -3 l 1
 64 -3 l 1
 213 699 l 1
 320 699 l 1
 265 441 l 1
 268 437 l 1
 307 503 399 524 452 524 c 0
 455 524 457 524 458 524 c 0
 498 523 532 506 549 469 c 0
 556 455 558 441 558 423 c 0
 558 418 558 412 558 408 c 0
 555 383 549 357 543 333 c 2
 472 -3 l 1
 365 -3 l 1
EndSplineSet
EndChar
StartChar: i
Encoding: 105 105 74
OldEncoding: 105
Width: 254
Flags: W
HStem: -2 21G<72 179> 677 20G<221 328>
Fore
198 593 m 1
 221 697 l 1
 328 697 l 1
 305 593 l 1
 198 593 l 1
72 -2 m 1
 182 523 l 1
 290 523 l 1
 179 -2 l 1
 72 -2 l 1
EndSplineSet
EndChar
StartChar: j
Encoding: 106 106 75
OldEncoding: 106
Width: 254
Flags: W
HStem: -205 84<-35 0> 677 20G<215 328>
Fore
192 592 m 1
 215 697 l 1
 328 697 l 1
 305 592 l 1
 192 592 l 1
158 -78 m 0
 153 -104 144 -124 130 -144 c 0
 100 -190 55 -205 0 -205 c 0
 -14 -205 -34 -208 -49 -208 c 0
 -57 -208 -61 -208 -67 -207 c 1
 -49 -120 l 1
 -34 -121 l 2
 -29 -121 -26 -121 -21 -121 c 0
 55 -121 61 -48 74 6 c 2
 182 523 l 1
 290 523 l 1
 181 6 l 2
 175 -20 166 -51 158 -78 c 0
EndSplineSet
EndChar
StartChar: k
Encoding: 107 107 76
OldEncoding: 107
Width: 548
Flags: W
HStem: 0 21G<74 181 397 517> 684 20G<224 331>
Fore
397 0 m 1
 339 259 l 1
 207 121 l 1
 181 0 l 1
 74 0 l 1
 224 704 l 1
 331 704 l 1
 238 264 l 1
 337 359 l 1
 498 523 l 1
 507 523 523 523 541 523 c 0
 575 523 613 523 613 523 c 0
 613 523 l 1
 441 354 l 1
 517 0 l 1
 397 0 l 1
EndSplineSet
EndChar
StartChar: l
Encoding: 108 108 77
OldEncoding: 108
Width: 254
Flags: W
HStem: 3 21G<72 179> 684 20G<222 330>
Fore
72 3 m 1
 222 704 l 1
 330 704 l 1
 179 3 l 1
 72 3 l 1
EndSplineSet
EndChar
StartChar: m
Encoding: 109 109 78
OldEncoding: 109
Width: 804
Flags: W
HStem: 0 21G<66 173 348 455 630 737> 434 89<365 423 641 687>
VStem: 708 111<380 423>
Fore
630 0 m 1
 684 250 l 2
 685 261 690 281 693 299 c 0
 697 317 704 349 707 362 c 0
 708 368 708 374 708 380 c 0
 708 420 684 432 641 432 c 0
 599 432 553 382 532 348 c 0
 521 334 512 265 509 250 c 2
 455 0 l 1
 348 0 l 1
 402 250 l 2
 408 282 414 313 422 345 c 0
 423 356 425 366 425 376 c 0
 425 422 399 434 365 434 c 0
 319 434 276 385 256 349 c 0
 241 319 233 282 227 250 c 2
 173 0 l 1
 66 0 l 1
 176 523 l 1
 277 523 l 1
 264 457 l 1
 264 449 l 1
 317 518 365 523 423 523 c 0
 471 523 512 475 513 435 c 1
 576 518 635 523 687 523 c 0
 693 523 700 523 707 523 c 0
 746 523 794 498 814 466 c 0
 819 457 819 441 819 423 c 0
 819 405 819 386 817 372 c 0
 812 345 805 317 799 290 c 2
 737 0 l 1
 630 0 l 1
EndSplineSet
EndChar
StartChar: n
Encoding: 110 110 79
OldEncoding: 110
Width: 530
Flags: W
HStem: 0 21G<67 175 356 463> 428 95<372 411>
VStem: 429 118<362 425>
Fore
356 0 m 1
 412 270 l 2
 420 299 429 333 429 362 c 0
 429 363 429 366 429 368 c 0
 428 402 418 428 372 428 c 0
 339 428 287 391 267 360 c 0
 241 325 233 273 225 239 c 2
 175 0 l 1
 67 0 l 1
 178 523 l 1
 284 523 l 1
 267 443 l 1
 267 443 l 0
 267 445 267 445 270 445 c 1
 333 515 372 523 411 523 c 0
 443 523 l 0
 486 523 521 507 538 471 c 0
 544 458 547 441 547 425 c 0
 547 391 538 351 532 322 c 2
 463 0 l 1
 356 0 l 1
EndSplineSet
EndChar
StartChar: o
Encoding: 111 111 80
OldEncoding: 111
Width: 536
Flags: W
HStem: -3 78<264 286> 443 83<356 376>
VStem: 86 121<172 206> 438 120<316 350>
Fore
264 -3 m 0
 264 -3 l 0
 147 -3 86 74 86 185 c 0
 86 208 89 235 95 261 c 0
 127 412 235 526 376 526 c 0
 494 526 558 446 558 333 c 0
 558 308 555 282 549 256 c 0
 518 109 399 -3 264 -3 c 0
434 385 m 1
 434 385 l 0
 434 385 l 0
 434 385 432 443 360 443 c 0
 359 443 359 443 357 443 c 0
 268 440 231 349 216 277 c 0
 212 253 207 221 207 190 c 0
 207 132 222 75 284 75 c 0
 376 75 415 179 431 254 c 0
 435 277 438 302 438 325 c 0
 438 345 437 365 434 385 c 1
EndSplineSet
EndChar
StartChar: p
Encoding: 112 112 81
OldEncoding: 112
Width: 536
Flags: W
HStem: -5 80<269 288> 432 95<356 418>
VStem: 440 119<310 340>
Fore
296 -5 m 0
 296 -5 l 0
 290 -5 281 -5 271 -5 c 0
 238 -5 192 0 184 40 c 1
 169 38 l 1
 123 -179 l 1
 15 -179 l 1
 164 523 l 1
 262 523 l 1
 256 489 l 1
 254 475 244 438 244 438 c 1
 293 506 357 527 418 527 c 0
 420 527 423 527 425 527 c 0
 486 526 524 500 543 443 c 0
 553 412 559 377 559 340 c 0
 559 313 556 285 550 258 c 0
 521 124 425 -5 296 -5 c 0
356 432 m 0
 319 432 285 412 262 379 c 0
 238 343 230 325 222 291 c 2
 212 238 l 2
 205 213 201 189 201 166 c 0
 201 152 202 139 207 126 c 0
 218 97 245 75 276 75 c 0
 362 75 422 193 434 256 c 0
 437 271 440 291 440 310 c 0
 440 369 418 432 356 432 c 0
EndSplineSet
EndChar
StartChar: q
Encoding: 113 113 82
OldEncoding: 113
Width: 530
Flags: W
HStem: -5 85<254 283> 435 88<349 369>
VStem: 81 114<172 190>
Fore
576 445 m 0
 443 -179 l 1
 336 -179 l 1
 383 46 l 1
 339 -2 296 -5 254 -5 c 0
 241 -5 l 0
 132 -5 81 77 81 182 c 0
 81 207 83 233 89 259 c 0
 118 399 213 523 349 523 c 0
 412 523 461 515 478 454 c 1
 489 497 481 483 492 523 c 1
 494 524 501 524 510 524 c 0
 538 524 589 521 592 521 c 1
 592 521 l 0
 592 521 l 0
 592 520 579 461 576 445 c 0
443 307 m 2
 445 317 446 330 446 340 c 0
 446 388 426 432 368 435 c 0
 366 435 365 435 365 435 c 0
 276 435 219 330 204 259 c 0
 199 235 195 205 195 176 c 0
 195 162 195 150 198 138 c 0
 204 103 242 80 281 80 c 0
 314 80 353 103 371 126 c 0
 400 161 417 189 425 224 c 2
 443 307 l 2
EndSplineSet
EndChar
StartChar: r
Encoding: 114 114 83
OldEncoding: 114
Width: 346
Flags: W
HStem: 0 21G<49 155>
Fore
251 455 m 1
 291 498 342 524 376 524 c 2
 431 524 l 1
 408 417 l 1
 380 415 346 415 317 406 c 1
 261 382 227 339 208 254 c 2
 155 0 l 1
 49 0 l 1
 161 524 l 1
 267 524 l 1
 251 455 l 1
EndSplineSet
EndChar
StartChar: s
Encoding: 115 115 84
OldEncoding: 115
Width: 482
Flags: W
HStem: -11 86<257 284> 438 91<323 349>
VStem: 66 100<123 159> 124 109<348 377> 389 105<164 185> 412 100<379 402>
Fore
362 12 m 0xd8
 333 0 297 -8 264 -11 c 1
 146 -11 66 12 66 123 c 0
 66 141 67 161 72 184 c 1
 167 184 l 1
 166 175 166 167 166 159 c 0
 166 90 216 75 284 75 c 1
 331 81 376 94 386 147 c 0
 388 153 389 159 389 164 c 0xe8
 389 179 382 192 357 199 c 0
 299 218 248 239 196 265 c 0
 162 279 124 296 124 348 c 0
 124 357 124 368 127 379 c 0
 149 484 248 529 349 529 c 0
 464 529 512 486 512 402 c 0
 512 386 510 368 507 349 c 1
 409 349 l 1
 411 360 412 371 412 379 c 0xd4
 412 422 386 438 323 438 c 0
 271 438 233 406 233 377 c 0
 233 366 239 354 254 346 c 0
 320 311 391 310 452 265 c 0
 481 245 494 216 494 185 c 0
 494 120 435 43 362 12 c 0xd8
EndSplineSet
EndChar
StartChar: t
Encoding: 116 116 85
OldEncoding: 116
Width: 372
Flags: W
HStem: 3 86<254 303> 435 86<132 196 322 411> 679 20G<259 360>
VStem: 129 115<92 139>
Fore
333 11 m 1
 307 8 281 3 254 3 c 0
 215 3 167 9 147 34 c 0
 133 49 129 69 129 92 c 0
 129 118 135 149 141 175 c 2
 196 435 l 1
 115 435 l 1
 133 521 l 1
 219 521 l 1
 259 699 l 1
 360 699 l 1
 322 523 l 1
 432 523 l 1
 411 435 l 1
 303 435 l 1
 253 198 l 2
 248 176 244 156 244 139 c 0
 244 109 258 89 303 89 c 0
 310 89 316 90 322 90 c 2
 346 92 l 1
 325 -6 l 1
 342 14 l 1
 333 11 l 1
EndSplineSet
EndChar
StartChar: u
Encoding: 117 117 86
OldEncoding: 117
Width: 530
Flags: W
HStem: 0 100<199 274>
VStem: 100 116<100 152>
Fore
362 -2 m 1
 377 69 l 1
 356 69 l 1
 300 6 259 0 199 0 c 0
 152 0 120 15 106 55 c 0
 101 69 100 84 100 100 c 0
 100 130 107 164 113 196 c 2
 182 521 l 1
 290 521 l 1
 221 196 l 2
 218 181 216 166 216 152 c 0
 216 121 228 100 274 100 c 0
 316 100 354 129 377 169 c 0
 394 198 397 216 403 247 c 2
 461 521 l 1
 569 521 l 1
 458 -2 l 1
 362 -2 l 1
EndSplineSet
EndChar
StartChar: v
Encoding: 118 118 87
OldEncoding: 118
Width: 469
Flags: W
HStem: 0 21G<185 296>
Fore
296 0 m 1
 185 0 l 1
 138 523 l 1
 253 523 l 1
 285 170 l 1
 454 523 l 1
 564 523 l 1
 296 0 l 1
EndSplineSet
EndChar
StartChar: w
Encoding: 119 119 88
OldEncoding: 119
Width: 726
Flags: W
HStem: 2 21G<458 559> 523 1<487 535>
Fore
559 2 m 1
 458 2 l 1
 451 374 l 1
 443 374 l 1
 276 2 l 1
 167 3 l 1
 138 524 l 1
 253 524 l 1
 261 162 l 1
 267 164 l 1
 425 524 l 1
 426 524 458 524 487 524 c 0
 512 524 535 524 535 523 c 0
 535 523 535 523 533 523 c 1
 546 164 l 1
 550 162 l 1
 711 523 l 1
 809 523 l 1
 559 2 l 1
EndSplineSet
EndChar
StartChar: x
Encoding: 120 120 89
OldEncoding: 120
Width: 530
Flags: W
HStem: 0 21G<49 162 353 477>
Fore
353 0 m 1
 299 184 l 1
 162 0 l 1
 49 0 l 1
 261 270 l 2
 261 270 261 270 261 271 c 0
 261 287 175 523 175 523 c 1
 299 523 l 1
 343 360 l 1
 457 523 l 1
 564 523 l 1
 380 281 l 1
 477 0 l 1
 353 0 l 1
EndSplineSet
EndChar
StartChar: y
Encoding: 121 121 90
OldEncoding: 121
Width: 470
Flags: W
Fore
314 35 m 2
 299 5 284 -25 268 -52 c 0
 224 -135 161 -185 67 -192 c 2
 2 -196 l 1
 25 -94 l 1
 37 -95 49 -95 61 -95 c 0
 120 -95 162 -75 202 14 c 1
 149 523 l 1
 264 523 l 1
 285 150 l 1
 464 523 l 1
 559 523 l 1
 314 35 l 2
EndSplineSet
EndChar
StartChar: z
Encoding: 122 122 91
OldEncoding: 122
Width: 412
Flags: W
HStem: 0 87<147 379> 438 85<151 354>
Fore
23 0 m 1
 44 103 l 1
 354 438 l 1
 135 438 l 1
 152 523 l 1
 478 523 l 1
 463 445 l 1
 147 87 l 1
 397 87 l 1
 379 0 l 1
 23 0 l 1
EndSplineSet
EndChar
StartChar: braceleft
Encoding: 123 123 92
OldEncoding: 123
Width: 372
Flags: W
HStem: -182 56<256 267> 645 57<389 441>
VStem: 130 78<-95 -83> 184 77<180 192>
Fore
202 -182 m 2xe0
 178 -182 130 -155 130 -95 c 0xe0
 130 -86 132 -77 133 -67 c 2
 181 161 l 2
 182 169 184 176 184 182 c 0
 184 227 146 238 118 239 c 1
 129 291 l 1
 162 293 212 305 224 359 c 2
 271 587 l 2
 288 665 362 702 389 702 c 2
 454 702 l 1
 441 645 l 1
 425 645 l 2
 362 645 351 601 345 573 c 2
 300 362 l 2
 288 302 235 277 189 273 c 1
 184 254 l 1
 224 251 261 241 261 190 c 0xd0
 261 181 261 170 258 159 c 2
 213 -54 l 2
 212 -63 208 -72 208 -83 c 0
 208 -104 219 -126 262 -126 c 2
 279 -126 l 1
 267 -182 l 1
 202 -182 l 2xe0
EndSplineSet
EndChar
StartChar: bar
Encoding: 124 124 93
OldEncoding: 124
Width: 294
Flags: W
HStem: 3 21G<107 187> 684 20G<258 337>
Fore
107 3 m 1
 258 704 l 1
 337 704 l 1
 187 3 l 1
 107 3 l 1
EndSplineSet
EndChar
StartChar: braceright
Encoding: 125 125 94
OldEncoding: 125
Width: 372
Flags: W
HStem: 679 20G<216 281>
VStem: 222 77<334 344> 274 79<599 612>
Fore
259 158 m 2xc0
 210 -71 l 2
 193 -149 120 -185 92 -185 c 2
 28 -185 l 1
 40 -129 l 1
 58 -129 l 2
 120 -129 132 -83 136 -57 c 2
 182 156 l 2
 198 233 244 247 293 250 c 1
 297 271 l 1
 256 276 222 293 222 336 c 0xc0
 222 343 224 351 225 359 c 2
 270 570 l 2
 271 578 274 589 274 599 c 0xa0
 274 621 264 642 222 642 c 2xc0
 204 642 l 1
 216 699 l 1
 281 699 l 2
 305 699 353 671 353 612 c 0xa0
 353 602 351 593 349 584 c 2
 300 356 l 2
 299 349 299 345 299 340 c 0
 299 299 337 290 366 288 c 1
 356 236 l 1
 323 235 273 221 259 158 c 2xc0
EndSplineSet
EndChar
StartChar: asciitilde
Encoding: 126 126 95
OldEncoding: 126
Width: 588
Flags: W
Fore
397 242 m 0
 346 274 285 330 242 330 c 0
 230 330 219 325 212 314 c 0
 198 297 193 273 189 253 c 1
 100 253 l 1
 113 302 130 348 170 389 c 0
 195 415 222 425 248 425 c 0
 319 425 389 357 425 331 c 0
 449 313 468 305 483 305 c 0
 513 305 526 342 538 391 c 1
 624 391 l 1
 610 342 595 296 555 254 c 0
 535 233 503 219 469 219 c 0
 446 219 420 227 397 242 c 0
EndSplineSet
EndChar
StartChar: uni0E10.descless
Encoding: 128 63232 96
OldEncoding: 63232
Width: 613
Flags: W
HStem: -3 75<360 385> 167 66<216 230> 305 69<245 267> 497 75<587 615> 533 71<381 408>
VStem: 132 69<244 261> 230 110<86 110> 276 89<268 286> 486 116<309 325>
Fore
704 532 m 1xf680
 704 532 l 0
 700 530 664 497 593 497 c 0
 589 497 l 0xf680
 510 498 472 533 399 533 c 0
 394 533 388 533 382 533 c 0
 322 529 302 495 300 495 c 0
 305 495 376 495 463 466 c 0
 550 435 589 402 599 353 c 0
 602 342 602 333 602 325 c 0
 602 307 598 291 593 273 c 1
 553 133 l 1
 540 80 512 38 454 14 c 0
 428 2 392 -3 360 -3 c 0
 320 -3 284 5 268 18 c 0
 242 37 230 52 230 86 c 0xee80
 230 94 230 101 231 110 c 1
 239 170 l 1
 231 169 224 167 216 167 c 0
 170 167 132 195 132 244 c 0
 132 251 132 261 135 271 c 0
 150 331 202 374 267 374 c 0
 271 374 277 372 282 372 c 0
 337 368 365 337 365 282 c 0xed80
 365 271 363 259 362 247 c 2
 342 115 l 2
 340 109 340 104 340 100 c 0
 340 83 348 72 379 72 c 0
 412 72 428 78 434 104 c 2
 478 268 l 1
 483 284 486 296 486 310 c 0
 486 323 483 337 474 351 c 0
 452 382 388 409 308 423 c 0
 225 438 162 445 161 445 c 1
 161 448 176 507 256 561 c 0
 307 595 362 604 408 604 c 0xee80
 429 604 449 602 464 599 c 0
 520 590 559 572 605 572 c 0
 615 572 l 0
 662 573 682 598 682 598 c 1
 704 532 l 1xf680
245 305 m 0
 218 305 201 281 201 261 c 0
 201 245 210 233 230 233 c 0xe680
 258 233 276 258 276 277 c 0xe580
 276 293 267 305 245 305 c 0
EndSplineSet
EndChar
StartChar: uni0E34.left
Encoding: 129 63233 97
OldEncoding: 63233
Width: 0
Flags: W
HStem: 725 60<-391 -356> 855 66<-324 -297>
Fore
-300 921 m 0
 -300 921 l 0
 -143 920 -103 774 -103 690 c 0
 -103 671 -104 656 -107 645 c 1
 -107 645 -176 717 -356 725 c 0
 -368 725 -379 727 -391 727 c 0
 -517 727 -593 690 -595 690 c 1
 -564 800 -464 921 -303 921 c 0
 -302 921 -302 921 -300 921 c 0
-314 855 m 0
 -316 855 -319 855 -320 855 c 0
 -429 855 -466 774 -466 774 c 1
 -466 774 -422 785 -357 785 c 0
 -351 785 -343 785 -336 785 c 0
 -254 782 -190 756 -190 756 c 1
 -190 756 -201 854 -314 855 c 0
EndSplineSet
EndChar
StartChar: uni0E35.left
Encoding: 130 63234 98
OldEncoding: 63234
Width: 0
Flags: W
HStem: 707 58<-390 -352> 835 66<-322 -303> 923 20G<-167 -52>
Fore
-593 670 m 0
 -593 670 l 0
 -567 780 -468 872 -368 894 c 0
 -346 898 -325 901 -305 901 c 0
 -254 901 -212 886 -184 868 c 1
 -167 943 l 1
 -52 943 l 1
 -103 710 l 1
 -103 710 -103 702 -103 691 c 0
 -103 685 -103 679 -103 671 c 0
 -103 648 -104 628 -104 625 c 1
 -104 625 -173 697 -353 705 c 0
 -365 705 -377 707 -388 707 c 0
 -515 707 -592 670 -593 670 c 0
-313 835 m 0
 -314 835 -317 835 -319 835 c 0
 -428 835 -463 754 -463 754 c 1
 -463 754 -420 765 -356 765 c 0
 -349 765 -342 765 -334 765 c 0
 -251 762 -189 736 -189 736 c 1
 -189 736 -198 834 -313 835 c 0
EndSplineSet
EndChar
StartChar: uni0E36.left
Encoding: 131 63235 99
OldEncoding: 63235
Width: 0
Flags: W
HStem: 690 58<-437 -388> 819 65<-360 -326> 903 47<-168 -148>
VStem: -118 54<863 875>
Fore
-615 668 m 0
 -615 668 l 0
 -604 720 -563 803 -472 851 c 0
 -425 877 -376 884 -336 884 c 0
 -305 884 -281 880 -264 874 c 1
 -262 877 -254 909 -208 937 c 0
 -192 946 -173 950 -155 950 c 0
 -126 950 -98 940 -84 924 c 0
 -71 909 -64 892 -64 875 c 0
 -64 860 -69 845 -77 826 c 0
 -92 791 -115 769 -150 754 c 1
 -143 733 -138 717 -135 693 c 0
 -133 674 -129 679 -129 671 c 0
 -129 667 -130 658 -135 636 c 1
 -135 636 -207 681 -386 688 c 0
 -405 690 -422 690 -437 690 c 0
 -552 690 -613 668 -615 668 c 0
-343 819 m 0
 -343 819 l 0
 -345 819 -348 819 -349 819 c 0
 -460 819 -497 737 -497 737 c 1
 -497 737 -452 748 -388 748 c 0
 -365 748 l 0
 -285 745 -219 719 -219 719 c 1
 -219 719 -231 817 -343 819 c 0
-179 803 m 0
 -141 805 -118 837 -118 864 c 0
 -118 884 -132 903 -159 903 c 0
 -198 903 -219 869 -219 842 c 0
 -219 822 -208 803 -181 803 c 0
 -179 803 l 0
EndSplineSet
EndChar
StartChar: uni0E37.left
Encoding: 132 63236 100
OldEncoding: 63236
Width: 0
Flags: W
HStem: 713 58<-399 -361> 842 65<-344 -313> 930 20G<-303 -212 -153 -54>
Fore
-602 676 m 0
 -602 676 l 0
 -602 681 -582 768 -500 838 c 0
 -422 903 -349 907 -322 907 c 0
 -317 907 -314 907 -313 907 c 1
 -303 950 l 1
 -212 950 l 1
 -225 891 l 1
 -219 889 -210 881 -201 875 c 0
 -190 869 -176 854 -175 854 c 1
 -153 950 l 1
 -54 950 l 1
 -110 684 l 1
 -113 632 l 1
 -113 632 -182 704 -362 711 c 0
 -374 711 -386 713 -397 713 c 0
 -524 713 -601 676 -602 676 c 0
-322 842 m 0
 -323 842 -326 842 -328 842 c 0
 -437 842 -474 760 -474 760 c 1
 -474 760 -429 771 -365 771 c 0
 -342 771 l 0
 -262 768 -196 742 -196 742 c 1
 -196 742 -208 840 -322 842 c 0
EndSplineSet
EndChar
StartChar: ellipsis
Encoding: 133 8230 101
OldEncoding: 8230
Width: 637
VWidth: 2048
Flags: W
HStem: 0 21G<98 125.5 308 348.5 519.5 547>
Fore
144 133 m 0
 181 133 201 118 201 86 c 0
 201 80 199 74 198 66 c 0
 195 48 184 32 169 18 c 0
 153 6 135 0 116 0 c 0
 80 0 60 15 60 46 c 0
 60 52 61 58 63 66 c 0
 72 110 100 133 144 133 c 0
354 133 m 0
 391 133 411 118 411 86 c 0
 411 80 409 74 408 66 c 0
 399 21 371 0 326 0 c 0
 290 0 271 15 271 44 c 0
 271 51 273 58 274 66 c 0
 284 110 310 133 354 133 c 0
566 133 m 0
 602 133 622 118 622 86 c 0
 622 80 621 74 619 66 c 0
 616 48 605 32 590 18 c 0
 573 6 556 0 538 0 c 0
 501 0 483 15 483 44 c 0
 483 51 484 58 486 66 c 0
 495 110 521 133 566 133 c 0
EndSplineSet
EndChar
StartChar: uni0E48.low_left
Encoding: 134 63237 102
OldEncoding: 63237
Width: 0
Flags: W
Fore
-259 668 m 1
 -205 923 l 1
 -87 923 l 1
 -141 668 l 1
 -259 668 l 1
EndSplineSet
EndChar
StartChar: uni0E49.low_left
Encoding: 135 63238 103
OldEncoding: 63238
Width: 0
Flags: W
HStem: 766 49<-323 -305> 898 49<-290 -280>
VStem: -394 55<832 848> -256 63<866 874>
Fore
-359 716 m 0
 -359 716 l 0
 -333 742 -323 766 -323 766 c 1
 -349 766 -385 782 -392 814 c 0
 -394 820 -394 826 -394 832 c 0
 -394 883 -351 944 -285 947 c 0
 -281 947 l 0
 -227 947 -193 918 -193 874 c 0
 -193 872 -193 869 -193 868 c 0
 -198 809 -241 753 -261 740 c 1
 -230 745 -201 753 -166 768 c 0
 -124 786 -103 802 -75 823 c 0
 -18 868 21 923 21 923 c 1
 -8 785 l 1
 -8 785 -75 728 -173 699 c 0
 -241 679 -319 671 -374 671 c 0
 -391 671 -406 671 -417 673 c 1
 -417 673 -383 690 -359 716 c 0
-305 815 m 0
 -274 815 -256 843 -256 866 c 0
 -256 883 -267 898 -290 898 c 0
 -320 898 -339 871 -339 848 c 0
 -339 831 -328 815 -305 815 c 0
EndSplineSet
EndChar
StartChar: uni0E4A.low_left
Encoding: 136 63239 104
OldEncoding: 63239
Width: 0
Flags: W
HStem: 670 35<-371 -355> 773 26<-369 -351 -369 -344> 832 91<-319 -262> 860 63<-325 -313>
VStem: -441 49<731 750> -323 39<744 757> -169 74<822 837>
Fore
-357 834 m 0xde
 -357 834 l 0
 -368 819 -369 802 -369 799 c 1
 -368 799 -353 805 -334 805 c 0
 -325 805 -314 803 -305 799 c 0
 -290 791 -284 774 -284 757 c 0
 -284 731 -297 704 -317 688 c 0
 -334 676 -351 670 -368 670 c 0
 -402 670 -431 691 -438 722 c 0
 -440 730 -441 739 -441 750 c 0
 -441 814 -399 907 -331 921 c 0
 -325 923 -319 923 -313 923 c 0xee
 -267 923 -248 887 -247 887 c 0
 -245 887 -204 923 -161 923 c 0xde
 -126 923 -94 900 -94 852 c 0
 -94 848 -95 843 -95 837 c 0
 -100 789 -130 750 -130 750 c 1
 -126 751 -89 769 -58 809 c 0
 -28 849 -12 898 -9 917 c 1
 61 875 l 1
 61 875 18 769 -83 719 c 0
 -149 685 -236 674 -261 674 c 0
 -256 674 -204 704 -181 768 c 0
 -173 786 -169 806 -169 822 c 0
 -169 843 -178 858 -199 858 c 0
 -222 858 -262 832 -262 832 c 2xee
 -264 832 -285 860 -319 860 c 0
 -339 860 -348 848 -357 834 c 0xde
-365 705 m 0
 -339 705 -323 728 -323 746 c 0
 -323 760 -333 773 -351 773 c 0
 -377 773 -392 750 -392 731 c 0
 -392 717 -383 705 -365 705 c 0
EndSplineSet
EndChar
StartChar: uni0E4B.low_left
Encoding: 137 63240 105
OldEncoding: 63240
Width: 0
Flags: W
HStem: 788 83<-401 -300 -170 -69>
Fore
-259 981 m 1
 -147 981 l 1
 -170 871 l 1
 -51 871 l 1
 -69 788 l 1
 -189 788 l 1
 -212 679 l 1
 -323 679 l 1
 -300 788 l 1
 -418 788 l 1
 -400 871 l 1
 -282 871 l 1
 -259 981 l 1
EndSplineSet
EndChar
StartChar: uni0E4C.low_left
Encoding: 138 63241 106
OldEncoding: 63241
Width: 0
Flags: W
HStem: 668 45<-256 -241> 800 43<-222 -211.939>
VStem: -337 61<744 752> -187 44<763 775>
Fore
-156 874 m 0
 -156 874 l 0
 -210 869 -221 843 -222 843 c 0
 -219 843 -143 843 -143 773 c 0
 -143 765 -144 756 -146 746 c 0
 -156 697 -210 668 -256 668 c 0
 -284 668 -310 679 -323 700 c 0
 -333 714 -337 731 -337 750 c 0
 -337 799 -305 857 -256 887 c 0
 -189 927 -141 914 -86 949 c 0
 -58 967 -49 1013 -48 1018 c 1
 37 1018 l 1
 37 1013 15 953 -15 926 c 0
 -46 898 -81 880 -156 874 c 0
-241 713 m 0
 -207 713 -187 742 -187 766 c 0
 -187 785 -198 800 -222 800 c 0
 -256 800 -276 771 -276 746 c 0
 -276 728 -265 713 -241 713 c 0
EndSplineSet
EndChar
StartChar: uni0E48.low
Encoding: 139 63242 107
OldEncoding: 63242
Width: 0
Flags: HW
HStem: 918 20G<-3 115>
AnchorPoint: "AboveBase" 42 613 mark 0
Fore
-57 684 m 1
 -3 938 l 1
 115 938 l 1
 61 684 l 1
 -57 684 l 1
EndSplineSet
Substitution: 0 65534 'amni' uni0E4D
EndChar
StartChar: uni0E49.low
Encoding: 140 63243 108
OldEncoding: 63243
Width: 0
Flags: HW
HStem: 791 58<-187 -166>
AnchorPoint: "AboveBase" 42 613 mark 0
Fore
-227 731 m 0
 -227 731 l 0
 -196 762 -187 791 -187 791 c 1
 -216 791 -258 809 -267 848 c 0
 -282 914 -227 999 -143 1004 c 0
 -72 1007 -31 969 -34 910 c 0
 -37 843 -87 776 -112 760 c 1
 -75 765 -41 774 0 792 c 0
 49 815 71 831 106 858 c 0
 173 912 218 976 218 976 c 1
 184 814 l 1
 184 814 106 746 -9 711 c 0
 -113 679 -236 674 -296 681 c 1
 -296 681 -258 699 -227 731 c 0
-166 849 m 0
 -101 851 -84 947 -149 946 c 0
 -212 944 -228 848 -166 849 c 0
EndSplineSet
Substitution: 0 65534 'amni' uni0E4D
EndChar
StartChar: uni0E4A.low
Encoding: 141 63244 109
OldEncoding: 63244
Width: 0
Flags: HW
HStem: 797 32<-228 -204> 898 77<-29 18>
AnchorPoint: "AboveBase" 42 613 mark 0
Fore
-215 871 m 0
 -215 871 l 0
 -230 849 -227 834 -228 829 c 1
 -227 829 -187 849 -153 829 c 0
 -110 805 -124 731 -166 700 c 0
 -225 655 -296 682 -311 737 c 0
 -330 812 -276 952 -184 972 c 0
 -109 989 -83 935 -84 933 c 0
 -84 932 -34 975 18 975 c 0
 64 975 103 943 95 874 c 0
 89 817 52 771 52 771 c 1
 58 774 100 794 138 842 c 0
 173 889 192 946 196 966 c 1
 281 920 l 1
 281 920 227 794 109 734 c 0
 31 694 -74 681 -100 682 c 1
 -94 685 -37 716 -5 792 c 0
 15 845 18 898 -29 898 c 0
 -55 898 -101 868 -101 868 c 2
 -103 868 -127 903 -167 901 c 0
 -190 900 -204 887 -215 871 c 0
-222 717 m 0
 -170 717 -152 797 -204 797 c 0
 -256 797 -274 717 -222 717 c 0
EndSplineSet
Substitution: 0 65534 'amni' uni0E4D
EndChar
StartChar: uni0E4B.low
Encoding: 142 63245 110
OldEncoding: 63245
Width: 0
Flags: HW
HStem: 808 98<-151 -32 107 225>
AnchorPoint: "AboveBase" 42 613 mark 0
Fore
15 1033 m 1
 133 1033 l 1
 107 906 l 1
 247 906 l 1
 225 808 l 1
 86 808 l 1
 60 682 l 1
 -58 682 l 1
 -32 808 l 1
 -172 808 l 1
 -150 906 l 1
 -11 906 l 1
 15 1033 l 1
EndSplineSet
Substitution: 0 65534 'amni' uni0E4D
EndChar
StartChar: uni0E4C.low
Encoding: 143 63246 111
OldEncoding: 63246
Width: 0
Flags: HW
HStem: 814 47<-14 -3.31168>
AnchorPoint: "AboveBase" 42 613 mark 0
Fore
60 895 m 0
 60 895 l 0
 -2 891 -12 861 -14 861 c 0
 -9 861 95 861 72 756 c 0
 49 665 -86 639 -126 705 c 1
 -164 763 -129 863 -52 910 c 0
 23 955 77 940 136 979 c 0
 169 1001 179 1052 179 1056 c 1
 274 1056 l 1
 274 1052 254 986 218 953 c 0
 182 921 141 901 60 895 c 0
-35 716 m 0
 29 716 51 814 -14 814 c 0
 -80 814 -101 716 -35 716 c 0
EndSplineSet
EndChar
StartChar: uni0E0D.descless
Encoding: 144 63247 112
OldEncoding: 63247
Width: 875
Flags: W
HStem: 0 78<417 694> 136 66<265 272> 518 81<418 453>
VStem: 127 97<76 95> 294 59<107 127> 530 121<438 456>
Fore
823 147 m 1
 823 147 l 0
 817 118 808 75 782 48 c 0
 762 26 728 0 694 0 c 2
 402 0 l 1
 418 78 l 1
 458 78 l 1
 526 399 l 2
 529 414 530 428 530 440 c 0
 530 490 503 518 432 518 c 0
 357 518 307 483 307 483 c 1
 310 481 325 471 353 448 c 0
 376 426 394 402 394 402 c 1
 391 402 359 389 322 356 c 0
 293 326 284 291 281 276 c 2
 265 202 l 1
 265 202 265 202 267 202 c 0
 277 202 353 199 353 127 c 0
 353 123 351 118 351 113 c 0
 339 25 268 -2 222 -2 c 0
 161 -2 127 31 127 89 c 0
 127 101 129 115 132 130 c 2
 162 276 l 2
 166 287 178 330 204 357 c 0
 233 386 262 397 262 397 c 1
 262 397 244 423 210 445 c 0
 181 463 152 480 147 481 c 1
 173 509 285 598 446 599 c 0
 451 599 l 0
 601 599 651 532 651 454 c 0
 651 440 650 425 647 411 c 2
 576 78 l 1
 645 78 l 2
 648 78 650 78 653 78 c 0
 664 78 671 80 684 89 c 0
 699 101 699 113 700 123 c 2
 800 595 l 1
 918 595 l 1
 823 147 l 1
267 136 m 0
 241 136 224 107 224 86 c 0
 224 69 231 57 250 57 c 0
 277 57 294 84 294 107 c 0
 294 123 287 136 267 136 c 0
EndSplineSet
EndChar
StartChar: quoteleft
Encoding: 145 8216 113
OldEncoding: 8216
Width: 295
Flags: W
Fore
279 645 m 0
 261 625 251 596 250 593 c 1
 256 595 264 596 270 596 c 0
 287 596 303 589 314 576 c 0
 322 567 326 555 326 543 c 0
 326 509 305 471 271 458 c 0
 256 452 242 451 230 451 c 0
 198 451 179 468 173 486 c 0
 170 494 170 503 170 512 c 0
 170 561 202 632 245 670 c 0
 276 699 310 717 349 723 c 1
 342 684 l 1
 326 681 305 668 279 645 c 0
EndSplineSet
EndChar
StartChar: quoteright
Encoding: 146 8217 114
OldEncoding: 8217
Width: 280
Flags: W
Fore
253 538 m 0
 273 558 282 587 284 590 c 1
 276 589 270 587 264 587 c 0
 245 587 230 595 218 607 c 0
 210 615 207 627 207 641 c 0
 207 673 228 713 262 725 c 0
 277 731 291 733 303 733 c 0
 337 733 357 716 363 697 c 0
 365 690 366 682 366 674 c 0
 366 624 333 555 287 513 c 0
 256 484 224 468 182 460 c 1
 190 500 l 1
 205 503 227 515 253 538 c 0
EndSplineSet
EndChar
StartChar: quotedblleft
Encoding: 147 8220 115
OldEncoding: 8220
Width: 487
Flags: W
VStem: 172 156<513 536> 386 155<513 538>
Fore
287 655 m 0
 287 655 l 0
 262 615 267 598 265 595 c 1
 265 595 l 0
 273 595 328 593 328 536 c 0
 328 532 l 0
 325 494 291 448 235 448 c 0
 187 448 172 478 172 513 c 0
 172 533 176 555 184 573 c 0
 221 670 279 736 366 740 c 1
 354 687 l 1
 343 687 305 685 287 655 c 0
501 655 m 0
 475 615 481 598 480 595 c 1
 480 595 l 0
 487 595 541 593 541 538 c 0
 541 536 541 533 541 532 c 0
 538 494 506 448 449 448 c 0
 402 448 386 478 386 513 c 0
 386 533 391 555 397 573 c 0
 435 670 492 736 579 740 c 1
 567 687 l 1
 558 687 520 685 501 655 c 0
EndSplineSet
EndChar
StartChar: quotedblright
Encoding: 148 8221 116
OldEncoding: 8221
Width: 493
Flags: W
VStem: 215 154<651 679> 428 156<653 677>
Fore
469 535 m 0
 469 535 l 0
 487 564 489 581 489 589 c 0
 489 592 489 593 489 595 c 1
 489 595 l 0
 481 595 428 596 428 653 c 0
 428 658 l 0
 431 696 464 742 521 742 c 0
 567 742 584 713 584 677 c 0
 584 658 578 636 570 616 c 0
 533 520 477 454 389 449 c 1
 402 503 l 1
 412 503 451 504 469 535 c 0
254 535 m 0
 273 563 274 578 274 587 c 0
 274 592 274 593 274 595 c 1
 274 595 l 0
 268 595 215 596 215 651 c 0
 215 653 215 656 215 658 c 0
 216 696 250 742 307 742 c 0
 354 742 369 713 369 679 c 0
 369 658 363 636 356 616 c 0
 320 520 264 454 175 449 c 1
 187 503 l 1
 198 503 236 504 254 535 c 0
EndSplineSet
EndChar
StartChar: bullet
Encoding: 149 8226 117
OldEncoding: 8226
Width: 531
Flags: W
Fore
374 437 m 0
 469 437 512 377 512 308 c 0
 512 212 432 100 302 100 c 0
 207 100 166 159 166 228 c 0
 166 323 245 437 374 437 c 0
EndSplineSet
EndChar
StartChar: endash
Encoding: 150 8211 118
OldEncoding: 8211
Width: 665
Flags: W
HStem: 248 97<120 661>
Fore
661 248 m 1
 100 248 l 1
 121 345 l 1
 682 345 l 1
 661 248 l 1
EndSplineSet
EndChar
StartChar: emdash
Encoding: 151 8212 119
OldEncoding: 8212
Width: 1056
Flags: W
HStem: 248 97<122 1059>
Fore
1059 248 m 1
 101 248 l 1
 123 345 l 1
 1081 345 l 1
 1068 313 1064 270 1059 248 c 1
EndSplineSet
EndChar
StartChar: uni0E31.left
Encoding: 152 63248 120
OldEncoding: 63248
Width: 0
Flags: W
HStem: 685 72<-166 -123> 872 55<-226 -213>
VStem: -346 64<796 815> -185 62<837 848>
Fore
176 788 m 1
 176 788 l 0
 175 788 104 725 -20 699 c 0
 -64 690 -110 685 -150 685 c 0
 -210 685 -259 693 -284 704 c 0
 -328 723 -346 759 -346 796 c 0
 -346 842 -317 889 -277 910 c 0
 -256 923 -233 927 -213 927 c 0
 -164 927 -123 898 -123 848 c 0
 -123 848 -123 846 -123 845 c 0
 -126 789 -166 757 -166 757 c 1
 -164 757 -159 757 -152 757 c 0
 -126 757 -66 760 -2 783 c 0
 141 834 204 914 204 914 c 1
 176 788 l 1
-187 828 m 0
 -187 831 -185 834 -185 837 c 0
 -185 861 -204 872 -224 872 c 0
 -247 872 -274 855 -281 825 c 0
 -281 822 -282 819 -282 815 c 0
 -282 792 -264 780 -244 780 c 0
 -221 780 -193 797 -187 828 c 0
EndSplineSet
EndChar
StartChar: uni0E4D.left
Encoding: 153 63249 121
OldEncoding: 63249
Width: 0
Flags: W
HStem: 696 66<-247 -231> 877 69<-210 -195>
VStem: -349 70<792 808> -162 70<832 849>
Fore
-195 946 m 0
 -195 946 l 0
 -124 946 -92 901 -92 849 c 0
 -92 779 -150 696 -247 696 c 0
 -317 696 -349 740 -349 792 c 0
 -349 863 -291 946 -195 946 c 0
-233 762 m 0
 -189 762 -162 800 -162 832 c 0
 -162 857 -176 877 -208 877 c 0
 -253 877 -279 838 -279 806 c 0
 -279 782 -265 762 -233 762 c 0
EndSplineSet
EndChar
StartChar: uni0E47.left
Encoding: 154 63250 122
OldEncoding: 63250
Width: 0
Flags: W
HStem: 690 56<-195 -176> 765 83<-309 -303> 806 55<-169 -155> 914 70<-169 -145> 926 63<-301 -279>
VStem: -469 81<797 828> -144 47<783 800>
Fore
25 1061 m 1x96
 25 1061 l 1
 25 1061 3 932 -103 917 c 0
 -120 914 -133 914 -147 914 c 0x96
 -198 914 -233 926 -287 926 c 0
 -300 926 l 0
 -346 923 -377 881 -386 840 c 0
 -388 835 -388 831 -388 828 c 0
 -388 799 -366 789 -366 789 c 1
 -365 792 -353 837 -314 846 c 0
 -310 848 -307 848 -303 848 c 0xce
 -267 848 -239 805 -239 805 c 1
 -239 805 -216 861 -155 861 c 0xa6
 -120 861 -97 837 -97 800 c 0
 -97 788 -100 774 -104 760 c 0
 -116 717 -152 691 -190 690 c 0
 -195 690 l 0
 -261 690 -271 765 -307 765 c 0
 -308 765 -308 765 -308 765 c 0
 -354 763 -356 690 -357 688 c 1
 -414 690 -461 716 -468 769 c 0
 -469 779 -469 788 -469 797 c 0
 -469 871 -426 956 -345 981 c 0
 -323 987 -302 989 -279 989 c 0xce
 -242 989 -204 984 -169 984 c 0
 -149 984 -129 986 -112 990 c 0
 -77 998 -74 1033 -64 1061 c 1
 25 1061 l 1x96
-164 806 m 0xa6
 -184 806 -198 785 -198 768 c 0
 -198 756 -192 746 -176 746 c 0
 -155 746 -144 766 -144 783 c 0
 -144 796 -150 806 -164 806 c 0xa6
EndSplineSet
EndChar
StartChar: uni0E48.left
Encoding: 155 63251 123
OldEncoding: 63251
Width: 0
Flags: W
Fore
-161 999 m 1
 -118 1202 l 1
 0 1202 l 1
 -43 999 l 1
 -161 999 l 1
EndSplineSet
EndChar
StartChar: uni0E49.left
Encoding: 156 63252 124
OldEncoding: 63252
Width: 0
Flags: W
HStem: 1056 48<-129 -110> 1183 49<-97 -87>
VStem: -196 53<1120 1136> -63 63<1151 1160>
Fore
-159 1019 m 0
 -159 1019 l 0
 -133 1045 -129 1056 -129 1056 c 1
 -153 1056 -189 1070 -195 1102 c 0
 -196 1108 -196 1114 -196 1120 c 0
 -196 1170 -155 1229 -90 1232 c 0
 -86 1232 l 0
 -32 1232 0 1205 0 1160 c 0
 0 1159 0 1156 0 1154 c 0
 -3 1097 -43 1053 -64 1041 c 1
 -34 1044 -5 1053 29 1068 c 0
 69 1085 92 1101 120 1122 c 0
 175 1165 212 1220 212 1220 c 1
 184 1087 l 1
 184 1087 118 1032 21 1002 c 0
 -41 984 -118 976 -172 976 c 0
 -189 976 -204 976 -215 978 c 1
 -215 978 -184 993 -159 1019 c 0
-110 1104 m 0
 -81 1104 -63 1130 -63 1151 c 0
 -63 1168 -74 1183 -97 1183 c 0
 -126 1183 -143 1157 -143 1136 c 0
 -143 1119 -133 1104 -110 1104 c 0
EndSplineSet
EndChar
StartChar: uni0E4A.left
Encoding: 157 63253 125
OldEncoding: 63253
Width: 0
Flags: W
HStem: 989 35<-184 -168> 1090 27<-182 -162 -182 -156> 1179 61<-137 -124>
VStem: -253 49<1050 1068> -135 38<1062 1074> 18 76<1139 1170>
Fore
-170 1153 m 0
 -170 1153 l 0
 -179 1136 -182 1120 -182 1117 c 1
 -181 1117 -166 1124 -147 1124 c 0
 -138 1124 -127 1122 -118 1117 c 0
 -103 1110 -97 1093 -97 1074 c 0
 -97 1050 -109 1022 -127 1007 c 0
 -144 993 -164 989 -181 989 c 0
 -215 989 -242 1009 -250 1039 c 0
 -251 1048 -253 1058 -253 1068 c 0
 -253 1134 -208 1226 -144 1239 c 0
 -136 1240 -130 1240 -124 1240 c 0
 -78 1240 -61 1206 -60 1206 c 0
 -58 1206 -15 1242 28 1242 c 0
 64 1242 94 1219 94 1170 c 0
 94 1156 l 0
 89 1108 57 1068 57 1068 c 1
 61 1070 100 1087 129 1128 c 0
 161 1168 176 1217 179 1235 c 1
 251 1194 l 1
 251 1194 205 1088 104 1036 c 0
 38 1004 -49 992 -72 992 c 1
 -67 993 -15 1022 8 1087 c 0
 15 1105 18 1124 18 1139 c 0
 18 1162 11 1177 -12 1177 c 0
 -34 1177 -74 1151 -74 1151 c 2
 -75 1151 -97 1179 -130 1179 c 0
 -150 1179 -161 1166 -170 1153 c 0
-176 1024 m 0
 -150 1024 -135 1045 -135 1064 c 0
 -135 1078 -144 1090 -162 1090 c 0
 -189 1090 -204 1068 -204 1050 c 0
 -204 1036 -195 1024 -176 1024 c 0
EndSplineSet
EndChar
StartChar: uni0E4B.left
Encoding: 158 63254 126
OldEncoding: 63254
Width: 0
Flags: W
HStem: 1073 69<-225 -136 -9 78>
Fore
-106 1223 m 1
 8 1223 l 1
 -9 1142 l 1
 92 1142 l 1
 78 1073 l 1
 -23 1073 l 1
 -41 996 l 1
 -155 996 l 1
 -136 1073 l 1
 -238 1073 l 1
 -224 1142 l 1
 -123 1142 l 1
 -106 1223 l 1
EndSplineSet
EndChar
StartChar: uni0E4C.left
Encoding: 159 63255 127
OldEncoding: 63255
Width: 0
Flags: W
HStem: 883 41<-100 -84> 1009 39<-67 -57.6109>
VStem: -176 56<954 964> -34 42<974 985>
Fore
-6 1076 m 0
 -6 1076 l 0
 -57 1071 -67 1048 -67 1048 c 1
 -63 1048 8 1048 8 983 c 0
 8 975 6 967 5 958 c 0
 -6 910 -55 883 -100 883 c 0
 -126 883 -152 894 -164 915 c 0
 -172 927 -176 943 -176 960 c 0
 -176 1007 -147 1062 -100 1090 c 0
 -37 1128 9 1116 60 1150 c 0
 86 1165 95 1209 95 1214 c 1
 178 1214 l 1
 178 1209 159 1151 127 1125 c 0
 98 1101 63 1082 -6 1076 c 0
-86 924 m 0
 -54 924 -34 953 -34 976 c 0
 -34 993 -44 1009 -67 1009 c 0
 -100 1009 -120 979 -120 956 c 0
 -120 940 -109 924 -86 924 c 0
EndSplineSet
EndChar
StartChar: uni0E01
Encoding: 161 3585 129
OldEncoding: 3585
Width: 674
Flags: W
HStem: 0 21G<116 233 474 592> 524 74<435 474>
VStem: 564 120<431 450>
Fore
116 0 m 1
 175 276 l 2
 178 287 190 330 216 357 c 0
 245 386 274 397 274 397 c 1
 274 397 256 423 221 445 c 0
 192 463 162 477 158 478 c 1
 182 506 303 598 463 598 c 0
 622 598 684 527 684 448 c 0
 684 435 682 423 679 411 c 2
 592 0 l 1
 474 0 l 1
 561 409 l 2
 563 420 564 431 564 440 c 0
 564 497 526 524 451 524 c 0
 371 524 319 483 319 483 c 1
 322 481 337 471 365 448 c 0
 388 426 406 402 406 402 c 1
 403 402 369 389 334 356 c 0
 303 326 294 291 291 276 c 2
 233 0 l 1
 116 0 l 1
EndSplineSet
EndChar
StartChar: uni0E02
Encoding: 162 3586 130
OldEncoding: 3586
Width: 659
Flags: W
HStem: 0 78<135 449> 342 70<213 230> 530 68<310 340>
VStem: 121 80<425 441> 274 66<453 468> 388 98<457 480>
Fore
607 133 m 1
 607 133 l 0
 604 115 592 71 556 38 c 0
 515 2 472 0 449 0 c 2
 120 0 l 1
 136 78 l 1
 207 78 l 1
 238 224 l 2
 248 277 297 308 340 356 c 0
 376 394 388 428 388 457 c 0
 388 463 386 469 386 474 c 0
 379 526 348 530 325 530 c 0
 319 530 314 530 310 530 c 1
 316 526 340 509 340 466 c 0
 340 414 293 342 213 342 c 0
 159 342 121 372 121 425 c 0
 121 434 123 445 126 455 c 0
 144 530 212 589 297 596 c 0
 310 598 322 598 334 598 c 0
 420 598 469 564 484 501 c 0
 486 494 486 487 486 480 c 0
 486 437 466 389 438 354 c 0
 388 290 365 268 357 230 c 2
 325 78 l 1
 428 78 l 2
 443 78 457 81 472 95 c 0
 484 106 489 121 492 135 c 2
 589 595 l 1
 705 595 l 1
 607 133 l 1
227 412 m 0
 228 412 228 412 230 412 c 0
 256 412 274 438 274 461 c 0
 274 477 265 490 245 490 c 0
 218 490 201 464 201 441 c 0
 201 426 208 414 227 412 c 0
EndSplineSet
EndChar
StartChar: uni0E03
Encoding: 163 3587 131
OldEncoding: 3587
Width: 669
Flags: W
HStem: 0 78<148 440> 288 63<169 184> 429 54<199 215> 458 85<319 340> 520 76<247 261>
VStem: 90 68<372 389> 225 60<399 411> 406 100<463 472>
Fore
607 120 m 1xcf
 607 120 l 0
 604 106 589 55 550 29 c 0
 513 5 475 0 432 0 c 2
 132 0 l 1
 149 78 l 1
 221 78 l 1
 251 221 l 2
 262 273 316 316 372 386 c 0
 399 418 406 445 406 463 c 0
 406 486 394 498 388 500 c 0
 386 500 385 500 385 500 c 0
 359 500 320 458 319 458 c 0xd7
 317 458 311 487 285 506 c 0
 273 515 259 520 247 520 c 0
 238 520 227 517 219 509 c 0
 205 497 201 483 201 481 c 1
 201 481 207 483 215 483 c 0
 222 483 233 481 244 477 c 0
 271 466 285 440 285 409 c 0
 285 385 276 359 259 336 c 0
 236 303 201 288 169 288 c 0
 135 288 104 307 95 339 c 0
 92 349 90 362 90 374 c 0
 90 420 112 472 132 507 c 0
 162 558 212 595 261 596 c 0
 262 596 l 0xef
 313 596 339 543 340 543 c 0
 340 543 l 0xd7
 346 543 391 596 434 596 c 0
 486 596 507 540 507 490 c 0
 507 484 506 478 506 472 c 0
 503 438 481 382 438 333 c 0
 388 277 376 256 368 215 c 2
 339 78 l 1
 426 78 l 2
 438 78 457 80 474 92 c 0
 489 104 490 123 492 132 c 2
 590 595 l 1
 707 595 l 1
 607 120 l 1xcf
224 389 m 0
 225 394 225 397 225 402 c 0
 225 417 216 429 199 429 c 0xe7
 175 429 158 403 158 380 c 0
 158 365 166 351 184 351 c 0
 204 351 218 369 224 389 c 0
EndSplineSet
EndChar
StartChar: uni0E04
Encoding: 164 3588 132
OldEncoding: 3588
Width: 702
Flags: W
HStem: 0 21G<147 267 503 619> 207 66<400 414> 348 66<428 441> 510 88<458 486>
VStem: 139 106<241 285> 458 68<317 331> 589 118<412 434>
Fore
619 0 m 1
 503 0 l 1
 582 374 l 2
 586 391 589 408 589 423 c 0
 589 472 563 510 458 510 c 0
 449 510 l 0
 333 509 279 449 259 382 c 0
 248 343 245 285 245 241 c 0
 245 201 248 170 248 169 c 1
 250 173 288 302 322 348 c 0
 351 386 380 412 441 414 c 0
 500 414 526 374 526 331 c 0
 526 285 497 231 440 213 c 0
 425 208 412 207 400 207 c 0
 368 207 348 221 348 221 c 1
 340 205 323 176 310 135 c 0
 290 83 273 31 267 0 c 1
 147 0 l 1
 152 21 l 2
 155 35 158 66 158 98 c 0
 158 113 156 130 155 144 c 0
 150 181 139 228 139 285 c 0
 139 314 143 346 152 380 c 0
 184 504 290 593 471 598 c 0
 484 598 l 0
 630 598 707 535 707 432 c 0
 707 415 705 399 700 380 c 2
 619 0 l 1
428 348 m 0
 399 348 382 323 382 302 c 0
 382 287 391 273 412 273 c 0
 440 273 458 297 458 319 c 0
 458 334 449 348 428 348 c 0
EndSplineSet
EndChar
StartChar: uni0E05
Encoding: 165 3589 133
OldEncoding: 3589
Width: 698
Flags: W
HStem: 0 21G<136 254 494 612> 184 66<382 400> 325 67<413 426> 497 101<346 369>
VStem: 129 106<242 287> 446 66<296 316> 584 121<439 458>
Fore
612 0 m 1
 494 0 l 1
 573 374 l 2
 576 391 584 417 584 441 c 0
 584 452 582 461 579 471 c 0
 572 494 553 500 543 500 c 0
 538 500 535 498 533 498 c 2
 435 452 l 1
 351 497 l 2
 346 497 l 0
 328 497 274 464 250 383 c 0
 238 345 235 288 235 242 c 0
 235 202 238 170 238 169 c 1
 239 173 276 284 302 320 c 0
 328 354 359 392 426 392 c 0
 428 392 428 392 429 392 c 0
 483 392 512 359 512 316 c 0
 512 314 512 311 512 310 c 0
 507 262 487 216 425 192 c 0
 409 185 395 184 382 184 c 0
 353 184 331 195 331 195 c 1
 320 172 310 153 300 127 c 0
 282 78 268 48 254 0 c 1
 136 0 l 1
 141 25 l 2
 144 38 149 72 149 107 c 0
 149 120 149 132 147 144 c 0
 143 181 129 228 129 285 c 0
 129 314 133 345 143 379 c 0
 193 559 346 598 369 598 c 0
 371 598 372 598 372 598 c 2
 454 541 l 1
 564 598 l 2
 564 598 566 598 567 598 c 0
 582 598 648 589 684 535 c 0
 699 509 705 483 705 458 c 0
 705 426 696 399 693 382 c 2
 612 0 l 1
415 325 m 0
 388 325 369 300 369 279 c 0
 369 264 379 250 400 250 c 0
 428 250 446 274 446 296 c 0
 446 311 437 325 415 325 c 0
EndSplineSet
EndChar
StartChar: uni0E06
Encoding: 166 3590 134
OldEncoding: 3590
Width: 767
Flags: W
HStem: -5 82<270 286> -3 133<589 591> 201 80<303 336> 288 61<179 194> 428 55<208 225> 458 85<328 351> 520 76<258 271>
VStem: 100 69<370 390> 162 83<97 115> 235 61<394 409> 412 106<472 492>
Fore
697 89 m 1x7360
 697 89 l 0
 688 46 661 11 613 0 c 0
 604 -2 596 -3 589 -3 c 0x7360
 541 -3 520 34 484 83 c 0
 446 138 429 150 426 155 c 1
 415 98 l 2
 395 11 323 -5 270 -5 c 0
 218 -5 170 25 164 78 c 0
 162 84 162 90 162 97 c 0
 162 152 193 216 242 250 c 0
 279 274 316 281 336 281 c 1
 351 351 l 2
 359 388 388 403 405 443 c 0
 411 455 412 466 412 475 c 0
 412 490 405 498 399 500 c 0
 397 500 395 500 395 500 c 0
 369 500 330 458 328 458 c 0xb4a0
 326 458 320 487 296 506 c 0
 284 515 270 520 258 520 c 0
 248 520 238 517 230 509 c 0
 216 497 212 483 212 481 c 1
 212 481 216 483 225 483 c 0
 233 483 244 481 254 477 c 0
 282 466 296 440 296 409 c 0
 296 385 287 359 270 336 c 0
 247 303 212 288 179 288 c 0
 146 288 115 307 104 339 c 0
 101 349 100 360 100 372 c 0
 100 418 121 472 143 507 c 0
 173 558 222 595 271 596 c 0
 273 596 l 0x3b60
 323 596 349 543 351 543 c 0
 351 543 l 0x3560
 357 543 400 596 445 596 c 0
 495 596 518 541 518 492 c 0
 518 486 518 478 517 472 c 0
 512 438 478 395 468 348 c 2
 449 258 l 1
 451 256 480 244 512 213 c 0
 541 182 549 172 575 143 c 0
 582 135 586 130 589 130 c 0
 590 130 592 133 592 139 c 2
 688 595 l 1
 805 595 l 1
 697 89 l 1x7360
299 107 m 0
 317 198 l 0
 317 198 311 201 303 201 c 0
 291 201 270 193 254 152 c 0
 248 136 245 124 245 113 c 0
 245 90 259 78 277 77 c 0
 281 77 282 77 284 77 c 0xb0a0
 293 77 294 81 299 107 c 0
233 388 m 0
 235 392 235 395 235 400 c 0
 235 415 225 428 208 428 c 0
 182 428 169 402 169 379 c 0x3960
 169 363 175 349 192 349 c 0
 213 349 228 368 233 388 c 0
EndSplineSet
EndChar
StartChar: uni0E07
Encoding: 167 3591 135
OldEncoding: 3591
Width: 510
Flags: W
HStem: -3 89<262 276> 527 71<398 414>
VStem: 277 72<460 481> 429 92<486 503>
Fore
451 152 m 1
 451 152 l 0
 440 103 417 54 359 20 c 0
 337 8 300 -3 262 -3 c 0
 212 -3 158 15 143 74 c 0
 130 123 138 167 120 212 c 0
 107 242 90 236 71 242 c 1
 92 345 l 1
 94 345 101 346 113 346 c 0
 138 346 178 340 198 307 c 0
 239 236 201 86 274 86 c 0
 276 86 l 0
 314 87 325 116 331 146 c 2
 382 379 l 1
 382 379 377 379 371 379 c 0
 357 379 333 380 310 395 c 0
 287 411 277 434 277 460 c 0
 277 478 281 497 290 517 c 0
 313 570 368 598 414 598 c 0
 503 598 521 546 521 501 c 0
 521 486 520 471 517 460 c 2
 451 152 l 1
429 487 m 0
 429 490 429 494 429 495 c 0
 429 512 422 527 399 527 c 0
 366 527 349 503 349 481 c 0
 349 464 360 449 382 449 c 0
 383 449 383 449 385 449 c 0
 408 449 425 468 429 487 c 0
EndSplineSet
EndChar
StartChar: uni0E08
Encoding: 168 3592 136
OldEncoding: 3592
Width: 606
Flags: W
HStem: -3 89<357 382> 198 64<228 242> 337 68<254 276> 510 88<363 395>
VStem: 139 68<273 291> 230 109<94 121> 284 81<298 316> 494 121<426 457>
Fore
566 202 m 1xfd
 566 202 l 0
 556 161 549 97 501 52 c 0
 457 11 417 -3 357 -3 c 0
 276 -3 230 37 230 90 c 0
 230 92 230 92 230 94 c 0xfd
 230 143 242 193 242 198 c 1
 233 198 l 0
 215 198 185 201 170 212 c 0
 150 225 139 248 139 273 c 0
 139 316 167 366 213 389 c 0
 233 399 256 405 276 405 c 0
 313 405 346 388 359 357 c 0
 363 345 365 331 365 316 c 0xfb
 365 271 349 215 345 175 c 0
 342 155 339 136 339 121 c 0
 339 100 346 86 376 86 c 0
 380 86 l 0
 414 86 428 101 435 139 c 2
 487 379 l 2
 490 395 494 411 494 426 c 0
 494 460 480 486 434 501 c 0
 414 507 392 510 371 510 c 0
 319 510 268 494 236 474 c 0
 192 445 175 435 175 434 c 1
 118 486 l 1
 118 486 139 533 238 572 c 0
 277 589 337 598 395 598 c 0
 452 598 507 589 543 567 c 0
 599 533 615 498 615 457 c 0
 615 435 610 412 605 388 c 2
 566 202 l 1xfd
284 299 m 0xfb
 284 302 284 305 284 307 c 0
 284 323 276 337 254 337 c 0
 225 337 207 311 207 291 c 0
 207 276 216 262 238 262 c 0
 264 262 281 281 284 299 c 0xfb
EndSplineSet
EndChar
StartChar: uni0E09
Encoding: 169 3593 137
OldEncoding: 3593
Width: 711
Flags: W
HStem: -3 21G<255 284.5 557 588> 179 68<198 207> 506 98<393 420>
VStem: 115 66<256 274> 248 89<294 304> 461 123<74 98> 530 125<420 454> 650 80<164 193>
Fore
676 44 m 0xf9
 676 44 l 0
 650 14 609 -3 567 -3 c 0
 547 -3 526 2 506 11 c 0
 471 29 461 54 461 74 c 0xfd
 461 81 463 87 464 94 c 2
 480 162 l 1
 477 159 441 129 386 61 c 0
 343 12 310 -3 259 -3 c 0
 251 -3 244 -2 235 -2 c 0
 196 2 173 26 173 58 c 0
 173 63 173 69 175 74 c 2
 198 179 l 1
 156 179 124 199 116 239 c 0
 115 245 115 250 115 256 c 0
 115 310 156 380 238 386 c 0
 242 386 245 386 248 386 c 0
 305 386 337 349 337 302 c 0
 337 293 336 285 334 276 c 2
 302 124 l 2
 302 123 302 120 302 118 c 0
 302 115 303 113 310 113 c 0
 328 115 354 149 403 198 c 0
 464 258 498 271 503 274 c 1
 527 389 l 2
 530 400 530 411 530 420 c 0
 530 477 487 504 409 506 c 0
 395 506 l 0
 244 506 198 431 195 426 c 1
 126 475 l 1
 126 478 210 602 420 604 c 0
 422 604 423 604 426 604 c 0
 566 604 655 553 655 454 c 0xfa
 655 443 655 431 651 417 c 1
 625 297 l 1
 630 297 671 294 705 265 c 0
 722 250 730 224 730 193 c 0
 730 143 708 81 676 44 c 0xf9
650 155 m 0
 650 155 l 0
 650 164 l 0
 650 218 616 219 610 219 c 0
 609 219 609 219 609 219 c 1
 590 133 l 2
 587 118 584 106 584 98 c 0
 584 90 589 86 602 86 c 0
 642 86 650 158 650 158 c 0
 650 158 l 0
 650 158 650 156 650 155 c 0
222 319 m 0
 221 319 l 0
 196 319 181 294 181 274 c 0
 181 259 189 247 207 247 c 0
 227 247 248 276 248 296 c 0
 248 308 241 319 222 319 c 0
EndSplineSet
EndChar
StartChar: uni0E0A
Encoding: 170 3594 138
OldEncoding: 3594
Width: 656
Flags: W
HStem: 3 78<120 434> 527 71<293 323>
VStem: 113 69<428 441> 256 67<461 475> 521 115<343 361>
Fore
728 561 m 1
 728 561 l 0
 728 559 696 530 636 500 c 0
 604 481 563 469 558 468 c 1
 563 466 598 451 618 418 c 0
 632 397 636 376 636 354 c 0
 636 337 635 320 630 300 c 2
 595 136 l 2
 590 118 578 72 543 41 c 0
 501 5 458 3 434 3 c 2
 104 3 l 1
 121 81 l 1
 192 81 l 1
 222 225 l 2
 235 281 279 303 326 359 c 0
 360 400 371 429 371 458 c 0
 371 463 371 466 371 471 c 0
 366 523 328 527 307 527 c 0
 300 527 296 527 293 527 c 1
 299 523 323 513 323 475 c 0
 323 474 323 471 323 469 c 0
 320 409 271 348 199 345 c 0
 198 345 198 345 196 345 c 0
 149 345 113 376 113 428 c 0
 113 437 115 446 116 457 c 0
 133 530 202 589 284 596 c 0
 296 598 307 598 317 598 c 0
 399 598 452 569 468 506 c 0
 468 500 469 494 471 487 c 1
 475 490 523 512 595 558 c 0
 684 613 723 668 725 670 c 1
 728 561 l 1
477 138 m 0
 517 325 l 0
 520 336 521 346 521 357 c 0
 521 369 518 380 510 391 c 0
 490 422 484 422 461 423 c 2
 460 425 l 1
 451 400 438 376 425 357 c 0
 374 293 351 271 342 233 c 2
 310 81 l 1
 412 81 l 2
 429 81 443 84 458 98 c 0
 469 109 474 124 477 138 c 0
208 412 m 0
 210 412 210 412 212 412 c 0
 238 412 256 438 256 461 c 0
 256 477 247 490 227 490 c 0
 199 490 182 464 182 441 c 0
 182 426 190 414 208 412 c 0
EndSplineSet
EndChar
StartChar: uni0E0B
Encoding: 171 3595 139
OldEncoding: 3595
Width: 694
Flags: W
HStem: -3 78<161 477> 290 63<187 201> 426 57<215 231> 458 85<334 357> 520 76<264 277>
VStem: 106 69<374 389> 242 60<396 409> 415 95<475 481> 563 114<349 355>
Fore
769 555 m 1xcf80
 769 555 l 0
 769 553 736 523 677 492 c 0
 645 474 604 463 599 461 c 1
 604 461 641 446 659 414 c 0
 673 392 677 371 677 349 c 0
 677 333 676 314 671 294 c 2
 636 130 l 2
 633 112 619 67 584 35 c 0
 543 -2 501 -3 477 -3 c 2
 147 -3 l 1
 162 75 l 1
 235 75 l 1
 277 273 l 2
 287 320 319 348 363 386 c 0
 405 423 415 454 415 475 c 0
 415 490 409 500 405 500 c 0
 403 500 402 500 402 500 c 0
 374 500 336 458 334 458 c 0xd780
 333 458 326 487 302 506 c 0
 290 515 276 520 264 520 c 0
 253 520 242 515 235 509 c 1
 221 497 218 483 218 481 c 1
 218 481 222 483 231 483 c 0
 239 483 250 481 261 477 c 0
 288 466 302 440 302 409 c 0
 302 385 293 359 276 336 c 0
 253 305 218 290 187 290 c 0
 152 290 121 307 110 339 c 0
 107 351 106 363 106 376 c 0
 106 422 126 472 146 507 c 0
 176 558 228 595 277 596 c 0
 279 596 l 0xef80
 330 596 356 543 357 543 c 0
 357 543 l 0xd780
 363 543 406 596 449 596 c 0
 498 596 512 549 512 503 c 0
 512 497 510 489 510 481 c 1
 515 483 564 504 638 550 c 0
 714 599 766 662 768 665 c 1
 769 555 l 1xcf80
518 132 m 0
 558 320 l 0
 561 331 563 340 563 349 c 0
 563 363 559 376 552 385 c 1
 533 414 518 420 489 420 c 1
 490 425 l 1
 478 406 463 386 440 363 c 0
 403 322 399 299 395 282 c 2
 351 75 l 1
 454 75 l 2
 471 75 486 78 500 92 c 0
 510 103 515 118 518 132 c 0
241 389 m 0
 242 392 242 397 242 400 c 0
 242 415 233 426 215 426 c 0xe780
 190 426 175 402 175 380 c 0
 175 366 182 353 199 353 c 0
 221 353 235 369 241 389 c 0
EndSplineSet
EndChar
StartChar: uni0E0C
Encoding: 172 3596 140
OldEncoding: 3596
Width: 882
Flags: W
HStem: -5 74<463 480> -2 59<225 250> 136 66<267 272> 518 81<430 457>
VStem: 132 92<76 91> 294 63<107 127> 379 72<86 103> 529 70<129 153> 535 118<442 460>
Fore
323 356 m 0xbe80
 205 357 l 0
 235 386 264 397 264 397 c 1
 264 397 245 423 212 445 c 0
 181 463 152 477 147 478 c 1
 173 506 277 596 448 599 c 0
 451 599 454 599 455 599 c 0
 604 599 653 532 653 454 c 0xbe80
 653 440 651 426 648 411 c 2
 613 244 l 1
 615 244 645 238 667 221 c 0
 685 204 704 185 710 159 c 1
 802 595 l 1
 920 595 l 1
 809 75 l 2
 806 58 796 28 771 15 c 0
 754 6 736 0 719 0 c 0
 699 0 682 8 676 25 c 1
 667 58 667 83 645 126 c 0
 628 166 601 173 598 175 c 1
 598 173 599 166 599 153 c 0xbf
 599 136 598 112 587 84 c 0
 563 26 520 -5 463 -5 c 0
 415 -5 379 31 379 86 c 0
 379 106 383 130 395 156 c 0
 428 230 494 236 494 236 c 1
 530 409 l 2
 533 423 535 435 535 446 c 0
 535 497 504 518 432 518 c 0
 359 518 308 483 308 483 c 1
 311 481 326 471 354 448 c 0
 377 426 395 402 395 402 c 1
 392 402 360 389 323 356 c 0xbe80
501 166 m 0
 501 166 l 0
 472 166 451 129 451 101 c 0
 451 83 458 69 478 69 c 0
 480 69 480 69 481 69 c 0
 510 71 529 106 529 133 c 0xbf
 529 150 521 166 503 166 c 0
 501 166 l 0
208 357 m 0
 326 356 l 0
 297 326 287 291 284 276 c 2
 268 202 l 1
 268 202 268 202 270 202 c 0
 282 202 357 199 357 127 c 0
 357 123 356 118 356 113 c 0
 343 25 273 -2 225 -2 c 0x7e
 166 -2 132 31 132 89 c 0
 132 101 133 115 136 130 c 2
 167 276 l 2
 170 287 182 330 208 357 c 0
250 57 m 0
 277 57 294 84 294 107 c 0
 294 123 287 136 267 136 c 0
 241 136 224 109 224 86 c 0
 224 71 231 57 250 57 c 0
EndSplineSet
EndChar
StartChar: uni0E0D
Encoding: 173 3597 141
OldEncoding: 3597
Width: 882
Flags: W
HStem: -288 63<495 500> -124 57<445 453> -2 59<225 250> 0 78<422 699> 136 66<267 272> 518 81<419 459>
VStem: 132 92<76 91> 294 63<107 127> 336 63<-185 -169> 472 55<-150 -136> 538 118<443 456>
Fore
828 147 m 1xdf60
 828 147 l 0
 822 118 812 75 786 48 c 0
 766 26 733 0 699 0 c 2
 406 0 l 1
 423 78 l 1
 463 78 l 1
 533 409 l 2
 536 423 538 435 538 446 c 0
 538 497 507 518 435 518 c 0
 362 518 311 483 311 483 c 1
 314 481 330 471 357 448 c 0xdf60
 380 426 399 402 399 402 c 1xdee0
 395 402 362 389 326 356 c 0
 297 326 287 291 284 276 c 2
 268 202 l 1
 268 202 268 202 270 202 c 0
 282 202 357 199 357 127 c 0
 357 123 356 118 356 113 c 0
 343 25 273 -2 225 -2 c 0xef60
 166 -2 132 31 132 89 c 0
 132 101 133 115 136 130 c 2
 167 276 l 2
 170 287 182 330 208 357 c 0
 238 386 267 397 267 397 c 1
 267 397 248 423 215 445 c 0
 184 463 155 477 150 478 c 1
 176 506 281 599 449 599 c 0
 604 599 656 532 656 454 c 0
 656 440 655 425 651 411 c 2
 581 78 l 1
 650 78 l 2
 653 78 655 78 658 78 c 0
 668 78 676 80 688 89 c 0
 704 101 704 113 705 123 c 2
 805 595 l 1
 923 595 l 1
 828 147 l 1xdf60
774 -72 m 1
 774 -72 l 1
 774 -72 759 -156 694 -215 c 0
 645 -261 581 -287 495 -288 c 0
 494 -288 490 -288 489 -288 c 0
 409 -288 336 -261 336 -185 c 0
 336 -182 336 -178 336 -173 c 0xcee0
 342 -126 377 -69 452 -67 c 0
 457 -67 l 0
 504 -67 527 -98 527 -136 c 0
 527 -149 524 -164 518 -178 c 0
 503 -216 472 -224 471 -224 c 0
 472 -224 481 -225 500 -225 c 0
 509 -225 520 -225 532 -224 c 0
 573 -218 610 -195 636 -161 c 0
 661 -126 668 -74 668 -74 c 1
 774 -72 l 1
250 57 m 0xef60
 250 57 l 0
 277 57 294 84 294 107 c 0
 294 123 287 136 267 136 c 0
 241 136 224 109 224 86 c 0
 224 71 231 57 250 57 c 0xef60
400 -159 m 0
 399 -162 399 -166 399 -169 c 0xcee0
 399 -182 408 -195 428 -195 c 0
 455 -195 472 -170 472 -150 c 0
 472 -136 463 -124 445 -124 c 0
 420 -124 405 -141 400 -159 c 0
EndSplineSet
Substitution: 0 65534 'nds0' uni0E0D.descless
Substitution: 0 65534 'ndsc' uni0E0D.descless
EndChar
StartChar: uni0E0E
Encoding: 174 3598 142
OldEncoding: 3598
Width: 680
Flags: HW
HStem: -316 126<354 382> -210 175<262 272> -3 64<147 165> 520 81<455 489>
VStem: 207 63<-210 -159>
AnchorPoint: "BelowBase" 527 -309 basechar 0
Fore
566 -133 m 1xb8
 566 -133 l 0
 564 -136 530 -192 472 -239 c 0
 414 -285 356 -316 354 -316 c 1xb8
 353 -311 333 -281 311 -253 c 0
 296 -235 271 -210 270 -210 c 1
 270 -212 227 -290 147 -308 c 0
 17 -336 -15 -230 25 -159 c 0
 92 -34 238 -90 239 -90 c 1
 239 -90 245 -78 251 -64 c 0
 256 -48 262 -35 262 -35 c 1
 348 -35 l 1x78
 348 -37 339 -63 333 -81 c 0
 322 -110 311 -124 311 -124 c 1
 311 -124 337 -141 348 -153 c 0
 366 -173 379 -185 382 -190 c 1
 385 -190 391 -184 415 -169 c 0
 434 -155 448 -133 448 -133 c 1
 563 409 l 2
 578 486 556 520 469 520 c 0
 388 521 337 483 337 483 c 1
 340 481 357 471 383 448 c 0
 406 426 425 402 425 402 c 1
 422 402 389 389 353 356 c 0
 323 326 314 291 311 276 c 2
 277 112 l 2
 264 48 219 -3 149 -3 c 0
 77 -3 40 51 72 124 c 0
 106 202 176 198 176 198 c 1
 193 276 l 2
 196 287 208 330 236 357 c 0
 265 386 294 397 294 397 c 1
 294 397 274 423 241 445 c 0
 212 463 181 477 176 478 c 1
 202 506 314 601 483 601 c 0
 664 601 700 506 681 411 c 2
 566 -133 l 1xb8
207 -159 m 0
 207 -159 l 0
 205 -155 149 -129 109 -167 c 0
 74 -201 86 -239 127 -238 c 0
 182 -236 207 -162 207 -159 c 0
172 135 m 0
 129 135 112 61 156 61 c 0
 199 61 215 135 172 135 c 0
EndSplineSet
EndChar
StartChar: uni0E0F
Encoding: 175 3599 143
OldEncoding: 3599
Width: 689
Flags: HW
HStem: -311 133<386 411> -3 61<155 173> 521 78<468 501>
AnchorPoint: "BelowBase" 536 -309 basechar 0
Fore
573 -133 m 1
 573 -133 l 1
 573 -133 550 -182 501 -231 c 0
 455 -277 389 -311 386 -311 c 1
 326 -193 l 1
 231 -307 l 1
 185 -219 l 1
 184 -224 146 -293 86 -303 c 0
 5 -317 -37 -235 8 -147 c 0
 63 -34 161 -86 162 -86 c 1
 173 -35 l 1
 254 -35 l 1
 254 -37 251 -58 245 -80 c 0
 239 -97 231 -124 231 -124 c 1
 254 -175 l 1
 349 -66 l 1
 411 -178 l 1
 412 -178 423 -172 437 -159 c 0
 449 -147 455 -133 455 -133 c 1
 570 409 l 2
 586 486 564 521 477 521 c 0
 395 523 345 483 345 483 c 1
 348 481 365 471 391 448 c 0
 414 426 432 402 432 402 c 1
 429 402 397 389 360 356 c 0
 331 326 322 291 319 276 c 2
 285 112 l 2
 271 48 225 -3 156 -3 c 0
 84 -3 52 49 81 124 c 0
 112 199 184 198 184 198 c 1
 201 276 l 2
 204 287 216 330 244 357 c 0
 271 386 302 397 302 397 c 1
 302 397 282 423 248 445 c 0
 219 463 189 477 184 478 c 1
 210 506 331 599 490 599 c 0
 671 599 708 507 688 412 c 2
 573 -133 l 1
132 -162 m 0
 132 -162 l 0
 130 -158 118 -126 81 -152 c 0
 51 -173 46 -238 84 -233 c 0
 123 -228 132 -164 132 -162 c 0
179 132 m 0
 135 132 120 58 164 58 c 0
 207 58 222 132 179 132 c 0
EndSplineSet
EndChar
StartChar: uni0E10
Encoding: 176 3600 144
OldEncoding: 3600
Width: 608
Flags: W
HStem: -349 72<3 15> -343 73<311 324> -185 64<34 41> -110 56<398 408> -5 74<337 362> 167 66<196 212> 305 69<227 247> 495 74<569 595> 532 70<361 400>
VStem: -72 64<-262 -247> 113 68<244 261> 210 110<87 110> 256 89<269 284> 426 64<-143 -127> 468 116<310 325>
Fore
684 532 m 1x3ef2
 684 532 l 0x3ef2
 681 530 642 495 575 495 c 0
 570 495 l 0x3f72
 490 497 452 532 379 532 c 0
 374 532 368 532 362 532 c 0
 302 527 281 490 279 490 c 0
 284 490 354 490 441 461 c 0
 530 431 569 402 581 353 c 0
 584 342 584 333 584 325 c 0
 584 307 579 291 575 273 c 1
 535 133 l 1
 521 80 492 37 434 12 c 0
 406 0 371 -5 337 -5 c 0
 299 -5 264 2 247 15 c 0
 221 35 210 51 210 87 c 0x3ef2
 210 94 212 101 212 110 c 1
 219 170 l 1
 212 169 204 167 196 167 c 0
 152 167 113 195 113 244 c 0
 113 251 113 261 116 271 c 0
 132 331 184 374 247 374 c 0
 251 374 258 372 262 372 c 0
 317 368 345 337 345 282 c 0x3ee8
 345 271 343 259 342 247 c 2
 322 115 l 2
 320 110 320 106 320 101 c 0
 320 83 330 69 360 69 c 0
 394 69 409 86 417 112 c 1
 463 279 l 1
 466 291 468 300 468 310 c 0
 468 322 464 333 452 349 c 0
 434 380 368 408 287 422 c 0
 207 437 143 445 141 445 c 1
 141 448 156 507 238 561 c 0
 285 593 337 602 382 602 c 0x3ef2
 408 602 429 599 446 596 c 0
 500 587 538 569 584 569 c 0
 589 569 592 569 595 569 c 0x3f72
 642 570 662 598 662 598 c 1
 684 532 l 1x3ef2
475 -213 m 1
 475 -213 l 0
 474 -227 458 -276 429 -302 c 0
 397 -331 360 -343 322 -343 c 0
 314 -343 308 -342 300 -342 c 0
 238 -337 213 -284 213 -284 c 1
 144 -343 l 1x7e64
 113 -271 l 1
 113 -271 64 -349 3 -349 c 0xbe64
 -48 -349 -72 -310 -72 -262 c 0
 -72 -248 -69 -233 -64 -218 c 0
 -49 -170 -12 -127 37 -121 c 0
 41 -121 46 -120 51 -120 c 0
 90 -120 113 -141 113 -141 c 1
 115 -139 124 -127 133 -104 c 0
 141 -77 146 -61 147 -60 c 1
 225 -60 l 1
 224 -61 215 -98 199 -133 c 0
 182 -172 166 -192 166 -193 c 1
 184 -238 l 1
 236 -196 l 1
 236 -196 l 0
 236 -202 250 -228 270 -247 c 0
 282 -259 297 -270 319 -270 c 0
 323 -270 l 0
 363 -265 368 -236 368 -236 c 1
 363 -236 294 -231 294 -169 c 0
 294 -167 l 0
 297 -110 342 -54 408 -54 c 0
 409 -54 409 -54 411 -54 c 0
 474 -54 490 -87 490 -127 c 0x7e64
 490 -143 487 -159 484 -176 c 2
 475 -213 l 1
212 233 m 0
 212 233 l 0
 239 233 256 258 256 277 c 0x3e68
 256 293 247 305 227 305 c 0
 199 305 181 281 181 261 c 0
 181 245 190 233 212 233 c 0
72 -213 m 0
 72 -213 l 1
 72 -213 55 -185 34 -185 c 0
 25 -185 15 -190 6 -205 c 0
 -3 -219 -8 -235 -8 -247 c 0
 -8 -264 0 -277 15 -277 c 0xbe60
 17 -277 20 -277 23 -276 c 0
 55 -268 72 -215 72 -213 c 0
400 -110 m 0
 374 -110 357 -133 357 -152 c 0
 357 -166 365 -178 385 -178 c 0
 411 -178 426 -155 426 -136 c 0x3e64
 426 -123 418 -110 400 -110 c 0
EndSplineSet
Substitution: 0 65534 'nds0' uni0E10.descless
Substitution: 0 65534 'ndsc' uni0E10.descless
EndChar
StartChar: uni0E11
Encoding: 177 3601 145
OldEncoding: 3601
Width: 832
Flags: W
HStem: 0 21G<271 391> 270 60<184 198> 406 57<213 228> 451 89<320 346> 512 84<261 277>
VStem: 103 69<351 368> 239 60<379 394> 415 102<481 512>
Fore
746 0 m 1xcf
 628 2 l 0
 651 109 708 377 716 409 c 0
 719 425 720 435 720 443 c 0
 720 455 716 460 700 466 c 0
 699 468 696 468 693 468 c 0
 650 468 570 348 498 231 c 0
 440 136 392 6 391 0 c 1
 271 0 l 1
 339 317 l 2
 343 339 351 368 377 405 c 0
 405 443 415 468 415 481 c 0
 415 494 408 500 397 500 c 0
 397 500 397 500 395 500 c 0
 371 500 322 451 320 451 c 0xd7
 319 451 320 474 293 498 c 0
 284 507 273 512 261 512 c 0
 250 512 239 507 230 500 c 0
 213 483 210 463 210 461 c 1
 210 461 218 463 228 463 c 0
 238 463 248 463 259 458 c 0
 287 448 299 423 299 394 c 0
 299 369 290 342 273 316 c 0
 251 285 216 270 184 270 c 0
 150 270 118 287 107 320 c 0
 104 331 103 342 103 354 c 0
 103 405 124 466 149 504 c 0
 181 555 228 596 277 596 c 0xef
 330 596 345 540 346 540 c 0
 346 540 l 0xd7
 353 540 392 595 440 596 c 0
 441 596 l 0
 487 596 517 558 517 512 c 0
 517 498 515 484 509 471 c 0
 486 412 474 409 466 372 c 2
 448 287 l 2
 449 294 507 399 564 469 c 0
 630 550 693 598 753 598 c 0
 760 598 769 596 777 595 c 0
 837 582 849 533 849 498 c 0
 849 486 848 475 846 468 c 2
 746 0 l 1xcf
238 368 m 0
 239 371 239 376 239 379 c 0
 239 394 230 406 213 406 c 0xe7
 189 406 172 380 172 359 c 0
 172 343 179 330 198 330 c 0
 218 330 233 346 238 368 c 0
EndSplineSet
EndChar
StartChar: uni0E12
Encoding: 178 3602 146
OldEncoding: 3602
Width: 924
Flags: W
HStem: -11 77<527 543> 176 78<651 662> 342 66<393 408> 504 94<538 555>
VStem: 130 109<260 305> 141 136<0 97> 285 66<277 296> 420 66<316 336> 438 75<80 96> 581 119<431 456> 587 74<115 134>
Fore
854 104 m 1xfa40
 854 104 l 0
 851 84 846 44 823 18 c 0
 809 5 794 0 777 0 c 2
 727 0 l 1
 727 0 727 9 727 23 c 0
 727 48 725 89 710 123 c 0
 687 175 653 176 651 176 c 1
 653 172 661 155 661 130 c 0xf220
 661 115 658 97 647 75 c 0
 627 31 590 -11 527 -11 c 0
 474 -11 438 21 438 80 c 0
 438 94 440 107 445 124 c 0
 468 213 538 230 540 230 c 1
 573 389 l 2
 578 406 581 425 581 443 c 0
 581 452 579 463 576 472 c 0
 569 500 547 504 538 504 c 0
 535 504 533 504 533 504 c 2
 432 455 l 1
 359 503 l 1
 359 503 302 498 264 409 c 0
 245 366 239 320 239 281 c 0xfac0
 239 264 239 247 242 231 c 0
 250 185 251 152 251 132 c 0
 251 118 251 112 251 112 c 1
 264 130 264 130 279 152 c 0
 303 185 325 215 325 215 c 1
 325 215 285 222 285 277 c 0
 285 287 287 297 290 311 c 0
 303 366 354 408 408 408 c 0
 420 408 431 406 443 402 c 0
 472 389 486 365 486 336 c 0
 486 302 469 262 440 224 c 0
 405 178 403 170 348 98 c 0
 319 61 277 2 277 0 c 1
 133 0 l 1
 135 5 141 35 141 97 c 0
 141 103 141 110 141 116 c 0xf7
 139 181 130 236 130 290 c 0
 130 336 136 382 159 432 c 0
 222 576 343 598 356 598 c 0
 357 598 357 598 357 598 c 2
 451 547 l 1
 552 598 l 2
 552 598 553 598 555 598 c 0
 570 598 627 592 662 550 c 0
 688 523 700 492 700 454 c 0
 700 438 699 423 694 405 c 2
 662 254 l 1
 668 254 694 251 717 238 c 0
 746 221 756 198 757 195 c 1
 842 595 l 1
 958 595 l 1
 854 104 l 1xfa40
418 303 m 0
 418 303 l 0
 420 308 420 311 420 316 c 0xf3
 420 333 411 342 394 342 c 0
 368 342 351 317 351 296 c 0
 351 279 360 265 382 265 c 0
 400 265 414 279 418 303 c 0
586 110 m 0
 587 116 587 123 587 127 c 0
 587 150 576 162 561 162 c 0
 544 162 524 146 517 112 c 0
 515 106 513 100 513 94 c 0xf2a0
 513 77 523 66 543 66 c 0
 564 66 581 83 586 110 c 0
EndSplineSet
EndChar
StartChar: uni0E13
Encoding: 179 3603 147
OldEncoding: 3603
Width: 958
Flags: W
HStem: -2 62<224 247> 139 63<264 269> 520 78<416 450>
VStem: 129 92<78.8603 99> 291 63<110 129> 533 120<441 459> 697 118<74 97> 900 78<166 192>
Fore
975 225 m 0
 975 225 l 0
 978 215 978 204 978 192 c 0
 978 113 927 9 826 -5 c 0
 814 -6 803 -6 794 -6 c 0
 728 -6 697 25 697 74 c 0
 697 83 699 94 702 106 c 2
 716 175 l 1
 716 175 677 158 632 92 c 0
 587 31 570 0 569 0 c 2
 443 0 l 1
 529 403 l 2
 532 418 533 431 533 443 c 0
 533 494 504 520 432 520 c 0
 359 520 308 483 308 483 c 1
 311 481 326 471 354 448 c 0
 377 426 397 397 397 397 c 1
 392 397 356 395 323 363 c 0
 296 333 285 291 282 276 c 2
 267 202 l 1
 267 202 l 0
 274 202 354 201 354 129 c 0
 354 124 353 120 353 113 c 0
 342 26 270 -2 224 -2 c 0
 162 -2 129 31 129 89 c 0
 129 101 130 115 133 130 c 2
 164 276 l 2
 167 287 179 330 205 357 c 0
 235 386 264 397 264 397 c 1
 264 397 245 423 212 445 c 0
 181 463 152 477 147 478 c 1
 173 506 279 598 443 598 c 0
 448 598 l 0
 601 596 653 532 653 454 c 0
 653 440 651 425 648 411 c 2
 598 172 l 1
 618 199 641 219 667 239 c 1
 697 265 736 284 737 287 c 2
 802 595 l 1
 920 595 l 1
 860 311 l 2
 860 311 l 0
 860 305 953 317 975 225 c 0
883 98 m 0
 883 98 l 0
 894 120 900 144 900 166 c 0
 900 185 895 202 884 215 c 0
 868 228 855 230 848 230 c 0
 843 230 l 1
 817 109 l 2
 815 104 815 101 815 97 c 0
 815 80 826 71 840 71 c 0
 854 71 872 81 883 98 c 0
264 139 m 0
 238 139 221 110 221 89 c 0
 221 72 228 60 247 60 c 0
 274 60 291 87 291 110 c 0
 291 126 284 139 264 139 c 0
EndSplineSet
EndChar
StartChar: uni0E14
Encoding: 180 3604 148
OldEncoding: 3604
Width: 702
Flags: W
HStem: 0 21G<144 270 498 618> 362 67<411 428> 512 93<441 474>
VStem: 133 114<300 324> 150 108<113 189> 294 68<302 313> 443 74<331 351> 584 121<413 437>
Fore
618 0 m 1xf7
 498 0 l 1
 579 383 l 2
 582 397 584 409 584 422 c 0
 584 480 547 512 454 512 c 0
 449 512 l 0
 333 512 277 451 258 385 c 0xef
 250 357 247 337 247 320 c 0xf7
 247 294 253 273 256 228 c 0
 258 215 258 201 258 189 c 0
 258 150 254 123 254 121 c 1
 256 123 284 155 302 175 c 0
 320 193 345 222 346 225 c 1
 345 225 294 245 294 302 c 0
 294 319 299 339 310 362 c 0
 331 403 380 429 428 429 c 0
 431 429 435 429 438 429 c 0
 481 425 517 403 517 351 c 0
 517 342 515 333 513 323 c 0
 497 241 451 204 369 113 c 0
 303 40 270 2 270 0 c 2
 144 0 l 1
 144 0 150 54 150 113 c 0xef
 150 129 150 144 149 159 c 0
 144 215 133 256 133 300 c 0
 133 334 139 369 156 414 c 0
 201 526 310 605 472 605 c 0
 622 605 705 541 705 437 c 0
 705 422 704 406 700 389 c 2
 618 0 l 1xf7
363 322 m 0
 362 319 362 314 362 311 c 0
 362 296 371 282 392 282 c 0
 423 282 443 310 443 331 c 0
 443 348 434 362 411 362 c 0
 385 362 366 342 363 322 c 0
EndSplineSet
EndChar
StartChar: uni0E15
Encoding: 181 3605 149
OldEncoding: 3605
Width: 717
Flags: W
HStem: 0 21G<152 302 518 635> 363 63<415 429> 506 93<563 582>
VStem: 136 111<279 320> 297 69<300 313> 448 69<323 346> 610 117<441 458>
Fore
635 0 m 1
 518 0 l 1
 599 385 l 2
 604 405 610 423 610 443 c 0
 610 451 609 460 605 468 c 0
 596 498 569 506 563 506 c 0
 561 506 l 2
 452 457 l 1
 366 506 l 1
 366 506 311 497 271 412 c 0
 253 371 247 336 247 300 c 0
 247 277 248 254 254 230 c 0
 270 155 273 98 273 98 c 1
 288 124 293 138 314 164 c 0
 339 195 353 219 353 219 c 1
 353 219 297 238 297 300 c 0
 297 308 299 317 300 326 c 0
 314 383 368 426 429 426 c 0
 440 426 452 425 464 422 c 0
 501 411 517 380 517 346 c 0
 517 311 500 268 475 238 c 0
 432 179 432 184 380 113 c 0
 348 69 331 48 302 0 c 1
 152 0 l 1
 153 3 161 37 161 81 c 0
 161 92 161 104 159 116 c 0
 155 189 136 239 136 297 c 0
 136 336 144 379 170 432 c 0
 239 576 368 599 380 599 c 0
 382 599 382 599 382 599 c 2
 472 553 l 1
 582 599 l 2
 586 599 647 596 691 550 c 0
 716 526 727 495 727 458 c 0
 727 441 725 423 720 405 c 2
 635 0 l 1
448 323 m 0
 448 326 449 330 449 333 c 0
 449 354 434 363 417 363 c 0
 395 363 372 349 366 320 c 0
 366 317 366 314 366 313 c 0
 366 291 382 281 399 281 c 0
 418 281 441 294 448 323 c 0
EndSplineSet
EndChar
StartChar: uni0E16
Encoding: 182 3606 150
OldEncoding: 3606
Width: 663
Flags: W
HStem: -3 66<230 250> 141 69<267 276> 520 81<433 466>
VStem: 130 89<88 94> 299 64<110 130> 556 118<428 450>
Fore
582 0 m 1
 466 0 l 1
 553 409 l 2
 555 420 556 429 556 438 c 0
 556 495 517 520 440 520 c 0
 380 520 326 494 308 478 c 1
 311 477 328 471 356 448 c 0
 379 426 397 402 397 402 c 1
 394 402 360 389 325 356 c 0
 296 326 285 291 282 276 c 2
 268 210 l 1
 268 210 271 210 274 210 c 0
 296 210 363 204 363 130 c 0
 363 123 362 113 360 104 c 0
 346 28 284 -3 230 -3 c 0
 227 -3 225 -3 222 -3 c 0
 158 0 130 35 130 90 c 0
 130 106 133 121 136 139 c 2
 166 276 l 2
 169 287 181 330 207 357 c 0
 236 386 265 397 265 397 c 1
 265 397 247 423 213 445 c 0
 182 463 153 477 149 478 c 1
 175 506 287 601 454 601 c 0
 613 601 674 529 674 448 c 0
 674 435 673 423 670 411 c 2
 582 0 l 1
267 141 m 0
 238 141 219 115 219 92 c 0
 219 77 228 63 250 63 c 0
 281 63 299 89 299 110 c 0
 299 127 288 141 267 141 c 0
EndSplineSet
EndChar
StartChar: uni0E17
Encoding: 183 3607 151
OldEncoding: 3607
Width: 721
Flags: W
HStem: 0 21G<159 277 518 635> 377 72<237 244> 527 69<259 273>
VStem: 135 77<460 481> 291 88<486 505> 613 123<463 495>
Fore
635 0 m 1
 518 0 l 1
 609 423 l 2
 612 435 613 451 613 463 c 0
 613 484 607 503 586 503 c 0
 521 503 446 379 388 267 c 0
 310 113 282 18 277 0 c 1
 159 0 l 1
 239 377 l 1
 239 377 235 377 230 377 c 0
 216 377 192 379 169 394 c 0
 146 411 135 434 135 460 c 0
 135 477 139 495 147 515 c 0
 172 569 227 596 273 596 c 0
 360 596 379 546 379 501 c 0
 379 486 377 471 374 458 c 2
 354 368 l 1
 348 331 l 1
 359 359 377 417 448 500 c 0
 517 578 563 598 621 598 c 0
 635 598 l 0
 710 595 736 549 736 495 c 0
 736 481 734 469 731 455 c 2
 635 0 l 1
291 487 m 0
 291 490 291 494 291 495 c 0
 291 512 284 527 261 527 c 0
 228 527 212 503 212 481 c 0
 212 464 222 449 244 449 c 0
 245 449 245 449 247 449 c 0
 270 449 287 468 291 487 c 0
EndSplineSet
EndChar
StartChar: uni0E18
Encoding: 184 3608 152
OldEncoding: 3608
Width: 646
Flags: W
HStem: 0 78<94 457> 480 79<589 601> 480 118<402 415 409 601>
VStem: 503 119<305 319>
Fore
277 399 m 1xd0
 277 399 l 0
 219 406 167 426 164 426 c 1
 166 434 225 593 402 598 c 0
 405 598 406 598 409 598 c 0xb0
 481 598 526 559 589 559 c 0xd0
 598 559 607 561 616 563 c 0
 665 570 687 596 690 598 c 1xb0
 708 523 l 1
 708 523 671 486 621 481 c 0
 613 481 607 480 601 480 c 0
 517 480 481 520 405 520 c 0
 400 520 394 520 389 520 c 0
 328 517 305 478 305 477 c 1
 308 477 399 461 452 445 c 0
 513 426 566 405 599 371 c 1
 616 353 622 334 622 319 c 0
 622 307 619 294 616 282 c 2
 584 130 l 2
 576 95 567 67 543 38 c 0
 523 15 489 0 457 0 c 2
 78 0 l 1
 95 78 l 1
 208 78 l 1
 277 399 l 1xd0
389 377 m 1
 326 78 l 1
 391 78 l 2
 408 78 425 80 438 89 c 0
 457 101 464 123 469 143 c 2
 495 265 l 2
 498 281 503 294 503 307 c 0
 503 322 495 336 469 348 c 0
 443 360 418 369 389 377 c 1
EndSplineSet
EndChar
StartChar: uni0E19
Encoding: 185 3609 153
OldEncoding: 3609
Width: 741
Flags: W
HStem: -5 83<581 619> 254 91<641 655> 377 72<234 239> 527 69<254 270>
VStem: 132 75<460 481> 287 89<486 503> 486 115<89 108> 682 74<195 218>
Fore
713 75 m 0
 713 75 l 0
 681 23 628 -5 581 -5 c 0
 556 -5 532 3 513 20 c 0
 494 35 486 60 486 89 c 0
 486 101 487 115 490 129 c 2
 513 236 l 1
 510 235 469 225 395 152 c 0
 333 90 274 11 273 0 c 1
 155 0 l 1
 236 377 l 1
 236 377 231 377 227 377 c 0
 213 377 189 379 166 394 c 0
 143 411 132 434 132 460 c 0
 132 477 136 495 144 515 c 0
 169 569 224 596 270 596 c 0
 357 596 376 546 376 501 c 0
 376 486 374 471 371 458 c 2
 313 190 l 1
 313 190 346 222 418 274 c 0
 471 311 532 339 535 339 c 1
 589 595 l 1
 705 595 l 1
 655 345 l 1
 658 345 714 331 740 287 c 0
 751 268 756 244 756 218 c 0
 756 173 742 123 713 75 c 0
682 204 m 0
 682 204 l 0
 682 227 668 254 641 254 c 0
 639 254 636 254 635 254 c 1
 602 109 l 1
 601 106 601 103 601 100 c 0
 601 86 609 78 619 78 c 0
 630 78 642 84 653 101 c 0
 676 132 682 169 682 195 c 0
 682 204 l 0
287 487 m 0
 287 490 287 494 287 495 c 0
 287 512 279 527 256 527 c 0
 224 527 207 503 207 481 c 0
 207 464 218 449 239 449 c 0
 241 449 241 449 242 449 c 0
 265 449 282 468 287 487 c 0
EndSplineSet
EndChar
StartChar: uni0E1A
Encoding: 186 3610 154
OldEncoding: 3610
Width: 718
Flags: W
HStem: 0 81<115 530> 377 71<243 253> 526 70<269 285>
VStem: 147 75<460 480> 300 91<486 502>
Fore
653 103 m 1
 653 103 l 0
 648 81 635 46 609 26 c 0
 581 8 555 0 530 0 c 2
 100 0 l 1
 116 81 l 1
 189 81 l 1
 251 377 l 1
 251 377 247 377 241 377 c 0
 227 377 202 379 181 394 c 0
 158 411 147 434 147 460 c 0
 147 477 152 495 159 515 c 0
 182 569 239 596 285 596 c 0
 372 596 391 546 391 500 c 0
 391 484 389 471 386 458 c 2
 305 81 l 1
 478 81 l 2
 494 81 510 81 524 94 c 0
 541 110 543 129 546 146 c 2
 641 595 l 1
 757 595 l 1
 653 103 l 1
300 486 m 0
 300 489 302 492 302 495 c 0
 302 512 291 526 270 526 c 0
 239 526 222 501 222 480 c 0
 222 463 231 448 253 448 c 0
 254 448 254 448 256 448 c 0
 281 448 297 466 300 486 c 0
EndSplineSet
EndChar
StartChar: uni0E1B
Encoding: 187 3611 155
OldEncoding: 3611
Width: 718
Flags: HW
HStem: 0 81<115 530> 377 72<243 253> 527 69<269 285>
AnchorPoint: "AboveBase" 596 613 basechar 0
Fore
653 103 m 1
 653 103 l 0
 648 81 635 46 609 26 c 0
 581 8 555 0 530 0 c 2
 100 0 l 1
 116 81 l 1
 189 81 l 1
 251 377 l 1
 250 377 212 372 181 394 c 0
 144 420 138 464 159 515 c 0
 182 569 239 596 285 596 c 0
 403 596 395 503 386 458 c 2
 305 81 l 1
 478 81 l 2
 494 81 510 81 524 94 c 0
 541 110 543 129 546 146 c 2
 704 884 l 1
 820 884 l 1
 653 103 l 1
302 487 m 0
 305 507 296 527 270 527 c 0
 215 527 204 449 253 449 c 0
 279 448 297 468 302 487 c 0
EndSplineSet
EndChar
StartChar: uni0E1C
Encoding: 188 3612 156
OldEncoding: 3612
Width: 674
Flags: W
HStem: 0 21G<92 212 471 589> 377 72<300 319> 527 69<331 351>
VStem: 366 72<497 515>
Fore
589 0 m 1
 471 0 l 0
 468 25 457 74 438 120 c 0
 414 173 386 207 385 210 c 1
 351 179 337 170 296 120 c 0
 261 80 224 25 212 0 c 1
 92 0 l 1
 190 458 l 2
 199 503 231 596 351 596 c 0
 395 596 438 570 438 518 c 0
 438 517 438 517 438 515 c 0
 438 464 414 420 368 394 c 0
 340 379 314 377 300 377 c 0
 294 377 290 377 290 377 c 1
 247 172 l 2
 247 173 290 221 323 253 c 0
 363 291 379 300 409 323 c 1
 412 322 441 290 468 253 c 0
 489 221 507 173 507 172 c 2
 596 595 l 1
 714 595 l 1
 589 0 l 1
336 527 m 0
 305 527 287 501 287 480 c 0
 287 463 297 449 319 449 c 0
 348 449 366 475 366 498 c 0
 366 513 357 527 336 527 c 0
EndSplineSet
EndChar
StartChar: uni0E1D
Encoding: 189 3613 157
OldEncoding: 3613
Width: 674
Flags: HW
HStem: 0 21G<92 212 471 589> 377 74<290 322> 529 67<331 351>
AnchorPoint: "AboveBase" 551 613 basechar 0
Fore
589 0 m 1
 471 0 l 0
 468 25 457 78 438 120 c 0
 414 172 386 207 385 210 c 1
 351 179 340 172 296 120 c 0
 258 78 224 25 212 0 c 1
 92 0 l 1
 190 458 l 2
 199 503 231 596 351 596 c 0
 397 596 440 569 438 515 c 0
 438 464 414 420 368 394 c 0
 328 372 291 377 290 377 c 1
 247 173 l 2
 247 175 291 221 323 251 c 0
 363 290 379 300 409 323 c 1
 412 322 441 291 466 253 c 0
 484 222 507 176 507 175 c 2
 659 889 l 1
 777 889 l 1
 589 0 l 1
339 529 m 0
 287 529 270 451 322 451 c 0
 372 451 389 529 339 529 c 0
EndSplineSet
EndChar
StartChar: uni0E1E
Encoding: 190 3614 158
OldEncoding: 3614
Width: 746
Flags: W
HStem: 0 21G<158 276 547 664> 382 70<224 241> 530 66<256 273>
VStem: 136 74<464 481> 288 89<495 506>
Fore
664 0 m 1
 547 0 l 1
 504 448 l 1
 276 0 l 1
 158 0 l 1
 239 383 l 1
 239 383 233 382 224 382 c 0
 213 382 196 383 176 392 c 0
 150 405 136 432 136 464 c 0
 136 480 139 495 146 512 c 0
 169 566 215 596 273 596 c 0
 353 596 377 553 377 504 c 0
 377 492 376 478 372 464 c 2
 331 268 l 1
 497 595 l 1
 569 595 l 1
 602 268 l 1
 671 593 l 1
 789 593 l 1
 664 0 l 1
258 530 m 0
 228 530 210 504 210 481 c 0
 210 466 219 452 241 452 c 0
 270 452 288 478 288 501 c 0
 288 517 279 530 258 530 c 0
EndSplineSet
EndChar
StartChar: uni0E1F
Encoding: 191 3615 159
OldEncoding: 3615
Width: 752
Flags: HW
HStem: 0 21G<156 274 546 662> 530 66<253 271> 921 20G<745 863>
AnchorPoint: "AboveBase" 630 613 basechar 0
Fore
662 0 m 1
 546 0 l 1
 503 448 l 1
 274 0 l 1
 156 0 l 1
 238 383 l 1
 238 383 210 377 175 392 c 0
 138 409 123 460 144 512 c 0
 167 566 213 596 271 596 c 0
 374 596 385 526 371 464 c 2
 330 268 l 1
 495 595 l 1
 567 595 l 1
 601 268 l 1
 745 941 l 1
 863 941 l 1
 662 0 l 1
254 530 m 0
 204 530 187 452 238 452 c 0
 288 452 305 530 254 530 c 0
EndSplineSet
EndChar
StartChar: uni0E20
Encoding: 192 3616 160
OldEncoding: 3616
Width: 680
Flags: W
HStem: -3 63<152 163> 133 65<174 180> 521 78<465 488>
VStem: 66 69<72 87> 570 118<443 462>
Fore
596 0 m 1
 478 0 l 1
 566 409 l 2
 569 425 570 437 570 449 c 0
 570 498 543 521 472 521 c 0
 468 521 l 0
 389 521 340 483 340 483 c 1
 343 481 360 471 386 448 c 0
 409 426 428 402 428 402 c 1
 425 402 392 389 356 356 c 0
 326 326 317 291 314 276 c 2
 281 112 l 2
 267 48 222 -3 152 -3 c 0
 98 -3 66 26 66 72 c 0
 66 87 71 104 78 124 c 0
 107 195 169 198 178 198 c 0
 179 198 179 198 179 198 c 1
 196 276 l 2
 199 287 212 330 239 357 c 0
 267 386 297 397 297 397 c 1
 297 397 277 423 244 445 c 0
 215 463 184 477 179 478 c 1
 205 506 316 599 486 599 c 0
 639 599 688 533 688 455 c 0
 688 440 687 426 684 411 c 2
 596 0 l 1
176 133 m 0
 152 133 135 107 135 87 c 0
 135 72 143 60 161 60 c 0
 185 60 202 86 202 106 c 0
 202 121 195 133 176 133 c 0
EndSplineSet
EndChar
StartChar: uni0E21
Encoding: 193 3617 161
OldEncoding: 3617
Width: 718
Flags: W
HStem: -5 83<187 197> -3 126<526 530> 228 89<256 274> 382 69<273 287> 529 67<303 322>
VStem: 83 84<104 125> 185 71<464 480> 334 92<490 508>
Fore
656 107 m 1x7f
 656 107 l 0
 647 67 630 28 587 11 c 0
 567 2 547 -3 527 -3 c 0x7f
 507 -3 489 2 472 14 c 0
 451 29 435 60 425 95 c 0
 397 189 368 198 366 204 c 1
 348 118 l 1
 340 75 323 41 277 18 c 0
 253 5 219 -5 189 -5 c 0xbf
 156 -5 127 5 107 28 c 0
 90 46 83 74 83 106 c 0
 83 156 103 216 141 256 c 0
 201 316 273 317 274 317 c 1
 288 383 l 1
 288 383 282 382 273 382 c 0
 262 382 245 383 225 392 c 0
 199 405 185 432 185 464 c 0
 185 480 189 495 195 512 c 0
 218 566 264 596 322 596 c 0
 402 596 426 553 426 504 c 0
 426 492 425 478 422 464 c 2
 389 310 l 1
 389 310 428 308 469 236 c 0
 497 182 503 152 526 123 c 0
 527 123 544 127 550 156 c 2
 642 595 l 1
 759 595 l 1
 656 107 l 1x7f
231 115 m 0
 256 228 l 0
 254 228 248 231 239 231 c 0
 225 231 204 224 185 189 c 0
 175 169 167 139 167 116 c 0
 167 95 175 78 195 78 c 0xbf
 216 78 227 97 231 115 c 0
303 529 m 0
 274 529 256 503 256 480 c 0
 256 464 265 451 287 451 c 0
 316 451 334 477 334 500 c 0
 334 515 325 529 303 529 c 0
EndSplineSet
EndChar
StartChar: uni0E22
Encoding: 194 3618 162
OldEncoding: 3618
Width: 657
Flags: W
HStem: 0 81<235 446> 228 75<352 397> 380 68<311 325> 526 70<334 354>
VStem: 173 111<357 371> 372 71<493 510>
Fore
601 126 m 1
 601 126 l 0
 595 94 575 49 540 26 c 0
 509 6 480 0 446 0 c 2
 100 0 l 1
 132 149 l 2
 139 189 156 215 195 244 c 0
 216 261 239 270 268 271 c 1
 231 273 202 290 189 316 c 1
 178 331 173 348 173 369 c 0
 173 382 175 394 178 408 c 2
 189 458 l 2
 198 503 245 596 354 596 c 0
 405 596 443 566 443 515 c 0
 443 510 l 0
 443 463 420 415 372 394 c 0
 348 383 326 380 311 380 c 0
 296 380 287 383 287 383 c 1
 285 374 284 366 284 359 c 0
 284 346 288 336 302 323 c 0
 317 310 334 303 356 303 c 2
 412 303 l 1
 397 228 l 1
 336 228 l 2
 311 228 288 218 270 198 c 0
 254 178 253 162 247 138 c 2
 235 81 l 1
 405 81 l 2
 428 81 448 84 464 101 c 0
 478 115 484 126 489 144 c 2
 584 595 l 1
 700 595 l 1
 601 126 l 1
340 526 m 0
 311 526 293 500 293 477 c 0
 293 461 302 448 323 448 c 0
 354 448 372 474 372 495 c 0
 372 512 362 526 340 526 c 0
EndSplineSet
EndChar
StartChar: uni0E23
Encoding: 195 3619 163
OldEncoding: 3619
Width: 551
Flags: W
HStem: -2 68<331 349> 144 69<356 372> 486 80<544 559> 527 74<347 369>
VStem: 239 75<80 95> 411 121<326 345>
Fore
639 518 m 1xec
 639 518 l 0
 632 515 598 486 549 486 c 0
 549 486 547 486 546 486 c 0xec
 472 489 434 523 357 527 c 0
 354 527 351 527 346 527 c 0
 293 527 274 494 265 487 c 1
 268 487 354 481 422 449 c 0
 472 426 532 402 532 345 c 0
 532 340 532 333 530 326 c 2
 489 130 l 2
 477 69 428 -2 331 -2 c 0
 277 -2 239 25 239 80 c 0
 239 81 239 81 239 83 c 0
 245 149 290 189 322 202 c 0
 343 212 362 213 372 213 c 0
 382 213 388 212 388 212 c 1
 406 293 l 2
 409 305 411 317 411 326 c 0
 411 343 405 359 386 371 c 0
 356 392 307 408 245 420 c 0
 207 428 176 429 156 429 c 0
 141 429 132 428 129 428 c 1
 129 428 161 550 297 590 c 0
 325 598 348 601 369 601 c 0xdc
 441 601 486 566 544 566 c 0
 549 566 555 567 559 567 c 0
 598 570 613 595 619 598 c 1
 639 518 l 1xec
362 144 m 0
 333 144 314 118 314 95 c 0
 314 80 323 66 345 66 c 0
 376 66 394 92 394 113 c 0
 394 130 383 144 362 144 c 0
EndSplineSet
EndChar
StartChar: uni0E24
Encoding: 196 3620 164
OldEncoding: 3620
Width: 677
Flags: W
HStem: -3 66<231 251> 141 69<268 277> 523 76<436 459>
VStem: 133 88<85 94> 300 66<110 130> 559 118<436 450>
Fore
540 -218 m 1
 423 -218 l 1
 556 409 l 2
 558 420 559 429 559 438 c 0
 559 495 520 523 443 523 c 0
 363 523 313 483 313 483 c 1
 316 481 331 471 359 448 c 0
 382 426 400 402 400 402 c 1
 397 402 363 389 328 356 c 0
 297 326 288 291 285 276 c 2
 271 210 l 1
 271 210 274 210 277 210 c 0
 299 210 366 204 366 130 c 0
 366 123 365 113 363 104 c 0
 349 28 287 -3 231 -3 c 0
 228 -3 227 -3 224 -3 c 0
 159 0 133 35 133 90 c 0
 133 106 136 121 139 139 c 2
 169 276 l 2
 172 287 184 330 210 357 c 0
 239 386 268 397 268 397 c 1
 268 397 250 423 216 445 c 0
 185 463 156 477 152 478 c 1
 178 506 299 599 457 599 c 0
 616 599 677 529 677 448 c 0
 677 435 676 423 673 411 c 2
 540 -218 l 1
268 141 m 0
 239 141 221 115 221 92 c 0
 221 77 230 63 251 63 c 0
 282 63 300 89 300 110 c 0
 300 127 290 141 268 141 c 0
EndSplineSet
EndChar
StartChar: uni0E25
Encoding: 197 3621 165
OldEncoding: 3621
Width: 660
Flags: W
HStem: -6 67<227 244> 141 69<258 274> 331 91<333 354> 520 85<407 440>
VStem: 123 87<89 104> 291 74<109 124> 538 121<432 457>
Fore
569 0 m 1
 451 0 l 1
 461 48 l 2
 463 54 463 61 463 69 c 0
 463 104 454 161 437 218 c 0
 417 285 385 331 333 331 c 0
 331 331 331 331 330 331 c 0
 287 331 273 294 264 256 c 2
 254 208 l 1
 261 210 268 210 274 210 c 0
 313 210 356 192 363 143 c 0
 365 136 365 130 365 124 c 0
 365 80 336 28 288 8 c 0
 268 -2 247 -6 227 -6 c 0
 193 -6 162 6 144 28 c 0
 130 46 123 71 123 104 c 0
 123 135 129 172 139 218 c 0
 169 334 227 392 293 412 c 0
 313 418 334 422 354 422 c 0
 392 422 428 411 454 385 c 0
 484 356 512 288 512 285 c 2
 532 385 l 2
 536 402 538 418 538 432 c 0
 538 481 512 517 431 520 c 0
 423 520 415 520 409 520 c 0
 281 520 231 457 219 443 c 1
 156 489 l 1
 159 494 192 546 282 579 c 0
 323 595 382 605 440 605 c 0
 492 605 543 596 576 579 c 0
 642 546 659 504 659 457 c 0
 659 428 653 397 647 365 c 2
 569 0 l 1
259 141 m 0
 228 141 210 115 210 92 c 0
 210 75 221 61 242 61 c 0
 273 61 291 87 291 110 c 0
 291 127 282 141 259 141 c 0
EndSplineSet
EndChar
StartChar: uni0E26
Encoding: 198 3622 166
OldEncoding: 3622
Width: 689
Flags: W
HStem: -3 64<158 171> 135 63<175.198 185> 523 78<471 494>
VStem: 72 71<72 89> 576 118<443 461>
Fore
553 -228 m 1
 435 -228 l 1
 572 409 l 2
 575 425 576 437 576 449 c 0
 576 498 549 523 478 523 c 0
 474 523 l 0
 397 523 346 481 346 481 c 1
 349 480 366 471 392 448 c 0
 415 426 434 402 434 402 c 1
 431 402 399 389 362 356 c 0
 333 326 323 291 320 276 c 2
 287 112 l 2
 273 48 227 -3 158 -3 c 0
 104 -3 72 26 72 72 c 0
 72 87 77 104 84 124 c 0
 113 195 175 198 184 198 c 0
 185 198 185 198 185 198 c 1
 202 276 l 2
 205 287 218 330 245 357 c 0
 273 386 303 397 303 397 c 1
 303 397 284 423 250 445 c 0
 221 463 190 477 185 478 c 1
 212 506 333 601 492 601 c 0
 645 601 694 533 694 455 c 0
 694 440 693 426 690 411 c 2
 553 -228 l 1
184 135 m 0
 158 135 143 110 143 89 c 0
 143 74 150 61 169 61 c 0
 193 61 210 87 210 107 c 0
 210 123 202 135 184 135 c 0
EndSplineSet
EndChar
StartChar: uni0E27
Encoding: 199 3623 167
OldEncoding: 3623
Width: 593
Flags: W
HStem: -2 66<392 399> 143 70<412 428> 515 84<364 399>
VStem: 293 73<83 96> 483 124<431 458>
Fore
543 130 m 1
 543 130 l 0
 530 72 483 -2 395 -2 c 0
 392 -2 388 -2 385 -2 c 0
 326 2 294 29 293 83 c 0
 293 133 331 185 376 202 c 0
 399 212 417 213 428 213 c 0
 437 213 441 212 441 212 c 1
 475 369 l 2
 480 389 483 411 483 431 c 0
 483 477 463 515 380 515 c 0
 379 515 376 515 374 515 c 0
 290 515 242 486 212 422 c 1
 121 461 l 1
 121 463 141 512 215 556 c 0
 267 587 334 599 395 599 c 0
 455 599 510 587 541 570 c 0
 592 540 607 503 607 458 c 0
 607 434 602 408 596 380 c 2
 543 130 l 1
414 143 m 0
 385 143 366 116 366 94 c 0
 366 78 376 64 397 64 c 0
 428 64 446 90 446 112 c 0
 446 129 435 143 414 143 c 0
EndSplineSet
EndChar
StartChar: uni0E28
Encoding: 200 3624 168
OldEncoding: 3624
Width: 700
Flags: W
HStem: 0 21G<143 267 503 619> 212 65<403 420> 351 69<433 445> 518 83<447 491>
VStem: 138 107<239 280> 464 71<323 337> 590 121<425 461>
Fore
622 575 m 1
 622 575 l 1
 624 575 l 1
 622 575 l 1
445 420 m 1
 445 420 l 0
 452 425 460 429 464 435 c 0
 533 501 549 504 550 504 c 0
 550 504 l 1
 530 513 503 518 464 518 c 0
 460 518 454 518 448 518 c 0
 330 515 279 448 259 380 c 0
 248 342 245 285 245 239 c 0
 245 201 248 170 248 169 c 1
 250 173 284 296 328 354 c 0
 354 388 383 420 445 420 c 1
 445 420 l 1
831 656 m 1
 831 656 l 0
 831 655 812 613 762 567 c 0
 727 535 694 517 694 517 c 1
 694 513 710 492 711 461 c 0
 711 420 705 406 700 380 c 2
 619 0 l 1
 503 0 l 1
 582 374 l 2
 587 397 586 383 590 415 c 0
 590 425 l 0
 590 443 587 451 587 454 c 1
 513 399 l 1
 532 382 535 360 535 337 c 0
 532 290 506 241 445 219 c 0
 429 213 415 212 403 212 c 0
 372 212 354 225 354 225 c 1
 346 212 328 172 313 130 c 0
 294 78 273 31 267 0 c 1
 143 0 l 1
 147 21 l 2
 150 37 153 72 153 106 c 0
 153 120 153 132 152 144 c 0
 147 178 138 224 138 276 c 0
 138 308 141 343 152 380 c 0
 184 504 291 598 471 601 c 0
 480 601 l 0
 579 601 609 576 622 575 c 1
 627 576 644 584 670 612 c 0
 687 630 702 655 702 656 c 1
 831 656 l 1
435 351 m 0
 406 351 388 326 388 305 c 0
 388 290 397 277 418 277 c 0
 448 277 464 302 464 323 c 0
 464 339 455 351 435 351 c 0
EndSplineSet
EndChar
StartChar: uni0E29
Encoding: 201 3625 169
OldEncoding: 3625
Width: 748
Flags: W
HStem: 0 81<117 532> 193 80<545 557> 365 58<480 497> 527 69<270 287>
VStem: 149 73<460 481> 302 90<486 502> 379 64<307 322> 515 57<339 353>
Fore
857 351 m 1xfb
 857 351 l 1
 857 351 837 305 768 258 c 0
 725 228 682 213 679 213 c 1
 655 103 l 2
 650 81 636 46 610 26 c 0
 582 8 556 0 532 0 c 2
 101 0 l 1
 118 81 l 1
 190 81 l 1
 253 377 l 1
 253 377 248 377 242 377 c 0
 228 377 204 379 182 394 c 0
 159 411 149 434 149 460 c 0
 149 477 153 495 161 515 c 0
 184 569 241 596 287 596 c 0
 374 596 392 546 392 500 c 0xfd
 392 484 391 471 388 458 c 2
 307 81 l 1
 480 81 l 2
 495 81 512 81 526 94 c 0
 543 110 544 129 547 146 c 2
 558 193 l 1
 556 193 553 193 547 193 c 0
 521 193 455 198 418 224 c 0
 394 244 379 274 379 307 c 0
 379 342 395 379 434 405 c 0
 452 417 475 423 495 423 c 0
 530 423 563 406 569 377 c 0
 572 368 572 360 572 353 c 0
 572 307 536 276 536 276 c 1
 536 276 543 273 555 273 c 0
 559 273 563 273 566 273 c 0
 570 273 573 273 575 273 c 1
 642 595 l 1
 759 595 l 1
 699 307 l 1
 702 307 727 319 750 340 c 0
 779 366 788 394 788 400 c 1
 857 351 l 1xfb
302 487 m 0
 302 487 l 0
 302 490 302 492 302 495 c 0
 302 512 293 527 270 527 c 0
 239 527 222 503 222 481 c 0
 222 464 231 449 253 449 c 0
 254 449 254 449 256 449 c 0
 281 449 297 468 302 487 c 0
487 365 m 0
 460 365 443 342 443 322 c 0xfb
 443 307 452 294 472 294 c 0
 498 294 515 319 515 339 c 0
 515 353 507 365 487 365 c 0
EndSplineSet
EndChar
StartChar: uni0E2A
Encoding: 202 3626 170
OldEncoding: 3626
Width: 657
Flags: W
HStem: -2 68<228 248> 146 69<263 277> 346 46<336 432> 521 78<411 454>
VStem: 124 92<93 107> 297 69<113 127> 541 120<436 460>
Fore
759 655 m 1
 759 655 l 0
 746 624 734 607 707 579 c 0
 671 543 638 521 638 521 c 1
 639 518 659 492 661 469 c 0
 661 460 l 0
 661 414 651 383 648 365 c 2
 570 0 l 1
 452 0 l 1
 460 43 l 1
 461 52 461 64 461 78 c 0
 461 113 457 162 443 213 c 0
 422 281 389 346 336 346 c 0
 334 346 l 0
 291 346 274 294 265 256 c 2
 258 213 l 1
 264 215 271 215 277 215 c 0
 316 215 357 196 365 147 c 0
 366 141 366 133 366 127 c 0
 366 83 337 32 291 12 c 0
 270 3 248 -2 228 -2 c 0
 195 -2 166 11 146 32 c 0
 132 51 124 74 124 107 c 0
 124 138 130 175 141 222 c 0
 169 346 225 391 294 412 c 0
 322 420 371 435 415 455 c 0
 468 478 507 501 510 503 c 1
 487 513 471 521 431 521 c 0
 420 521 409 521 395 520 c 0
 281 515 236 455 222 441 c 1
 156 490 l 1
 161 495 199 547 290 578 c 0
 334 593 385 599 434 599 c 0
 463 599 490 598 513 593 c 0
 573 584 590 567 590 567 c 1
 590 567 609 582 627 610 c 0
 642 635 644 650 645 655 c 1
 759 655 l 1
512 282 m 0
 533 385 l 0
 538 402 538 403 540 422 c 0
 541 429 541 434 541 438 c 0
 541 448 540 448 538 448 c 0
 538 448 l 1
 535 446 506 422 475 409 c 0
 446 397 432 392 432 392 c 2
 434 392 452 385 472 356 c 0
 492 326 512 285 512 282 c 0
265 146 m 0
 235 146 216 120 216 97 c 0
 216 80 227 66 248 66 c 0
 279 66 297 92 297 115 c 0
 297 132 288 146 265 146 c 0
EndSplineSet
EndChar
StartChar: uni0E2B
Encoding: 203 3627 171
OldEncoding: 3627
Width: 715
Flags: W
HStem: 0 21G<155 273 513 630> 377 68<233 239> 523 73<252 268>
VStem: 130 75<460 477> 287 89<490 504> 492 80<454 469> 578 118<306 319>
Fore
630 0 m 1
 513 0 l 1
 572 274 l 2
 575 285 578 297 578 308 c 0
 578 316 576 322 570 325 c 0
 564 328 558 330 553 330 c 0
 536 330 527 319 524 316 c 0
 515 310 469 265 411 193 c 1
 351 124 307 78 273 0 c 1
 155 0 l 1
 235 377 l 1
 235 377 230 377 225 377 c 0
 212 377 187 379 164 394 c 0
 141 411 130 434 130 460 c 0
 130 477 135 495 143 515 c 0
 167 569 222 596 268 596 c 0
 357 596 376 544 376 500 c 0
 376 484 374 469 371 458 c 2
 320 225 l 1
 320 225 369 287 409 325 c 0
 468 382 509 402 509 402 c 1
 507 402 492 420 492 454 c 0
 492 472 497 494 509 520 c 0
 532 566 581 599 642 599 c 0
 705 599 740 559 740 512 c 0
 740 509 740 504 740 501 c 0
 730 411 665 388 662 386 c 1
 664 385 677 376 687 359 c 0
 693 343 696 331 696 319 c 0
 696 308 694 297 691 285 c 2
 630 0 l 1
285 483 m 0
 285 483 l 0
 287 489 287 495 287 498 c 0
 287 520 273 523 254 523 c 0
 222 523 205 498 205 477 c 0
 205 460 216 445 239 445 c 0
 241 445 241 445 242 445 c 0
 264 445 281 463 285 483 c 0
628 526 m 0
 593 526 572 495 572 469 c 0
 572 451 584 435 609 435 c 0
 644 435 665 466 665 492 c 0
 665 510 653 526 628 526 c 0
EndSplineSet
EndChar
StartChar: uni0E2C
Encoding: 204 3628 172
OldEncoding: 3628
Width: 754
Flags: W
HStem: 0 21G<156 274 546 662> 382 70<222 239> 474 44<582 645> 530 66<254 271> 602 60<598 621>
VStem: 135 73<464 481> 287 89<495 506> 454 73<536 553>
Fore
897 656 m 1
 897 656 l 0
 897 653 869 612 835 575 c 0
 805 544 773 521 773 521 c 1
 662 0 l 1
 546 0 l 1
 469 290 l 1
 274 0 l 1
 156 0 l 1
 238 383 l 1
 238 383 231 382 222 382 c 0
 212 382 195 383 175 392 c 0
 149 405 135 432 135 464 c 0
 135 480 138 495 144 512 c 0
 167 566 213 596 271 596 c 0
 351 596 376 553 376 504 c 0
 376 492 374 478 371 464 c 2
 313 190 l 1
 458 418 l 1
 530 418 l 1
 584 190 l 1
 645 474 l 1
 644 474 615 461 570 461 c 0
 549 461 523 464 497 474 c 0
 468 484 454 509 454 536 c 0
 454 563 464 590 487 616 c 0
 507 638 555 662 619 662 c 0
 633 662 647 662 661 659 c 0
 719 648 742 610 742 610 c 1
 742 610 762 624 777 644 c 0
 796 667 803 687 803 687 c 1
 897 656 l 1
664 561 m 0
 664 561 l 0
 664 566 l 0
 664 589 636 602 607 602 c 0
 575 602 535 590 529 561 c 0
 529 558 527 555 527 553 c 0
 527 527 561 518 589 518 c 0
 619 518 658 533 664 561 c 0
256 530 m 0
 227 530 208 504 208 481 c 0
 208 466 218 452 239 452 c 0
 268 452 287 478 287 501 c 0
 287 517 277 530 256 530 c 0
EndSplineSet
EndChar
StartChar: uni0E2D
Encoding: 205 3629 173
OldEncoding: 3629
Width: 669
Flags: W
HStem: 0 81<277 440> 195 69<277 293> 342 67<301 320> 515 84<410 445>
VStem: 126 121<92 110> 340 71<309 323> 553 120<435 458>
Fore
607 133 m 1
 607 133 l 0
 599 90 582 57 544 29 c 0
 512 6 472 0 440 0 c 2
 235 0 l 2
 196 0 170 6 144 34 c 0
 136 44 126 66 126 92 c 0
 126 98 127 106 129 113 c 2
 162 276 l 2
 176 339 224 409 320 409 c 0
 376 409 411 377 411 323 c 0
 411 273 374 221 328 205 c 0
 305 196 288 195 277 195 c 0
 268 195 264 196 264 196 c 1
 250 133 l 2
 248 126 247 118 247 110 c 0
 247 104 248 98 254 92 c 0
 262 83 279 81 293 81 c 2
 418 81 l 2
 445 81 457 84 472 98 c 0
 489 113 490 129 495 150 c 2
 549 403 l 2
 552 414 553 425 553 435 c 0
 553 477 527 512 440 515 c 0
 417 515 l 0
 288 515 245 445 235 431 c 1
 169 486 l 1
 173 490 190 530 281 572 c 0
 322 590 385 599 445 599 c 0
 500 599 553 592 589 575 c 0
 658 543 673 497 673 458 c 0
 673 437 668 418 665 403 c 2
 607 133 l 1
308 342 m 0
 279 342 262 316 262 294 c 0
 262 277 271 264 293 264 c 0
 322 264 340 290 340 311 c 0
 340 328 331 342 308 342 c 0
EndSplineSet
EndChar
StartChar: uni0E2E
Encoding: 206 3630 174
OldEncoding: 3630
Width: 656
Flags: W
HStem: 0 81<266 429> 156 69<256 270> 302 69<279 299> 417 61<364 395> 540 62<420 440>
VStem: 112 123<92 113> 187 112<492 503> 316 76<272 285> 543 119<430 449>
Fore
733 598 m 1xfb80
 733 598 l 0
 733 596 717 569 694 540 c 0
 676 517 651 498 648 497 c 1
 648 494 659 484 662 458 c 0
 662 449 l 0
 662 426 658 412 655 400 c 2
 598 133 l 2
 590 90 572 57 533 29 c 0
 501 6 463 0 429 0 c 2
 221 0 l 2
 182 0 156 6 130 34 c 0
 123 44 112 66 112 92 c 0xfd80
 112 98 113 106 115 113 c 2
 141 238 l 2
 155 300 201 371 299 371 c 0xfb80
 353 371 392 339 392 285 c 0
 391 233 353 182 307 167 c 0
 284 158 267 156 256 156 c 0
 247 156 242 158 242 158 c 1
 236 127 l 2
 235 123 235 118 235 113 c 0xfd80
 235 104 236 97 241 92 c 0
 248 83 265 81 281 81 c 2
 408 81 l 2
 435 81 446 84 461 98 c 0
 478 113 480 129 484 150 c 2
 540 409 l 2
 541 418 541 420 543 431 c 0
 543 432 l 0
 543 438 538 443 538 443 c 1
 512 432 431 418 366 417 c 0
 297 417 187 437 187 492 c 0
 187 497 189 500 189 503 c 0
 201 566 311 599 428 602 c 0
 432 602 435 602 440 602 c 0
 555 602 595 561 595 561 c 2
 596 561 605 566 619 582 c 0
 632 599 641 628 641 630 c 1
 733 598 l 1xfb80
527 512 m 0
 527 512 l 0
 523 513 501 538 420 540 c 0
 374 540 303 535 299 506 c 0
 299 504 299 504 299 503 c 0xfb80
 299 480 353 478 395 478 c 0
 409 478 l 0
 510 481 526 512 527 512 c 0
285 302 m 0
 254 302 236 276 236 254 c 0
 236 239 247 225 268 225 c 0
 297 225 316 251 316 273 c 0
 316 288 307 302 285 302 c 0
EndSplineSet
EndChar
StartChar: uni0E2F
Encoding: 207 3631 175
OldEncoding: 3631
Width: 623
Flags: W
HStem: -6 83<353 383> 328 74<347 362> 425 52<303 312> 543 53<323 337>
VStem: 349 68<518 530> 570 100<535 595>
Fore
596 179 m 1
 596 179 l 0
 582 113 569 58 497 21 c 0
 448 -5 400 -6 383 -6 c 0
 380 -6 379 -6 379 -6 c 1
 345 77 l 1
 345 77 348 77 353 77 c 0
 371 77 418 80 454 110 c 0
 474 129 477 169 481 190 c 2
 524 391 l 2
 524 389 469 331 360 328 c 0
 356 328 l 0
 267 328 196 372 196 454 c 0
 196 458 196 461 196 464 c 0
 201 526 248 593 334 596 c 0
 336 596 336 596 337 596 c 0
 391 596 417 567 417 530 c 0
 417 517 412 501 405 486 c 0
 377 426 310 425 303 425 c 2
 303 425 319 402 362 402 c 0
 371 402 382 402 392 405 c 0
 464 418 490 449 523 487 c 0
 553 526 570 590 570 595 c 1
 570 595 575 595 582 595 c 0
 604 595 645 592 664 561 c 1
 668 553 670 544 670 535 c 0
 670 518 665 500 661 480 c 2
 596 179 l 1
323 543 m 0
 299 543 284 521 284 501 c 0
 284 489 291 477 310 477 c 0
 334 477 349 498 349 518 c 0
 349 530 342 543 323 543 c 0
EndSplineSet
EndChar
StartChar: uni0E30
Encoding: 208 3632 176
OldEncoding: 3632
Width: 531
Flags: W
HStem: 14 76<192 222> 187 60<208 224> 340 78<261 290> 515 60<277 294>
VStem: 81 71<116 131> 150 71<443 457> 248 48<106 149> 248 68<149 170> 317 48<432 477>
Fore
365 432 m 0xf480
 365 432 l 1
 365 432 412 438 474 475 c 0
 552 523 595 587 595 587 c 1
 567 457 l 2
 567 454 518 403 432 372 c 0
 377 353 334 340 290 340 c 0
 268 340 248 343 225 349 c 0
 181 362 150 399 150 443 c 0
 150 469 161 498 185 526 c 0
 215 558 256 575 294 575 c 0
 316 575 336 569 351 559 c 0
 377 541 385 520 385 498 c 0
 385 464 365 434 365 432 c 0xf480
296 106 m 0xf280
 296 106 l 1xf280
 296 106 343 112 405 149 c 0
 483 195 526 261 526 261 c 1
 498 129 l 2
 497 126 448 75 362 44 c 0
 308 25 265 14 222 14 c 0
 201 14 179 17 156 23 c 0
 112 34 81 71 81 116 c 0
 81 143 92 172 116 199 c 0
 144 231 187 247 224 247 c 0
 245 247 265 242 281 231 c 0
 307 213 316 190 316 170 c 0xf980
 316 136 296 107 296 106 c 0xf280
192 90 m 0
 192 90 l 0
 227 90 248 123 248 149 c 0
 248 169 238 187 210 187 c 0
 173 187 152 156 152 129 c 0xfa80
 152 109 164 90 192 90 c 0
261 418 m 0
 296 418 317 451 317 477 c 0
 317 497 307 515 279 515 c 0
 242 515 221 484 221 457 c 0xf480
 221 437 233 418 261 418 c 0
EndSplineSet
EndChar
StartChar: uni0E31
Encoding: 209 3633 177
OldEncoding: 3633
Width: 0
Flags: HW
AnchorPoint: "AboveMark" 40.0039 988.656 basemark 0
AnchorPoint: "AboveBase" 42 613 mark 0
Fore
202 786 m 1
 202 786 l 0
 201 786 152 734 43 700 c 0
 -69 665 -181 688 -222 707 c 0
 -322 750 -288 874 -215 914 c 0
 -143 952 -55 920 -60 846 c 0
 -61 791 -104 760 -104 760 c 1
 -98 760 -23 750 61 786 c 0
 169 834 230 914 230 914 c 1
 202 786 l 1
-127 828 m 0
 -116 889 -208 887 -219 826 c 0
 -231 765 -139 766 -127 828 c 0
EndSplineSet
EndChar
StartChar: uni0E32
Encoding: 210 3634 178
OldEncoding: 3634
Width: 493
Flags: W
HStem: 0 21G<314 432> 507 91<316 348>
VStem: 399 119<418 443>
Fore
196 449 m 1
 115 478 l 1
 116 480 153 598 348 598 c 0
 480 598 518 524 518 443 c 0
 518 418 515 394 510 371 c 2
 432 0 l 1
 314 0 l 1
 391 360 l 2
 395 380 399 400 399 420 c 0
 399 468 380 507 316 507 c 0
 221 506 196 451 196 449 c 1
EndSplineSet
EndChar
StartChar: uni0E33
Encoding: 211 3635 179
OldEncoding: 3635
Width: 493
Flags: W
HStem: 0 21G<310 428> 507 91<311 343> 681 65<-26 -9> 861 69<10 28>
VStem: -127 67<777 793> 60 69<817 834> 394 119<418 443>
Fore
28 930 m 0
 28 930 l 0
 98 930 129 886 129 834 c 0
 129 765 71 681 -26 681 c 0
 -97 681 -127 725 -127 777 c 0
 -127 846 -69 930 28 930 c 0
-11 746 m 0
 -11 746 l 0
 34 746 60 785 60 817 c 0
 60 840 44 861 12 861 c 0
 -32 861 -60 823 -60 791 c 0
 -60 768 -44 746 -11 746 c 0
192 449 m 1
 110 478 l 1
 112 480 149 598 343 598 c 0
 475 598 513 524 513 443 c 0
 513 418 510 394 506 371 c 2
 428 0 l 1
 310 0 l 1
 386 360 l 2
 391 380 394 400 394 420 c 0
 394 468 376 507 311 507 c 0
 216 506 192 451 192 449 c 1
EndSplineSet
MultipleSubs: 0 1 'ccmp' uni0E4D uni0E32
EndChar
StartChar: uni0E34
Encoding: 212 3636 180
OldEncoding: 3636
Width: 0
Flags: HW
HStem: 848 66<-146 -130>
AnchorPoint: "AboveMark" 62 988 basemark 0
AnchorPoint: "AboveBase" 42 613 mark 0
Fore
-132 914 m 0
 -132 914 l 0
 60 912 77 694 60 638 c 1
 60 638 -9 710 -189 717 c 0
 -336 725 -425 682 -426 682 c 1
 -397 792 -294 915 -132 914 c 0
-146 848 m 0
 -261 851 -299 766 -299 766 c 1
 -299 766 -244 780 -167 777 c 0
 -87 774 -21 748 -21 748 c 1
 -21 748 -34 846 -146 848 c 0
EndSplineSet
EndChar
StartChar: uni0E35
Encoding: 213 3637 181
OldEncoding: 3637
Width: 0
Flags: HW
HStem: 918 20G<-5 110>
AnchorPoint: "AboveMark" 62 988 basemark 0
AnchorPoint: "AboveBase" 42 613 mark 0
Fore
-429 665 m 1
 -429 665 l 0
 -403 776 -305 868 -205 889 c 0
 -126 907 -60 889 -20 863 c 1
 -5 938 l 1
 110 938 l 1
 61 705 l 1
 61 705 61 688 61 667 c 0
 61 644 60 624 58 621 c 1
 58 621 -11 693 -190 700 c 0
 -339 708 -429 665 -429 665 c 1
-149 831 m 0
 -262 834 -300 750 -300 750 c 1
 -300 750 -245 763 -170 760 c 0
 -89 757 -25 731 -25 731 c 1
 -25 731 -35 829 -149 831 c 0
EndSplineSet
EndChar
StartChar: uni0E36
Encoding: 214 3638 182
OldEncoding: 3638
Width: 0
Flags: HW
AnchorPoint: "AboveMark" 53 988 basemark 0
AnchorPoint: "AboveBase" 42 613 mark 0
Fore
-431 664 m 0
 -431 664 l 0
 -420 716 -368 814 -279 861 c 0
 -193 906 -107 898 -69 884 c 1
 -69 887 -55 915 -9 943 c 0
 35 969 89 961 113 937 c 0
 138 910 138 872 120 835 c 0
 100 796 78 780 43 765 c 1
 51 743 57 728 60 704 c 0
 63 674 66 691 55 635 c 1
 55 635 -12 691 -192 699 c 0
 -340 707 -429 664 -431 664 c 0
-150 829 m 0
 -150 829 l 0
 -265 832 -302 748 -302 748 c 1
 -302 748 -247 762 -172 759 c 0
 -90 756 -26 730 -26 730 c 1
 -26 730 -37 828 -150 829 c 0
20 814 m 0
 83 806 109 912 37 907 c 0
 -14 904 -40 820 20 814 c 0
EndSplineSet
EndChar
StartChar: uni0E37
Encoding: 215 3639 183
OldEncoding: 3639
Width: 0
Flags: HW
HStem: 842 65<-159 -143> 933 20G<-135 -43 8 107>
AnchorPoint: "AboveMark" -5 988 basemark 0
AnchorPoint: "AboveBase" 42 613 mark 0
Fore
-440 676 m 0
 -440 676 l 0
 -440 681 -420 768 -339 838 c 1
 -248 914 -158 907 -144 907 c 1
 -135 953 l 1
 -43 953 l 1
 -55 894 l 1
 -46 892 -37 887 -29 880 c 0
 -20 872 -14 857 -12 857 c 1
 8 953 l 1
 107 953 l 1
 51 684 l 1
 49 632 l 1
 49 632 -21 704 -201 711 c 0
 -349 719 -438 676 -440 676 c 0
-159 842 m 0
 -274 845 -311 760 -311 760 c 1
 -311 760 -258 774 -181 771 c 0
 -101 768 -35 742 -35 742 c 1
 -35 742 -46 840 -159 842 c 0
EndSplineSet
EndChar
StartChar: uni0E38
Encoding: 216 3640 184
OldEncoding: 3640
Width: 0
Flags: HW
AnchorPoint: "BelowBase" -92 -26 mark 0
Fore
-153 -308 m 1
 -259 -308 l 1
 -235 -195 l 1
 -250 -198 -267 -196 -285 -181 c 0
 -319 -153 -314 -98 -276 -58 c 0
 -244 -26 -185 -23 -158 -32 c 0
 -107 -51 -107 -95 -118 -143 c 2
 -153 -308 l 1
-193 -109 m 0
 -190 -95 -189 -83 -216 -83 c 0
 -254 -83 -261 -136 -230 -136 c 0
 -196 -136 -196 -123 -193 -109 c 0
EndSplineSet
EndChar
StartChar: uni0E39
Encoding: 217 3641 185
OldEncoding: 3641
Width: 0
Flags: HW
HStem: -296 71<-270 -253>
AnchorPoint: "BelowBase" -92 -26 mark 0
Fore
-282 -227 m 1
 -282 -227 l 1
 -282 -227 -264 -225 -270 -225 c 0
 -274 -225 -261 -224 -248 -212 c 0
 -236 -198 -231 -176 -235 -179 c 0
 -238 -193 -204 -31 -202 -31 c 2
 -86 -31 l 1
 -86 -31 -129 -225 -129 -227 c 0
 -130 -228 -138 -250 -156 -265 c 0
 -175 -281 -192 -294 -215 -296 c 0
 -225 -296 -253 -296 -253 -296 c 1
 -420 -296 l 1
 -403 -219 l 1
 -458 -224 -501 -202 -486 -126 c 0
 -477 -69 -423 -23 -360 -26 c 0
 -287 -31 -274 -86 -288 -149 c 2
 -303 -225 l 1
 -282 -227 l 1
-399 -155 m 0
 -354 -155 -345 -83 -388 -84 c 0
 -429 -86 -441 -155 -399 -155 c 0
EndSplineSet
EndChar
StartChar: uni0E3A
Encoding: 218 3642 186
OldEncoding: 3642
Width: 0
Flags: HW
HStem: -261 21G<-270.5 -155>
AnchorPoint: "BelowBase" -92 -26 mark 0
Fore
-176 -86 m 0
 -60 -86 -97 -261 -213 -261 c 0
 -328 -261 -291 -86 -176 -86 c 0
EndSplineSet
EndChar
StartChar: uni0E4D.high
Encoding: 219 63262 187
OldEncoding: 3643
Width: 0
Flags: W
TeX: 0 0 0 0
HStem: 995 66<-70.5 96.5> 1176 69<-16.5 150.5>
AnchorPoint: "AboveMark" 13.0059 988 mark 0
Fore
67 1245 m 0
 234 1245 180 995 13 995 c 0
 -154 995 -100 1245 67 1245 c 0
28 1061 m 0
 105 1061 129 1176 52 1176 c 0
 -24 1176 -48 1061 28 1061 c 0
EndSplineSet
EndChar
StartChar: dottedcircle
Encoding: 221 9676 188
OldEncoding: 65537
Width: 718
Flags: W
HStem: -14 75<368 385> 23 75<227 244> 34 75<507 523> 115 75<147 162> 127 74<610 625> 256 75<671 688> 264 75<143 158> 391 75<665 682> 481 75<590 605> 489 75<336 351> 523 75<480 497>
Fore
216 452 m 6
336 543 m 6
227 78 m 6
147 169 m 6
507 87 m 6
609 181 m 6
665 446 m 6
590 535 m 6
673 311 m 6
143 317 m 6
481 578 m 6
230 472 m 4,11,12
 251 472 264 455 259 435 c 4,13,14
 254 414 236 397 215 397 c 4,15,16
 195 397 181 414 185 435 c 4,17,18
 190 455 210 472 230 472 c 4,11,12
222 435 m 4,19,-1
 222 435 l 4,20,-1
 222 435 l 4,21,-1
 222 435 l 4,22,-1
 222 435 l 4,19,-1
351 564 m 4,23,24
 372 564 386 547 382 526 c 4,25,26
 377 506 357 489 336 489 c 4,27,28
 316 489 302 506 307 526 c 4,29,30
 311 547 331 564 351 564 c 4,23,24
343 526 m 4,31,-1
 343 526 l 4,32,-1
 343 526 l 4,33,-1
 343 526 l 4,34,-1
 343 526 l 4,31,-1
244 98 m 4,35,36
 264 98 276 81 273 61 c 4,37,38
 268 40 247 23 227 23 c 4,39,40
 205 23 193 40 198 61 c 4,41,42
 201 81 222 98 244 98 c 4,35,36
236 61 m 4,43,-1
 236 61 l 4,44,-1
 236 61 l 4,45,-1
 236 61 l 4,46,-1
 236 61 l 4,43,-1
162 190 m 4,47,48
 184 190 198 173 193 152 c 4,49,50
 189 132 169 115 147 115 c 4,51,52
 127 115 113 132 118 152 c 4,53,54
 123 173 143 190 162 190 c 4,47,48
155 152 m 4,55,-1
 155 152 l 4,56,-1
 155 152 l 4,57,-1
 155 152 l 4,58,-1
 155 152 l 4,55,-1
523 109 m 4,59,60
 544 109 558 92 553 71 c 4,61,62
 549 51 529 34 507 34 c 4,63,64
 487 34 474 51 478 71 c 4,65,66
 483 92 503 109 523 109 c 4,59,60
515 71 m 4,67,-1
 515 71 l 4,68,-1
 515 71 l 4,69,-1
 515 71 l 4,70,-1
 515 71 l 4,67,-1
625 201 m 4,71,72
 645 201 659 184 655 164 c 4,73,74
 650 143 630 127 610 127 c 4,75,76
 589 127 576 143 581 164 c 4,77,78
 586 184 604 201 625 201 c 4,71,72
618 164 m 4,79,-1
 618 164 l 4,80,-1
 618 164 l 4,81,-1
 618 164 l 4,82,-1
 618 164 l 4,79,-1
682 466 m 4,83,84
 702 466 714 449 711 429 c 4,85,86
 707 408 685 391 665 391 c 4,87,88
 644 391 633 408 638 429 c 4,89,90
 641 449 661 466 682 466 c 4,83,84
674 429 m 4,91,-1
 674 429 l 4,92,-1
 674 429 l 4,93,-1
 674 429 l 4,94,-1
 674 429 l 4,91,-1
605 556 m 4,95,96
 627 556 641 540 636 518 c 4,97,98
 632 498 612 481 590 481 c 4,99,100
 570 481 556 498 561 518 c 4,101,102
 566 540 586 556 605 556 c 4,95,96
598 518 m 4,103,-1
 598 518 l 4,104,-1
 598 518 l 4,105,-1
 598 518 l 4,106,-1
 598 518 l 4,103,-1
688 331 m 4,107,108
 710 331 723 314 719 294 c 4,109,110
 714 273 693 256 671 256 c 4,111,112
 651 256 639 273 644 294 c 4,113,114
 648 314 668 331 688 331 c 4,107,108
681 294 m 4,115,-1
 681 294 l 4,116,-1
 681 294 l 4,117,-1
 681 294 l 4,118,-1
 681 294 l 4,115,-1
158 339 m 4,119,120
 179 339 193 322 189 300 c 4,121,122
 184 281 164 264 143 264 c 4,123,124
 123 264 109 281 113 300 c 4,125,126
 118 322 138 339 158 339 c 4,119,120
150 300 m 4,127,-1
 150 300 l 4,128,-1
 150 300 l 4,129,-1
 150 300 l 4,130,-1
 150 300 l 4,127,-1
385 61 m 4,131,132
 406 61 418 44 414 23 c 4,133,134
 409 3 389 -14 368 -14 c 4,135,136
 348 -14 334 3 339 23 c 4,137,138
 343 44 365 61 385 61 c 4,131,132
376 23 m 4,139,-1
 376 23 l 4,140,-1
 376 23 l 4,141,-1
 376 23 l 4,142,-1
 376 23 l 4,139,-1
497 598 m 4,143,144
 518 598 532 581 527 561 c 4,145,146
 523 540 501 523 480 523 c 4,147,148
 460 523 448 540 452 561 c 4,149,150
 457 581 477 598 497 598 c 4,143,144
489 561 m 4,151,-1
 489 561 l 4,152,-1
 489 561 l 4,153,-1
 489 561 l 4,154,-1
 489 561 l 4,151,-1
EndSplineSet
EndChar
StartChar: uni0E3F
Encoding: 223 3647 189
OldEncoding: 3647
Width: 646
Flags: W
HStem: -17 20G<83 273> 612 92<233 403>
VStem: 520 124<220 235> 570 129<541 573>
Fore
360 409 m 1xc0
 403 612 l 1
 333 612 l 1
 290 409 l 1
 360 409 l 1xc0
294 100 m 1
 340 319 l 1
 270 319 l 1
 224 100 l 1
 294 100 l 1
437 317 m 0
 391 101 l 0
 412 103 434 107 455 120 c 0
 486 139 509 176 518 213 c 0
 520 219 520 227 520 233 c 0xe0
 520 261 509 287 489 302 c 0
 475 313 457 316 437 317 c 0
500 612 m 0
 457 411 l 0
 475 412 495 418 513 431 c 0
 541 451 561 483 567 515 c 0
 569 524 570 532 570 541 c 0xd0
 570 564 563 586 543 599 c 0
 532 607 517 610 500 612 c 0
446 817 m 1
 543 817 l 1
 520 704 l 1xe0
 567 704 618 704 655 674 c 0
 684 650 699 615 699 573 c 0xd0
 699 559 697 544 694 529 c 0
 679 457 618 392 535 369 c 1
 532 360 l 1
 602 343 644 290 644 222 c 0xe0
 644 208 642 196 639 182 c 0
 627 126 586 75 536 40 c 0
 486 5 428 3 369 3 c 1
 343 -121 l 1
 247 -121 l 1
 273 3 l 1
 83 3 l 1
 233 704 l 1
 423 704 l 1
 446 817 l 1
EndSplineSet
EndChar
StartChar: uni0E40
Encoding: 224 3648 190
OldEncoding: 3648
Width: 360
Flags: W
HStem: -2 68<213 236> 144 69<253 268>
VStem: 115 89<90 99> 284 73<115 132>
Fore
346 83 m 0
 346 83 l 0
 326 31 282 2 222 -2 c 0
 213 -2 l 0
 138 -2 115 43 115 92 c 0
 115 104 116 118 120 130 c 2
 218 595 l 1
 336 595 l 1
 254 212 l 1
 254 212 261 213 268 213 c 0
 279 213 296 210 316 201 c 0
 340 189 357 164 357 132 c 0
 357 116 354 101 346 83 c 0
253 144 m 0
 222 144 204 118 204 97 c 0
 204 80 215 66 236 66 c 0
 265 66 284 92 284 115 c 0
 284 130 274 144 253 144 c 0
EndSplineSet
EndChar
StartChar: uni0E41
Encoding: 225 3649 191
OldEncoding: 3649
Width: 649
Flags: W
HStem: -2 66<508 518> 143 70<250 264>
VStem: 110 97<90 96> 287 66<112 132> 405 82<90 96> 566 81<113 132>
Fore
636 83 m 0
 636 83 l 0
 616 31 572 2 512 -2 c 0
 503 -2 l 0
 428 -2 405 43 405 92 c 0
 405 104 406 118 409 130 c 2
 507 595 l 1
 625 595 l 1
 544 212 l 1
 544 212 550 213 558 213 c 0
 569 213 586 210 607 201 c 0
 632 189 647 166 647 132 c 0
 647 118 644 101 636 83 c 0
342 83 m 0
 342 83 l 0
 322 31 277 2 218 -2 c 0
 208 -2 l 0
 133 -2 110 43 110 92 c 0
 110 104 112 118 115 130 c 2
 213 595 l 1
 331 595 l 1
 250 212 l 1
 250 212 256 213 264 213 c 0
 274 213 291 210 313 201 c 0
 337 189 353 164 353 132 c 0
 353 118 349 101 342 83 c 0
535 143 m 0
 535 143 l 0
 506 143 487 116 487 94 c 0
 487 78 497 64 518 64 c 0
 547 64 566 90 566 113 c 0
 566 129 556 143 535 143 c 0
254 143 m 0
 225 143 207 116 207 94 c 0
 207 78 216 64 238 64 c 0
 268 64 287 90 287 112 c 0
 287 129 276 143 254 143 c 0
EndSplineSet
EndChar
StartChar: uni0E42
Encoding: 226 3650 192
OldEncoding: 3650
Width: 389
Flags: W
HStem: -2 66<241 265> 143 70<282 296> 941 123<392 411>
VStem: 144 91<88 96> 288 121<800 822> 313 73<113 130>
Fore
696 975 m 1xf8
 696 975 l 0
 694 975 667 943 601 941 c 0
 596 941 l 0
 530 941 463 990 392 990 c 0
 379 990 363 989 349 984 c 0
 300 969 282 924 282 924 c 1
 284 924 346 910 377 883 c 0
 402 861 409 843 409 822 c 0xf8
 409 808 406 791 402 773 c 2
 282 212 l 1
 282 212 288 213 296 213 c 0
 307 213 325 210 345 201 c 0
 369 189 386 164 386 130 c 0xf4
 386 116 383 100 376 83 c 0
 354 31 311 2 250 -2 c 0
 241 -2 l 0
 166 -2 144 43 144 90 c 0
 144 104 146 118 149 130 c 2
 285 773 l 2
 287 782 288 792 288 800 c 0
 288 819 284 832 268 842 c 0
 225 868 170 869 152 869 c 0
 149 869 146 869 146 869 c 1
 146 874 170 995 294 1042 c 0
 333 1058 365 1064 392 1064 c 0
 463 1064 512 1027 599 1021 c 0
 601 1021 604 1021 605 1021 c 0
 653 1021 671 1053 677 1056 c 1
 696 975 l 1xf8
282 143 m 0
 253 143 235 116 235 94 c 0
 235 78 244 64 265 64 c 0
 294 64 313 90 313 113 c 0xf4
 313 129 303 143 282 143 c 0
EndSplineSet
EndChar
StartChar: uni0E43
Encoding: 227 3651 193
OldEncoding: 3651
Width: 452
Flags: W
HStem: -2 66<308 334> 143 70<349 363> 723 53<230 244> 881 48<238 262> 1007 67<357 375>
VStem: 135 75<813 830> 210 92<90 97> 288 54<838 858> 382 70<113 132> 441 100<925 943>
Fore
441 83 m 0xfc40
 441 83 l 0
 422 31 377 2 317 -2 c 0
 308 -2 l 0
 233 -2 210 43 210 92 c 0
 210 104 212 118 215 130 c 2
 330 670 l 2
 340 719 356 750 385 785 c 0
 415 823 441 884 441 933 c 0
 441 969 428 996 389 1004 c 0
 377 1006 366 1007 357 1007 c 0
 268 1007 238 932 238 929 c 1
 239 929 248 932 262 932 c 0
 277 932 297 929 319 917 c 0
 336 907 342 884 342 858 c 0
 342 814 322 762 287 740 c 0
 267 728 247 723 230 723 c 0
 175 723 135 774 135 828 c 0
 135 832 136 837 136 842 c 0
 150 972 239 1068 372 1074 c 0
 377 1074 382 1074 388 1074 c 0
 468 1074 524 1039 536 975 c 0
 540 964 541 952 541 941 c 0xfd40
 541 892 517 840 494 802 c 0
 466 753 460 725 449 677 c 2
 349 212 l 1
 349 212 356 213 363 213 c 0
 374 213 391 210 412 201 c 0
 437 189 452 164 452 132 c 0xfc80
 452 118 449 101 441 83 c 0xfc40
242 776 m 0
 242 776 l 0
 271 776 288 809 288 838 c 0
 288 861 279 881 256 881 c 0
 227 881 210 848 210 819 c 0
 210 796 219 776 242 776 c 0
351 143 m 0
 320 143 302 116 302 95 c 0xfc
 302 78 313 64 334 64 c 0
 363 64 382 90 382 113 c 0xfc80
 382 129 372 143 351 143 c 0
EndSplineSet
EndChar
StartChar: uni0E44
Encoding: 228 3652 194
OldEncoding: 3652
Width: 458
Flags: W
HStem: -2 68<300 325> 144 69<342 356> 791 285<213 251>
VStem: 202 91<90 99> 372 74<115 130>
Fore
435 83 m 0
 435 83 l 0
 414 31 371 2 310 -2 c 0
 300 -2 l 0
 225 -2 202 43 202 92 c 0
 202 104 204 118 207 130 c 1
 331 710 l 1
 340 751 357 776 383 815 c 0
 408 852 435 898 435 923 c 0
 435 930 432 937 426 940 c 0
 423 941 418 943 415 943 c 0
 397 943 377 915 346 878 c 0
 317 848 282 791 251 791 c 0
 250 791 250 791 248 791 c 0
 205 794 221 861 190 937 c 0
 185 949 175 952 166 952 c 0
 159 952 155 950 153 950 c 1
 204 1076 l 1
 205 1076 208 1076 213 1076 c 0
 225 1076 250 1073 264 1047 c 0
 284 1010 270 937 293 933 c 0
 294 933 l 0
 331 933 388 1062 472 1062 c 0
 478 1062 486 1061 492 1059 c 0
 532 1048 552 1027 552 989 c 0
 552 976 550 963 546 946 c 0
 529 881 498 842 472 782 c 0
 458 746 454 736 448 708 c 2
 342 212 l 1
 342 212 348 213 356 213 c 0
 366 213 383 210 405 201 c 0
 429 189 446 164 446 130 c 0
 446 116 443 100 435 83 c 0
342 144 m 0
 311 144 293 118 293 97 c 0
 293 80 303 66 325 66 c 0
 354 66 372 92 372 115 c 0
 372 130 363 144 342 144 c 0
EndSplineSet
EndChar
StartChar: uni0E45
Encoding: 229 3653 195
OldEncoding: 3653
Width: 308
Flags: W
HStem: 504 91<123 155>
VStem: -78 81<446 475> 205 120<415 438>
Fore
3 446 m 1
 -78 475 l 1
 -78 477 -41 595 155 595 c 0
 287 595 325 521 325 438 c 0
 325 415 322 391 317 368 c 2
 198 -192 l 1
 80 -192 l 1
 198 357 l 2
 202 377 205 397 205 417 c 0
 205 464 187 504 123 504 c 0
 29 503 3 448 3 446 c 1
EndSplineSet
EndChar
StartChar: uni0E46
Encoding: 230 3654 196
OldEncoding: 3654
Width: 675
Flags: W
HStem: -236 81<314 371> 262 64<303 322> 385 46<323 334> 520 78<549 570>
VStem: 205 94<349 374> 357 65<360 372> 581 121<467 484>
Fore
621 84 m 1
 621 84 l 0
 598 -18 587 -104 506 -172 c 0
 434 -231 372 -236 371 -236 c 1
 314 -155 l 1
 319 -155 391 -138 426 -109 c 0
 466 -75 475 -41 484 2 c 2
 576 431 l 2
 579 445 581 457 581 468 c 0
 581 475 581 483 576 490 c 0
 566 512 550 520 549 520 c 2
 449 463 l 1
 377 515 l 2
 376 515 348 506 334 478 c 0
 325 457 323 445 323 438 c 0
 323 434 323 432 323 431 c 1
 325 431 339 435 356 435 c 0
 376 435 399 429 414 403 c 0
 418 394 422 383 422 372 c 0
 422 328 383 270 322 264 c 0
 316 264 310 262 303 262 c 0
 235 262 205 314 205 374 c 0
 205 406 215 441 228 472 c 0
 261 541 319 587 392 598 c 1
 466 544 l 1
 570 598 l 1
 576 598 632 598 665 566 c 0
 694 538 702 510 702 484 c 0
 702 464 697 446 694 434 c 2
 621 84 l 1
334 385 m 0
 313 385 299 365 299 349 c 0
 299 337 305 326 322 326 c 0
 343 326 357 346 357 362 c 0
 357 374 351 385 334 385 c 0
EndSplineSet
EndChar
StartChar: uni0E47
Encoding: 231 3655 197
OldEncoding: 3655
Width: 0
Flags: HW
HStem: 673 113<-235 -222>
AnchorPoint: "AboveMark" -169 659 mark 0
AnchorPoint: "AboveBase" 42 613 mark 0
Fore
208 1093 m 1
 208 1093 l 1
 208 1093 182 949 64 930 c 0
 -28 915 -72 946 -158 941 c 0
 -212 937 -244 891 -253 845 c 0
 -262 802 -235 786 -233 786 c 1
 -233 789 -218 840 -173 851 c 0
 -127 863 -89 805 -89 805 c 1
 -89 805 -63 869 6 868 c 0
 60 866 84 820 64 754 c 0
 49 705 9 676 -34 674 c 0
 -113 671 -124 762 -169 759 c 0
 -218 756 -221 674 -222 673 c 1
 -285 674 -337 704 -348 765 c 0
 -360 855 -311 972 -208 1002 c 0
 -124 1029 -21 992 54 1012 c 0
 95 1022 97 1061 109 1093 c 1
 208 1093 l 1
-6 808 m 0
 -43 809 -66 737 -20 737 c 0
 21 737 31 806 -6 808 c 0
EndSplineSet
EndChar
StartChar: uni0E48
Encoding: 232 3656 198
OldEncoding: 3656
Width: 0
Flags: HW
AnchorPoint: "AboveMark" 64 988 mark 0
Fore
11 992 m 1
 54 1194 l 1
 164 1194 l 1
 121 992 l 1
 11 992 l 1
EndSplineSet
Substitution: 0 65534 'loww' uni0E48.low
Substitution: 0 65534 'amni' uni0E4D
EndChar
StartChar: uni0E49
Encoding: 233 3657 199
OldEncoding: 3657
Width: 0
Flags: HW
HStem: 1058 47<-81 -64> 1185 49<-51 -42>
AnchorPoint: "AboveMark" 13 988 mark 0
Fore
-112 1021 m 0
 -112 1021 l 0
 -87 1047 -81 1058 -81 1058 c 1
 -106 1058 -141 1071 -149 1104 c 0
 -161 1156 -115 1231 -44 1234 c 0
 14 1235 49 1205 46 1156 c 0
 43 1099 3 1055 -17 1042 c 1
 12 1045 41 1055 75 1070 c 0
 116 1087 138 1102 166 1124 c 0
 221 1166 258 1222 258 1222 c 1
 230 1088 l 1
 230 1088 164 1033 67 1004 c 0
 -15 979 -121 973 -169 979 c 1
 -169 979 -138 995 -112 1021 c 0
-64 1105 m 0
 -12 1105 3 1185 -51 1185 c 0
 -103 1185 -116 1105 -64 1105 c 0
EndSplineSet
Substitution: 0 65534 'loww' uni0E49.low
Substitution: 0 65534 'amni' uni0E4D
EndChar
StartChar: uni0E4A
Encoding: 234 3658 200
OldEncoding: 3658
Width: 0
Flags: HW
HStem: 1090 27<-104 -86 -104 -80> 1151 55<5 18>
AnchorPoint: "AboveMark" -13 988 mark 0
Fore
-92 1153 m 0
 -92 1153 l 0
 -103 1136 -104 1120 -104 1117 c 1
 -103 1117 -69 1133 -40 1117 c 0
 -5 1097 -17 1033 -51 1007 c 0
 -101 969 -161 993 -173 1039 c 0
 -189 1104 -143 1225 -66 1239 c 0
 -6 1251 17 1206 18 1206 c 0
 20 1206 61 1242 104 1242 c 0
 144 1242 178 1214 170 1156 c 0
 167 1108 135 1068 135 1068 c 1
 139 1070 176 1087 207 1128 c 0
 238 1168 253 1217 256 1235 c 1
 330 1194 l 1
 330 1194 284 1088 182 1036 c 0
 116 1004 29 992 5 992 c 1
 9 993 61 1022 86 1087 c 0
 103 1131 104 1177 66 1177 c 0
 43 1177 5 1151 5 1151 c 2
 3 1151 -20 1179 -54 1179 c 0
 -72 1179 -83 1166 -92 1153 c 0
-100 1024 m 0
 -55 1024 -41 1090 -86 1090 c 0
 -130 1090 -144 1024 -100 1024 c 0
EndSplineSet
Substitution: 0 65534 'loww' uni0E4A.low
Substitution: 0 65534 'amni' uni0E4D
EndChar
StartChar: uni0E4B
Encoding: 235 3659 201
OldEncoding: 3659
Width: 0
Flags: HW
HStem: 1064 69<-64 25 152 239>
AnchorPoint: "AboveMark" 64 988 mark 0
Fore
58 1226 m 1
 172 1226 l 1
 152 1133 l 1
 253 1133 l 1
 239 1064 l 1
 138 1064 l 1
 120 984 l 1
 6 984 l 1
 25 1064 l 1
 -77 1064 l 1
 -63 1133 l 1
 38 1133 l 1
 58 1226 l 1
EndSplineSet
Substitution: 0 65534 'loww' uni0E4B.low
Substitution: 0 65534 'amni' uni0E4D
EndChar
StartChar: uni0E4C
Encoding: 236 3660 202
OldEncoding: 3660
Width: 0
Flags: HW
HStem: 1009 39<95 99>
AnchorPoint: "AboveMark" 75 919 mark 0
Fore
156 1076 m 0
 156 1076 l 0
 106 1071 97 1048 97 1048 c 1
 100 1048 187 1048 169 958 c 0
 150 881 34 858 0 915 c 0
 -31 963 0 1052 63 1090 c 0
 126 1128 172 1116 222 1150 c 0
 250 1165 259 1209 259 1214 c 1
 340 1214 l 1
 340 1209 322 1151 291 1125 c 1
 261 1101 227 1082 156 1076 c 0
77 924 m 0
 132 924 150 1009 95 1009 c 0
 41 1009 23 924 77 924 c 0
EndSplineSet
Substitution: 0 65534 'loww' uni0E4C.low
EndChar
StartChar: uni0E4D
Encoding: 237 3661 203
OldEncoding: 3661
Width: 0
Flags: HW
HStem: 696 66<-49 -33> 877 69<-13 3>
AnchorPoint: "AboveMark" 12 988 basemark 0
AnchorPoint: "AboveBase" 42 613 mark 0
Fore
3 946 m 0
 3 946 l 0
 170 946 118 696 -49 696 c 0
 -216 696 -164 946 3 946 c 0
-35 762 m 0
 41 762 66 877 -11 877 c 0
 -87 877 -112 762 -35 762 c 0
EndSplineSet
Substitution: 0 65534 'high' uni0E4D.high
Substitution: 0 65534 'G006' uni0E4B
Substitution: 0 65534 'G005' uni0E4A
Substitution: 0 65534 'G004' uni0E49
Substitution: 0 65534 'G003' uni0E48
EndChar
StartChar: uni0E4E
Encoding: 238 3662 204
OldEncoding: 3662
Width: 0
Flags: HW
HStem: 717 69<-46 0> 878 63<97 127> 1018 61<148 172>
AnchorPoint: "AboveBase" 42 613 mark 0
Fore
-14 926 m 1
 -29 940 -34 958 -29 983 c 2
 -29 984 l 1
 5 1061 104 1078 172 1079 c 0
 213 1081 233 1073 265 1056 c 1
 196 1010 l 1
 192 1010 l 2
 190 1010 182 1010 172 1013 c 0
 167 1015 161 1016 152 1018 c 0
 126 1018 84 1006 74 973 c 0
 72 966 75 958 84 952 c 0
 95 946 110 941 127 941 c 2
 149 941 l 1
 106 878 l 1
 97 878 l 2
 61 878 -20 866 -31 815 c 0
 -35 796 -18 786 0 786 c 0
 29 786 41 792 64 812 c 1
 110 766 l 1
 57 728 14 717 -46 717 c 0
 -106 717 -161 739 -146 808 c 0
 -132 869 -71 914 -14 926 c 1
EndSplineSet
EndChar
StartChar: uni0E4F
Encoding: 239 3663 205
OldEncoding: 3663
Width: 596
Flags: W
HStem: 0 34<283 321> 109 35<315 332> 360 37<363 382> 472 34<377 413>
VStem: 92 35<191 219> 202 40<217 229> 463 35<271 289> 573 36<288 321>
Fore
403 506 m 0
 403 506 l 0
 546 506 609 415 609 311 c 0
 609 169 490 0 296 0 c 0
 155 0 92 90 92 195 c 0
 92 337 208 506 403 506 c 0
303 34 m 0
 303 34 l 0
 472 34 573 179 573 303 c 0
 573 394 518 472 395 472 c 0
 228 472 127 326 127 202 c 0
 127 112 181 34 303 34 c 0
380 397 m 0
 380 397 l 0
 270 397 202 300 202 219 c 0
 202 159 238 109 319 109 c 0
 431 109 498 205 498 287 c 0
 498 345 461 397 380 397 c 0
376 360 m 0
 437 360 463 322 463 277 c 0
 463 216 412 144 330 144 c 0
 268 144 242 182 242 227 c 0
 242 288 293 360 376 360 c 0
EndSplineSet
EndChar
StartChar: uni0E50
Encoding: 240 3664 206
OldEncoding: 3664
Width: 697
Flags: W
HStem: -9 76<335 369> 353 76<399 433>
VStem: 112 113<158 177> 541 115<246 264>
Fore
118 212 m 0
 118 212 l 0
 147 343 261 429 431 429 c 0
 576 429 656 365 656 262 c 0
 656 247 655 230 650 212 c 0
 622 78 510 -9 342 -9 c 0
 337 -9 l 0
 187 -8 112 55 112 159 c 0
 112 176 115 193 118 212 c 0
414 353 m 0
 308 353 247 290 230 210 c 0
 227 198 225 185 225 175 c 0
 225 112 265 67 349 67 c 0
 455 67 520 127 536 210 c 0
 540 224 541 236 541 248 c 0
 541 308 503 353 414 353 c 0
EndSplineSet
EndChar
StartChar: uni0E51
Encoding: 241 3665 207
OldEncoding: 3665
Width: 697
Flags: W
HStem: -3 64<290 313> 189 53<397 411> 356 67<430 462>
VStem: 136 106<136 164> 303 57<139 154> 425 61<156 172> 573 115<232 253>
Fore
684 204 m 0
 684 204 l 0
 662 81 569 -20 486 -55 c 1
 432 -6 l 1
 435 -5 543 18 570 204 c 0
 572 216 573 227 573 239 c 0
 573 302 541 354 445 356 c 0
 345 356 274 290 250 204 c 0
 245 187 242 170 242 152 c 0
 242 106 261 61 313 61 c 0
 313 61 314 61 316 61 c 0
 340 63 339 67 357 77 c 1
 323 81 303 107 303 139 c 0
 303 146 303 152 305 158 c 0
 314 204 356 242 411 242 c 0
 412 242 415 242 417 242 c 0
 468 241 486 210 486 172 c 0
 486 158 483 141 478 126 c 0
 460 67 389 -3 290 -3 c 0
 285 -3 282 -3 277 -3 c 0
 190 2 136 51 136 139 c 0
 136 159 138 182 144 205 c 0
 175 331 279 423 460 423 c 0
 624 423 688 349 688 251 c 0
 688 236 687 221 684 204 c 0
399 189 m 0
 374 189 360 167 360 150 c 0
 360 136 368 126 385 126 c 0
 409 126 425 147 425 164 c 0
 425 178 417 189 399 189 c 0
EndSplineSet
EndChar
StartChar: uni0E52
Encoding: 242 3666 208
OldEncoding: 3666
Width: 697
Flags: W
HStem: 0 77<308.184 506> 123 49<422 439> 224 49<448 460> 351 71<483 492>
VStem: 150 117<103 126> 216 120<449 477> 339 78<192 225> 469 52<204 219> 615 118<315 337>
Fore
696 144 m 1xfb80
 696 144 l 0
 688 109 677 74 645 43 c 0
 615 14 581 0 540 0 c 2
 267 0 l 2
 225 0 196 9 172 37 c 0
 156 55 150 78 150 103 c 0xfb80
 150 116 152 130 155 146 c 2
 210 403 l 2
 213 417 216 432 216 449 c 0
 216 464 213 480 202 492 c 0
 179 523 135 524 121 524 c 0
 118 524 116 524 116 524 c 1
 199 612 l 1
 242 610 273 592 300 566 c 0
 326 541 336 510 336 477 c 0xf780
 336 454 333 431 326 405 c 2
 277 173 l 2
 273 155 267 139 267 126 c 0
 267 120 268 113 271 107 c 0
 279 89 297 77 319 77 c 2
 484 77 l 2
 507 77 526 78 550 97 c 0
 566 109 575 127 578 147 c 2
 610 296 l 2
 612 305 615 317 615 326 c 0
 615 342 610 353 598 353 c 0
 578 353 556 330 553 311 c 1
 512 311 l 1
 513 314 513 317 513 320 c 0
 513 337 501 351 483 351 c 0
 460 351 449 331 443 314 c 0
 432 288 432 270 432 268 c 1
 441 271 451 273 460 273 c 0
 475 273 492 268 506 258 c 0
 517 250 521 236 521 219 c 0
 521 187 500 144 463 130 c 0
 448 124 434 123 422 123 c 0
 372 123 339 161 339 225 c 0
 339 242 342 262 346 282 c 0
 369 369 417 417 483 422 c 0
 492 422 l 0
 540 422 550 388 550 383 c 0
 550 383 l 0
 550 383 l 0
 550 383 l 0
 550 385 579 422 642 422 c 0
 645 422 647 422 650 422 c 0
 705 422 733 385 733 333 c 0
 733 323 733 311 730 300 c 2
 696 144 l 1xfb80
448 224 m 0
 428 224 417 207 417 192 c 0
 417 181 423 172 437 172 c 0
 457 172 469 189 469 204 c 0
 469 215 463 224 448 224 c 0
EndSplineSet
EndChar
StartChar: uni0E53
Encoding: 243 3667 209
OldEncoding: 3667
Width: 697
Flags: W
HStem: -3 51<213 226> 113 51<238 254> 337 86<331 351>
VStem: 124 74<72 97> 124 193<97 116> 264 53<86 103> 584 120<268 287>
Fore
694 202 m 0xf2
 694 202 l 0
 665 63 622 5 619 0 c 1
 503 0 l 1
 512 12 549 75 575 195 c 0
 581 218 584 245 584 270 c 0
 584 305 575 334 546 336 c 0
 544 336 l 0
 507 336 487 290 480 256 c 2
 426 0 l 1
 326 0 l 1
 380 256 l 2
 382 264 383 273 383 282 c 0
 383 310 371 337 343 337 c 0
 342 337 l 0
 299 337 277 291 264 239 c 0xf6
 253 199 251 175 251 167 c 0
 251 166 251 164 251 164 c 1
 251 164 253 164 254 164 c 0
 267 164 317 161 317 103 c 0xea
 317 98 317 92 316 86 c 0
 305 26 259 -3 213 -3 c 0
 212 -3 212 -3 210 -3 c 0
 146 -2 124 37 124 97 c 0
 124 129 130 167 139 208 c 0
 167 331 239 423 346 423 c 0
 351 423 l 0
 420 423 437 389 449 340 c 1
 484 389 518 423 587 423 c 0
 592 423 l 0
 671 423 704 366 704 285 c 0
 704 259 700 231 694 202 c 0xf2
238 113 m 0
 213 113 198 92 198 72 c 0
 198 60 205 48 224 48 c 0
 248 48 264 69 264 89 c 0
 264 101 256 113 238 113 c 0
EndSplineSet
EndChar
StartChar: uni0E54
Encoding: 244 3668 210
OldEncoding: 3668
Width: 697
Flags: W
HStem: -6 69<253 290> 84 101<401 409> 242 57<422 434> 339 76<530 552> 339 86<382 552> 348 77<380 414>
VStem: 97 115<133 160> 323 65<185 207> 445 55<221 236>
Fore
794 544 m 1xf380
 794 544 l 0
 780 474 734 395 659 362 c 0
 622 345 587 339 552 339 c 0xf380
 509 339 464 346 414 348 c 0
 411 348 406 348 403 348 c 0xe780
 285 348 230 277 215 195 c 0
 213 182 212 170 212 158 c 0
 212 110 230 63 290 63 c 0
 303 63 320 66 339 72 c 0
 379 83 403 84 405 84 c 0
 400 84 323 113 323 185 c 0
 323 190 323 195 325 201 c 0
 330 236 360 297 431 299 c 0
 432 299 432 299 434 299 c 0
 480 299 500 271 500 236 c 0
 500 230 500 224 498 218 c 0
 486 159 437 146 437 146 c 1
 438 143 438 116 474 104 c 0
 507 92 526 92 555 84 c 0
 590 75 599 54 601 54 c 1
 544 -6 l 1
 544 -6 523 18 463 20 c 0
 461 20 460 20 460 20 c 0
 395 20 320 -6 253 -6 c 0
 224 -6 196 -2 170 12 c 0
 130 32 97 63 97 133 c 0
 97 149 98 166 101 185 c 0
 123 311 205 395 293 415 c 0xf380
 325 423 354 425 382 425 c 0xeb80
 437 425 484 415 530 415 c 0
 549 415 567 417 586 422 c 0
 665 441 693 521 713 595 c 1
 794 544 l 1xf380
422 242 m 0
 400 242 388 224 388 207 c 0
 388 195 394 185 409 185 c 0
 431 185 445 204 445 221 c 0
 445 231 438 242 422 242 c 0
EndSplineSet
EndChar
StartChar: uni0E55
Encoding: 245 3669 211
OldEncoding: 3669
Width: 697
Flags: W
HStem: -8 72<222 264> 86 101<371 383> 244 55<395 404> 380 77<558 578> 546 55<466 483>
VStem: 67 120<133 156> 342 67<474 486> 417 55<218 239> 509 67<507 521>
Fore
803 553 m 1
 803 553 l 0
 802 550 779 480 730 440 c 0
 670 391 605 380 558 380 c 0
 515 380 486 389 484 389 c 1
 484 389 463 360 388 357 c 0
 253 353 204 284 190 196 c 0
 189 184 187 170 187 156 c 0
 187 109 204 64 264 64 c 0
 277 64 294 66 313 72 c 0
 351 83 369 86 371 86 c 0
 366 86 296 113 296 184 c 0
 296 190 296 195 297 201 c 0
 303 236 331 297 403 299 c 0
 405 299 405 299 406 299 c 0
 454 299 472 273 472 239 c 0
 472 231 472 225 471 218 c 0
 460 159 409 146 409 146 c 1
 411 143 412 116 446 104 c 0
 480 92 498 92 527 86 c 0
 569 78 575 55 576 55 c 1
 517 -5 l 1
 517 -5 480 18 435 20 c 0
 369 20 293 -8 222 -8 c 0
 195 -8 167 -3 141 9 c 0
 101 29 67 63 67 133 c 0
 67 149 71 167 74 187 c 0
 95 307 156 379 242 406 c 0
 299 423 343 425 359 425 c 0
 363 425 l 1
 363 425 342 441 342 475 c 0
 342 489 346 506 356 526 c 0
 382 579 432 601 483 601 c 0
 487 601 l 0
 540 599 573 575 576 532 c 0
 576 529 576 524 576 521 c 0
 576 480 553 458 553 458 c 1
 555 458 564 457 578 457 c 0
 601 457 636 461 664 490 c 0
 705 532 717 601 717 601 c 1
 803 553 l 1
448 448 m 0
 448 448 l 0
 486 448 509 480 509 509 c 0
 509 529 497 546 469 546 c 0
 432 546 409 512 409 484 c 0
 409 464 420 448 448 448 c 0
395 244 m 0
 374 244 360 225 360 208 c 0
 360 198 366 187 383 187 c 0
 405 187 417 205 417 222 c 0
 417 235 411 244 395 244 c 0
EndSplineSet
EndChar
StartChar: uni0E56
Encoding: 246 3670 212
OldEncoding: 3670
Width: 697
Flags: W
HStem: -3 67<421 442> 189 55<336 353> 363 65<480 512>
VStem: 253 84<380 383> 362 64<162 175> 609 113<243 264>
Fore
681 124 m 0
 681 124 l 0
 618 26 530 -3 425 -3 c 0
 415 -3 l 0
 323 -2 228 31 228 120 c 0
 228 124 230 129 230 133 c 0
 236 185 276 244 353 244 c 0
 354 244 354 244 356 244 c 0
 405 244 426 213 426 175 c 0
 426 167 425 158 423 149 c 0
 409 97 369 78 369 78 c 1
 372 77 399 64 437 64 c 0
 463 64 492 69 524 87 c 0
 582 120 609 201 609 258 c 0
 609 262 l 0
 605 314 573 363 481 363 c 0
 472 363 l 0
 408 360 351 340 305 293 c 1
 247 293 l 1
 247 293 253 334 253 380 c 0
 253 412 250 446 239 471 c 0
 201 550 153 556 153 556 c 1
 262 619 l 1
 265 619 311 589 331 517 c 0
 339 486 342 458 342 435 c 0
 342 405 337 385 337 383 c 1
 342 386 391 428 512 428 c 0
 523 428 535 428 547 426 c 0
 681 418 722 342 722 264 c 0
 722 212 702 158 681 124 c 0
336 189 m 0
 310 189 294 167 294 149 c 0
 294 136 303 124 322 124 c 0
 346 124 362 146 362 164 c 0
 362 178 354 189 336 189 c 0
EndSplineSet
EndChar
StartChar: uni0E57
Encoding: 247 3671 213
OldEncoding: 3671
Width: 697
Flags: W
HStem: -5 56<150 170> -5 157<143 150> 113 54<184 201> 270 84<333 333.511> 354 68<230 243>
VStem: 34 107<150 182> 208 60<90 104> 458 103<289 308>
Fore
860 570 m 1x1f
 860 570 l 1
 860 570 814 555 786 469 c 0
 748 343 740 253 664 150 c 0
 569 23 461 -3 331 -3 c 1
 331 -2 385 44 437 181 c 0
 448 207 458 253 458 290 c 0
 458 325 448 354 418 354 c 0
 369 353 342 273 340 270 c 1
 287 270 l 1
 287 271 288 279 288 290 c 0
 288 314 282 353 241 354 c 0
 239 354 l 0
 199 354 167 302 155 259 c 0
 144 221 141 195 141 178 c 0
 141 161 144 153 144 152 c 1x5f
 146 152 170 167 201 167 c 0
 213 167 227 166 241 158 c 0
 259 147 268 127 268 104 c 0
 268 60 236 6 173 -3 c 0
 166 -5 158 -5 150 -5 c 0xbf
 71 -5 34 60 34 150 c 0
 34 170 35 190 38 210 c 0
 55 313 124 417 231 422 c 0
 241 422 l 0
 325 422 333 359 333 354 c 1
 333 354 365 420 437 423 c 0
 449 423 l 0
 530 423 561 371 561 308 c 0
 561 300 561 293 559 284 c 0
 544 146 484 101 484 101 c 1
 489 104 547 104 601 210 c 0
 651 310 655 372 685 481 c 0
 719 596 782 624 783 627 c 1
 860 570 l 1x1f
184 113 m 0xbf
 159 113 146 92 146 75 c 0
 146 61 153 51 170 51 c 0
 193 51 208 72 208 90 c 0
 208 103 201 113 184 113 c 0xbf
EndSplineSet
EndChar
StartChar: uni0E58
Encoding: 248 3672 214
OldEncoding: 3672
Width: 697
Flags: W
HStem: -3 66<492 509> 83 93<328 342> 213 54<589 601> 343 72<512 549> 351 72<385 414>
VStem: 110 118<134 158> 487 65<156 170> 619 65<177 196>
Fore
823 559 m 1xf7
 823 559 l 1
 823 559 774 399 645 357 c 0
 613 346 581 343 549 343 c 0xf7
 501 343 455 351 414 351 c 0
 388 351 365 348 342 340 c 0
 284 320 250 267 235 196 c 0
 230 176 228 159 228 146 c 0
 228 100 248 90 248 90 c 1
 248 94 268 172 328 176 c 0
 337 176 l 0
 395 176 405 115 481 71 c 0
 490 64 500 63 507 63 c 0
 533 63 547 87 550 87 c 0
 547 87 487 103 487 156 c 0
 487 161 487 166 489 170 c 0
 495 216 543 267 601 267 c 0
 612 267 624 265 636 261 c 0
 671 247 684 218 684 185 c 0
 684 147 664 101 636 71 c 0
 598 25 544 -3 492 -3 c 0
 478 -3 464 0 452 3 c 0
 382 23 372 83 333 83 c 0
 330 83 326 81 323 81 c 0
 284 75 277 2 277 0 c 1
 276 0 261 -5 241 -5 c 0
 204 -5 150 8 121 75 c 0
 115 92 110 113 110 136 c 0
 110 231 167 368 287 408 c 0
 323 420 356 423 385 423 c 0xef
 428 423 466 415 512 415 c 0
 532 415 553 417 578 422 c 0
 704 441 737 622 739 624 c 1
 823 559 l 1xf7
593 213 m 0
 567 213 552 190 552 170 c 0
 552 156 559 144 578 144 c 0
 604 144 619 167 619 187 c 0
 619 201 612 213 593 213 c 0
EndSplineSet
EndChar
StartChar: uni0E59
Encoding: 249 3673 215
OldEncoding: 3673
Width: 697
Flags: W
HStem: -3 67<220 235> 184 52<312 325> 320 79<665 675> 320 105<566 673> 360 66<313 336>
VStem: 67 106<137 161> 224 55<126 139> 336 56<153 170>
Fore
843 587 m 1xe7
 843 587 l 1
 843 587 819 374 714 330 c 0
 699 323 685 320 673 320 c 0xe7
 636 320 610 342 589 342 c 0
 581 342 575 340 569 336 c 0
 544 322 529 274 529 230 c 0
 529 218 530 205 533 195 c 0
 558 94 602 74 607 72 c 1
 535 -3 l 1
 535 -3 474 18 452 155 c 0
 437 251 417 360 320 360 c 0
 319 360 316 360 314 360 c 0
 241 357 201 284 187 233 c 0
 179 201 173 172 173 147 c 0
 173 116 181 92 198 77 c 0
 208 67 218 64 227 64 c 0
 239 64 248 72 250 72 c 1
 233 84 224 104 224 126 c 0
 224 139 227 155 233 170 c 0
 250 212 284 236 325 236 c 0
 330 236 l 0
 376 236 392 207 392 170 c 0
 392 152 388 130 380 110 c 0
 356 41 299 -3 222 -3 c 0
 219 -3 218 -3 215 -3 c 0
 123 0 67 58 67 153 c 0
 67 175 71 199 77 224 c 0
 103 334 193 412 285 423 c 0
 300 425 316 426 328 426 c 0xcf
 468 426 483 320 483 320 c 1
 484 323 489 405 546 422 c 0
 553 423 559 425 566 425 c 0xd7
 604 425 635 399 665 399 c 0
 671 399 676 400 682 402 c 0
 714 412 727 475 736 523 c 0
 751 586 751 624 751 627 c 1
 843 587 l 1xe7
334 147 m 0
 336 152 336 156 336 159 c 0
 336 175 326 184 314 184 c 0
 302 184 285 173 281 150 c 0
 279 146 279 143 279 139 c 0
 279 123 290 113 302 113 c 0
 314 113 330 124 334 147 c 0
EndSplineSet
EndChar
StartChar: uni0E5A
Encoding: 250 3674 216
OldEncoding: 3674
Width: 797
Flags: W
HStem: -18 82<527 553> 339 75<285 322> 570 45<274 283>
VStem: 307 53<538 548>
Fore
273 570 m 0
 273 570 l 0
 259 570 250 567 239 558 c 0
 231 550 227 541 222 529 c 0
 222 526 222 524 222 521 c 0
 222 513 224 506 227 500 c 0
 233 492 242 489 256 487 c 0
 268 487 279 492 288 500 c 0
 299 509 303 518 305 529 c 0
 307 533 307 536 307 540 c 0
 307 547 305 553 300 558 c 0
 296 566 287 570 273 570 c 0
828 494 m 0
 822 461 763 176 745 116 c 0
 728 55 691 26 645 3 c 0
 605 -17 563 -18 553 -18 c 0
 552 -18 552 -18 552 -18 c 1
 524 64 l 1
 524 64 526 64 527 64 c 0
 540 64 581 66 609 95 c 0
 636 123 647 182 647 182 c 1
 671 296 699 414 711 478 c 0
 711 481 711 483 711 486 c 0
 711 506 694 517 668 517 c 0
 645 517 624 497 609 484 c 1
 546 185 l 2
 536 143 524 109 512 84 c 0
 500 61 477 38 441 21 c 0
 402 3 362 -5 320 -6 c 1
 285 80 l 1
 336 80 374 90 399 113 c 0
 408 123 415 138 420 161 c 0
 422 166 423 172 423 179 c 1
 426 196 l 1
 471 403 l 2
 471 402 463 395 448 383 c 1
 434 374 414 363 389 354 c 0
 366 345 336 339 302 339 c 0
 299 339 297 339 294 339 c 0
 247 339 207 354 176 376 c 0
 146 399 132 428 132 466 c 0
 132 471 132 474 132 478 c 1
 141 518 156 550 182 575 c 0
 205 599 236 613 274 615 c 0
 276 615 279 615 281 615 c 0
 310 615 331 604 345 589 c 0
 354 576 360 563 360 546 c 0
 360 540 359 533 357 526 c 0
 356 520 354 512 349 501 c 0
 337 475 320 458 297 451 c 0
 276 443 258 440 244 438 c 1
 245 435 251 431 262 423 c 0
 271 417 284 414 303 414 c 0
 310 414 319 414 336 417 c 0
 369 423 394 432 412 446 c 0
 431 460 443 469 461 494 c 0
 477 510 486 526 497 553 c 0
 506 576 506 575 513 595 c 1
 524 613 546 621 566 621 c 0
 592 621 618 607 618 586 c 0
 618 584 618 584 618 582 c 1
 679 613 681 615 723 619 c 1
 817 616 837 575 837 540 c 0
 837 518 829 498 828 494 c 0
EndSplineSet
EndChar
StartChar: uni0E5B
Encoding: 251 3675 217
OldEncoding: 3675
Width: 1109
Flags: W
HStem: 38 74<242 263> 172 82<261 277> 230 66<947 1052> 340 49<272 282> 483 73<312 330>
VStem: 75 74<228 254> 187 58<271 284> 287 58<312 327> 392 72<401 418>
Fore
319 250 m 0xdf80
 319 250 l 0
 356 274 379 326 388 365 c 0
 391 379 392 391 392 403 c 0
 392 449 369 483 314 483 c 0
 288 483 258 469 222 431 c 0
 189 395 166 351 153 299 c 0
 150 281 149 264 149 248 c 0
 149 216 156 189 170 164 c 0
 193 129 222 112 259 112 c 0
 325 112 379 158 415 219 c 0
 464 294 526 441 566 521 c 1
 605 521 l 1
 609 320 l 1
 677 498 l 1
 719 498 l 1
 719 313 l 1
 806 478 l 1
 826 325 l 1
 887 443 l 1
 894 423 929 296 952 296 c 0
 975 296 990 294 1004 294 c 0
 1009 294 1012 294 1015 294 c 0
 1058 294 1090 294 1111 294 c 2
 1162 294 l 1
 1150 235 l 1
 1150 235 1128 233 1078 233 c 0
 1044 231 1030 231 1024 231 c 2
 1016 231 l 1
 1012 231 l 2
 998 230 984 230 947 230 c 0xbf80
 915 230 891 233 875 259 c 2
 874 261 l 2
 874 261 l 0
 874 262 877 264 878 265 c 1
 874 265 869 268 869 271 c 1
 776 95 l 1
 763 258 l 1
 670 89 l 1
 651 254 l 1
 581 72 l 1
 540 72 l 1
 540 308 l 1
 475 182 403 38 242 38 c 0
 124 38 75 132 75 231 c 0
 75 254 78 277 83 300 c 0
 97 371 129 431 175 480 c 0
 222 530 274 556 330 556 c 0
 423 556 464 497 464 418 c 0
 464 402 463 383 458 363 c 0
 443 285 382 172 277 172 c 0
 242 172 216 189 201 218 c 0
 192 238 187 258 187 276 c 0
 187 285 189 293 190 300 c 0
 202 360 245 389 282 389 c 0
 316 389 345 366 345 323 c 0
 345 316 343 308 342 300 c 0
 337 284 331 265 319 250 c 0xdf80
247 300 m 0
 245 294 245 288 245 282 c 0
 245 267 250 254 261 254 c 0xdf80
 274 254 281 279 285 300 c 0
 287 307 287 313 287 317 c 0
 287 331 282 340 274 340 c 0
 264 340 251 323 247 300 c 0
EndSplineSet
EndChar
StartChar: uni0E38.low
Encoding: 252 63256 218
OldEncoding: 63256
Width: 0
Flags: W
HStem: -478 58<-308 -288> -354 44<-274 -251>
VStem: -368 52<-414 -395> -248 76<-384 -373>
Fore
-320 -598 m 1
 -294 -477 l 0
 -299 -478 -303 -478 -308 -478 c 0
 -319 -478 -331 -474 -345 -463 c 0
 -360 -451 -368 -434 -368 -414 c 0
 -368 -389 -357 -362 -336 -340 c 0
 -313 -317 -279 -310 -251 -310 c 0
 -239 -310 -227 -311 -219 -314 c 0
 -184 -326 -172 -353 -172 -382 c 0
 -172 -395 -175 -409 -178 -425 c 2
 -215 -598 l 1
 -320 -598 l 1
-288 -420 m 0
 -264 -420 -248 -397 -248 -379 c 0
 -248 -366 -256 -354 -274 -354 c 0
 -300 -354 -316 -376 -316 -395 c 0
 -316 -408 -308 -420 -288 -420 c 0
EndSplineSet
EndChar
StartChar: uni0E39.low
Encoding: 253 63257 219
OldEncoding: 63257
Width: 0
Flags: W
HStem: -494 65<-463 -458> -359 59<-445 -425>
VStem: -547 63<-429 -402> -420 78<-395.502 -379> -291 104<-500 -454>
Fore
-340 -500 m 1
 -340 -500 l 1
 -326 -500 l 0
 -328 -500 l 0
 -330 -500 l 0
 -330 -500 -317 -497 -307 -484 c 0
 -297 -475 -291 -458 -291 -454 c 0
 -291 -452 -291 -452 -293 -452 c 0
 -293 -452 l 0
 -293 -454 l 0
 -293 -454 l 0
 -293 -454 -262 -305 -261 -305 c 2
 -144 -305 l 1
 -144 -305 -187 -498 -187 -500 c 0
 -189 -501 -196 -527 -215 -543 c 0
 -235 -559 -250 -573 -273 -573 c 0
 -277 -573 -282 -573 -288 -573 c 0
 -299 -573 -311 -573 -311 -573 c 1
 -480 -575 l 1
 -461 -494 l 1
 -464 -494 -469 -494 -472 -494 c 0
 -515 -494 -547 -478 -547 -429 c 0
 -547 -420 -546 -411 -544 -400 c 0
 -535 -345 -484 -300 -425 -300 c 0
 -423 -300 -420 -300 -418 -300 c 0
 -362 -303 -342 -337 -342 -382 c 0
 -342 -394 -343 -409 -346 -423 c 2
 -362 -500 l 1
 -340 -500 l 1
-458 -429 m 0
 -434 -429 -420 -406 -420 -386 c 0
 -420 -372 -428 -359 -445 -359 c 0
 -446 -359 l 0
 -471 -360 -484 -383 -484 -402 c 0
 -484 -417 -477 -429 -458 -429 c 0
EndSplineSet
EndChar
StartChar: uni0E3A.low
Encoding: 254 63258 220
OldEncoding: 63258
Width: 0
Flags: W
Fore
-218 -282 m 0
 -172 -282 -150 -311 -150 -346 c 0
 -150 -394 -189 -449 -253 -449 c 0
 -299 -449 -320 -420 -320 -385 c 0
 -320 -337 -282 -282 -218 -282 c 0
EndSplineSet
EndChar
StartChar: DEL
Encoding: 255 63259 221
OldEncoding: 63259
Width: 0
VWidth: 2048
Flags: W
HStem: 0 21G<-460 0>
Fore
-297 766 m 1
 162 766 l 1
 0 0 l 1
 -460 0 l 1
 -297 766 l 1
EndSplineSet
EndChar
StartChar: exclamdown
Encoding: 256 161 222
OldEncoding: 161
Width: 332
VWidth: 2048
Flags: W
Fore
349 518 m 1
 320 382 l 1
 182 382 l 1
 212 518 l 1
 349 518 l 1
279 331 m 1
 238 -31 l 1
 201 -199 l 1
 52 -199 l 1
 89 -31 l 1
 201 331 l 1
 279 331 l 1
EndSplineSet
EndChar
StartChar: cent
Encoding: 257 162 223
OldEncoding: 162
Width: 556
VWidth: 2048
Flags: W
HStem: -12 112<288 323> 423 107<376 432>
VStem: 87 143<178 201>
Fore
448 397 m 1
 296 101 l 1
 317 100 l 2
 319 100 322 100 323 100 c 0
 372 100 411 133 438 199 c 1
 567 176 l 1
 513 51 420 -12 288 -12 c 0
 274 -12 259 -11 241 -8 c 1
 143 -196 l 1
 87 -181 l 1
 182 8 l 1
 118 41 87 98 87 178 c 0
 87 202 90 230 97 261 c 0
 135 441 247 530 432 530 c 1
 440 529 446 529 451 527 c 1
 546 711 l 1
 601 694 l 1
 507 513 l 1
 566 489 596 440 602 365 c 1
 460 342 l 1
 460 351 l 0
 460 369 457 385 448 397 c 1
395 422 m 1
 385 423 l 2
 376 423 l 0
 307 423 261 371 239 268 c 0
 233 242 230 219 230 199 c 0
 230 170 236 147 247 132 c 1
 395 422 l 1
EndSplineSet
EndChar
StartChar: sterling
Encoding: 258 163 224
OldEncoding: 163
Width: 556
VWidth: 2048
Flags: W
HStem: -11 123<403 420> 303 109<93 172 307 437> 619 111<418 446>
VStem: 167 135<451 476> 492 136<532 563>
Fore
517 139 m 1
 546 23 l 1
 494 0 448 -11 405 -11 c 0
 379 -11 340 -5 293 9 c 0
 245 23 210 31 187 31 c 0
 147 31 103 15 55 -12 c 1
 29 106 l 1
 113 159 161 216 169 276 c 1
 172 303 l 1
 71 303 l 1
 94 412 l 1
 170 412 l 1
 169 426 167 440 167 455 c 0
 167 478 170 504 175 529 c 0
 189 589 222 639 276 676 c 0
 328 711 383 730 446 730 c 0
 569 730 628 674 628 563 c 0
 628 555 628 549 628 541 c 1
 492 521 l 1
 492 524 492 529 492 532 c 0
 492 589 469 619 418 619 c 0
 392 619 369 610 348 593 c 0
 328 575 314 553 308 527 c 0
 303 510 302 492 302 474 c 0
 302 454 303 434 308 412 c 1
 460 412 l 1
 437 303 l 1
 308 303 l 1
 303 282 l 2
 296 238 261 185 196 126 c 1
 218 133 236 138 258 138 c 0
 267 138 l 2
 297 136 l 2
 300 136 313 133 336 127 c 0
 372 116 399 112 412 112 c 0
 438 112 474 121 517 139 c 1
EndSplineSet
EndChar
StartChar: currency
Encoding: 259 164 225
OldEncoding: 164
Width: 556
VWidth: 2048
Flags: W
HStem: 139 117<307 331> 454 119<374 397>
VStem: 130 120<313 334> 454 119<377 402>
Fore
185 460 m 1
 133 524 l 1
 233 610 l 1
 285 544 l 1
 320 563 357 573 397 573 c 0
 437 573 471 563 498 544 c 1
 578 610 l 1
 642 527 l 1
 564 463 l 1
 570 443 573 422 573 402 c 0
 573 386 572 371 569 356 c 0
 561 317 544 281 520 250 c 1
 572 184 l 1
 471 101 l 1
 418 167 l 1
 379 149 340 139 307 139 c 0
 267 139 235 149 207 167 c 1
 129 103 l 1
 64 185 l 1
 143 250 l 1
 135 270 130 291 130 313 c 0
 130 326 132 342 135 356 c 0
 144 395 161 431 185 460 c 1
253 356 m 0
 251 348 250 340 250 334 c 0
 250 316 256 299 268 285 c 0
 284 267 303 256 331 256 c 0
 359 256 385 267 408 287 c 0
 431 305 445 328 451 356 c 0
 452 363 454 371 454 379 c 0
 454 395 448 412 437 426 c 0
 423 445 402 454 374 454 c 0
 345 454 320 445 297 426 c 0
 273 406 259 383 253 356 c 0
EndSplineSet
EndChar
StartChar: yen
Encoding: 260 165 226
OldEncoding: 165
Width: 556
VWidth: 2048
Flags: W
HStem: 0 21G<207 343> 133 109<76 235 395 555> 300 108<111 271 486 592>
Fore
235 133 m 1
 52 133 l 1
 77 242 l 1
 259 242 l 1
 271 300 l 1
 89 300 l 1
 112 408 l 1
 241 408 l 1
 152 716 l 1
 303 716 l 1
 357 509 l 2
 363 481 368 458 369 440 c 1
 379 458 392 481 411 509 c 2
 553 716 l 1
 704 716 l 1
 486 408 l 1
 615 408 l 1
 592 300 l 1
 408 300 l 1
 395 242 l 1
 579 242 l 1
 555 133 l 1
 371 133 l 1
 343 0 l 1
 207 0 l 1
 235 133 l 1
EndSplineSet
EndChar
StartChar: brokenbar
Encoding: 261 166 227
OldEncoding: 166
Width: 278
VWidth: 2048
Flags: W
Fore
159 343 m 1
 241 730 l 1
 349 730 l 1
 268 343 l 1
 159 343 l 1
41 -210 m 1
 123 176 l 1
 231 176 l 1
 150 -210 l 1
 41 -210 l 1
EndSplineSet
EndChar
StartChar: section
Encoding: 262 167 228
OldEncoding: 167
Width: 556
VWidth: 2048
Flags: W
HStem: -210 104<238 264> 624 106<400 422>
VStem: 49 138<-57 -21> 187 143<547 569> 346 141<-40 -8> 468 133<563 581>
Fore
601 564 m 1xf4
 464 550 l 1
 466 559 468 567 468 573 c 0xf4
 468 607 446 624 406 624 c 0
 363 624 337 609 331 578 c 0
 331 575 330 572 330 569 c 0
 330 552 342 532 365 510 c 0
 368 507 389 492 428 463 c 0
 483 423 518 392 536 372 c 0
 563 340 575 307 575 271 c 0
 575 261 575 248 572 238 c 0
 559 178 518 126 452 84 c 1
 474 55 487 25 487 -8 c 0
 487 -18 486 -29 483 -40 c 0
 472 -95 441 -139 389 -170 c 0
 346 -196 296 -210 238 -210 c 0
 113 -210 49 -159 49 -57 c 0
 49 -49 49 -41 51 -32 c 1
 187 -17 l 1
 187 -21 l 0
 187 -78 213 -106 264 -106 c 0
 310 -106 337 -86 345 -48 c 0
 345 -44 346 -43 346 -40 c 0xf8
 346 -20 331 2 300 28 c 1
 276 46 251 64 225 83 c 0
 175 120 141 150 124 172 c 0
 101 201 89 235 89 268 c 0
 89 281 90 293 94 305 c 0
 109 376 150 428 218 461 c 1
 198 490 187 518 187 547 c 0
 187 555 189 564 190 572 c 0
 201 622 231 662 279 691 c 0
 319 716 368 730 422 730 c 0
 540 730 601 679 601 579 c 0
 601 573 601 569 601 564 c 1xf4
389 143 m 1
 423 169 443 192 448 215 c 0
 448 218 448 219 448 222 c 0
 448 244 429 270 392 302 c 2
 279 399 l 1
 248 380 230 357 224 333 c 0
 222 328 222 323 222 317 c 0
 222 291 238 264 270 239 c 2
 389 143 l 1
EndSplineSet
EndChar
StartChar: dieresis
Encoding: 263 168 229
OldEncoding: 168
Width: 332
VWidth: 2048
Flags: W
HStem: 610 120<155 251 367 461>
Fore
132 610 m 1
 156 730 l 1
 276 730 l 1
 251 610 l 1
 132 610 l 1
343 610 m 1
 368 730 l 1
 486 730 l 1
 461 610 l 1
 343 610 l 1
EndSplineSet
EndChar
StartChar: copyright
Encoding: 264 169 230
OldEncoding: 169
Width: 735
VWidth: 2048
Flags: W
HStem: -18 75<363 384> 147 71<398 416> 495 69<478 497> 658 73<494 528>
VStem: 63 75<269 301> 254 88<285 303> 754 77<413 446>
Fore
524 731 m 0
 630 731 710 694 768 622 c 0
 809 570 831 509 831 438 c 0
 831 412 828 385 822 357 c 0
 799 253 743 166 655 92 c 0
 567 18 469 -18 365 -18 c 0
 262 -18 182 18 124 92 c 0
 83 146 63 205 63 273 c 0
 63 300 66 328 72 357 c 0
 94 461 149 550 236 622 c 0
 323 694 420 731 524 731 c 0
509 658 m 0
 425 658 348 628 277 570 c 0
 207 512 162 441 146 357 c 0
 141 333 138 310 138 288 c 0
 138 233 155 185 187 144 c 0
 233 86 299 57 382 57 c 0
 466 57 543 86 613 144 c 0
 684 202 730 274 748 357 c 0
 753 379 754 400 754 422 c 0
 754 478 737 527 704 570 c 0
 658 628 593 658 509 658 c 0
526 300 m 1
 598 274 l 1
 553 190 489 147 406 147 c 0
 346 147 303 167 277 205 c 0
 262 228 254 258 254 291 c 0
 254 311 258 331 262 353 c 0
 276 415 302 466 340 504 c 0
 382 544 435 564 497 564 c 0
 576 564 624 524 635 446 c 1
 550 426 l 1
 543 472 520 495 480 495 c 0
 412 495 368 449 348 356 c 0
 343 334 342 314 342 297 c 0
 342 244 365 218 412 218 c 0
 458 218 497 245 526 300 c 1
EndSplineSet
EndChar
StartChar: ordfeminine
Encoding: 265 170 231
OldEncoding: 170
Width: 369
VWidth: 2048
Flags: W
HStem: 363 74<213 261> 651 79<318 334>
VStem: 115 104<437 464> 328 94<394 406> 362 102<618 650>
Fore
254 612 m 1xe8
 166 630 l 1
 195 696 250 730 334 730 c 0
 392 730 431 720 448 704 c 0
 458 693 464 674 464 650 c 0xe8
 464 633 461 613 457 590 c 2
 432 474 l 2
 425 441 422 415 422 397 c 0
 422 386 423 377 426 372 c 1
 333 372 l 1
 330 380 328 392 328 406 c 1xf0
 293 377 254 363 213 363 c 0
 147 363 115 388 115 437 c 0
 115 446 115 457 118 469 c 0
 126 507 147 536 185 553 c 0
 204 563 239 573 294 584 c 0
 323 589 343 595 359 601 c 1
 362 610 l 2
 362 613 362 615 362 618 c 0
 362 641 348 651 320 651 c 0
 290 651 270 639 254 612 c 1xe8
345 535 m 1
 330 529 317 526 303 523 c 0
 253 513 225 498 221 477 c 0
 219 472 219 469 219 464 c 0
 219 446 233 437 261 437 c 0
 303 437 330 463 340 515 c 2
 345 535 l 1
EndSplineSet
EndChar
StartChar: guillemotleft
Encoding: 266 171 232
OldEncoding: 171
Width: 556
VWidth: 2048
Flags: W
Fore
412 480 m 1
 238 259 l 1
 317 34 l 1
 208 34 l 1
 103 259 l 1
 303 480 l 1
 412 480 l 1
604 480 m 1
 429 259 l 1
 509 34 l 1
 400 34 l 1
 294 259 l 1
 495 480 l 1
 604 480 l 1
EndSplineSet
EndChar
StartChar: logicalnot
Encoding: 267 172 233
OldEncoding: 172
Width: 583
VWidth: 2048
Flags: W
HStem: 400 124<152 501>
Fore
457 184 m 1
 501 400 l 1
 126 400 l 1
 153 524 l 1
 655 524 l 1
 582 184 l 1
 457 184 l 1
EndSplineSet
EndChar
StartChar: minus
Encoding: 268 173 234
OldEncoding: 173
Width: 332
VWidth: 2048
Flags: W
HStem: 192 136<100 343>
Fore
74 192 m 1
 101 328 l 1
 371 328 l 1
 343 192 l 1
 74 192 l 1
EndSplineSet
EndChar
StartChar: registered
Encoding: 269 174 235
OldEncoding: 174
Width: 735
VWidth: 2048
Flags: W
HStem: -18 73<361 395> 490 63<319 448> 658 73<494 534>
VStem: 63 75<269 293> 530 89<437 471> 756 75<413 447>
Fore
524 731 m 0
 630 731 713 696 768 622 c 0
 809 570 831 509 831 438 c 0
 831 412 828 386 822 357 c 0
 799 253 743 166 655 92 c 0
 567 18 469 -18 365 -18 c 0
 262 -18 182 18 124 92 c 0
 83 146 63 205 63 273 c 0
 63 300 66 328 72 357 c 0
 94 463 149 550 236 622 c 0
 325 696 420 731 524 731 c 0
510 658 m 0
 426 658 349 628 279 570 c 0
 208 512 162 440 146 357 c 0
 141 334 138 313 138 291 c 0
 138 236 155 187 189 144 c 0
 235 84 299 55 383 55 c 0
 468 55 544 84 615 143 c 0
 685 201 730 273 748 357 c 0
 753 380 756 402 756 423 c 0
 756 480 739 527 705 570 c 0
 659 628 595 658 510 658 c 0
235 156 m 1
 319 553 l 1
 527 553 l 2
 559 553 584 543 601 523 c 0
 613 507 619 490 619 471 c 0
 619 461 619 452 616 441 c 0
 604 380 559 342 486 330 c 1
 503 325 517 311 532 285 c 1
 550 236 l 1
 581 156 l 1
 481 156 l 1
 461 221 l 2
 451 254 441 277 434 288 c 0
 418 310 397 319 369 319 c 2
 349 319 l 1
 316 156 l 1
 235 156 l 1
363 383 m 1
 395 383 l 2
 437 383 463 383 475 386 c 0
 504 392 524 409 530 437 c 0
 530 441 532 446 532 449 c 0
 532 455 530 461 527 466 c 1
 524 483 487 490 418 490 c 2
 386 490 l 1
 363 383 l 1
EndSplineSet
EndChar
StartChar: macron
Encoding: 270 175 236
OldEncoding: 175
Width: 551
VWidth: 2048
Flags: W
HStem: 759 89<171 722>
Fore
152 759 m 1
 172 848 l 1
 742 848 l 1
 722 759 l 1
 152 759 l 1
EndSplineSet
EndChar
StartChar: degree
Encoding: 271 176 237
OldEncoding: 176
Width: 400
VWidth: 2048
Flags: W
HStem: 417 81<287 305> 647 83<334 353>
VStem: 159 85<538 562> 395 85<590 609>
Fore
162 573 m 0
 172 616 196 653 233 684 c 0
 270 714 310 730 353 730 c 0
 397 730 431 714 454 684 c 0
 471 662 480 638 480 609 c 0
 480 598 478 586 475 573 c 0
 466 529 443 492 406 461 c 0
 371 432 331 417 287 417 c 0
 242 417 208 432 185 461 c 0
 167 484 159 509 159 538 c 0
 159 550 159 561 162 573 c 0
245 573 m 0
 244 567 244 561 244 556 c 0
 244 543 247 530 256 520 c 0
 267 506 284 498 303 498 c 0
 325 498 343 504 362 520 c 0
 379 533 391 552 394 573 c 0
 395 579 395 584 395 590 c 0
 395 602 392 615 383 625 c 0
 372 641 356 647 336 647 c 0
 316 647 296 641 279 625 c 0
 261 610 250 593 245 573 c 0
EndSplineSet
EndChar
StartChar: plusminus
Encoding: 272 177 238
OldEncoding: 177
Width: 548
VWidth: 2048
Flags: W
HStem: 0 129<51 526> 360 129<128 288 441 602>
Fore
248 173 m 1
 288 360 l 1
 101 360 l 1
 129 489 l 1
 316 489 l 1
 356 674 l 1
 481 674 l 1
 441 489 l 1
 630 489 l 1
 602 360 l 1
 414 360 l 1
 374 173 l 1
 248 173 l 1
25 0 m 1
 52 129 l 1
 553 129 l 1
 526 0 l 1
 25 0 l 1
EndSplineSet
EndChar
StartChar: twosuperior
Encoding: 273 178 239
OldEncoding: 178
Width: 332
VWidth: 2048
Flags: W
HStem: 356 76<248 385> 656 69<305 323>
VStem: 348 97<627 644>
Fore
402 432 m 1
 385 356 l 1
 87 356 l 1
 101 405 155 460 244 520 c 0
 308 563 342 595 346 616 c 0
 348 621 348 624 348 627 c 0
 348 647 334 656 307 656 c 0
 276 656 254 638 242 599 c 1
 150 607 l 1
 175 685 233 725 323 725 c 0
 360 725 389 717 412 702 c 0
 434 687 445 667 445 644 c 0
 445 636 443 628 441 621 c 0
 435 595 423 572 403 550 c 0
 389 535 353 507 296 466 c 2
 248 432 l 1
 402 432 l 1
EndSplineSet
EndChar
StartChar: threesuperior
Encoding: 274 179 240
OldEncoding: 179
Width: 332
VWidth: 2048
Flags: W
HStem: 349 69<238 255> 520 64<259 279> 656 69<297 317>
VStem: 118 90<455 472> 319 98<485 494> 334 95<624 644>
Fore
118 463 m 1xf8
 208 472 l 1
 208 437 222 418 253 418 c 0
 290 418 311 437 317 472 c 0
 319 478 319 483 319 487 c 0xf8
 319 509 305 520 277 520 c 0
 268 520 253 518 233 513 c 1
 259 584 l 1
 303 584 328 598 334 624 c 0
 334 627 334 628 334 630 c 0
 334 647 323 656 299 656 c 0
 271 656 253 639 241 607 c 1
 156 621 l 1
 187 690 241 725 317 725 c 0
 349 725 376 717 399 702 c 0
 420 687 429 667 429 644 c 0xf4
 429 638 429 632 428 625 c 0
 422 598 402 575 365 555 c 1
 399 541 417 518 417 489 c 0
 417 481 415 475 414 468 c 0
 406 431 383 402 345 380 c 0
 311 360 276 349 238 349 c 0
 158 349 118 385 118 455 c 0
 118 458 118 460 118 463 c 1xf8
EndSplineSet
EndChar
StartChar: acute
Encoding: 275 180 241
OldEncoding: 180
Width: 332
VWidth: 2048
Flags: W
Fore
216 582 m 1
 314 730 l 1
 468 730 l 1
 302 582 l 1
 216 582 l 1
EndSplineSet
EndChar
StartChar: mu
Encoding: 276 181 242
OldEncoding: 181
Width: 576
VWidth: 2048
Flags: W
HStem: -12 110<291 310>
Fore
164 518 m 1
 302 518 l 1
 251 284 l 2
 244 248 241 218 241 193 c 0
 241 129 264 98 310 98 c 0
 376 98 422 159 448 282 c 2
 498 518 l 1
 636 518 l 1
 526 0 l 1
 399 0 l 1
 412 63 l 1
 376 12 334 -12 291 -12 c 0
 248 -12 219 12 205 63 c 1
 149 -199 l 1
 11 -199 l 1
 164 518 l 1
EndSplineSet
EndChar
StartChar: paragraph
Encoding: 277 182 243
OldEncoding: 182
Width: 556
VWidth: 2048
Flags: W
HStem: 589 127<411 507 411 677>
Fore
270 -196 m 1
 150 -196 l 1
 259 316 l 1
 201 316 156 334 130 371 c 0
 112 397 103 426 103 463 c 0
 103 478 106 495 109 513 c 0
 118 556 135 593 162 627 c 0
 192 664 227 688 268 700 c 0
 302 711 349 716 411 716 c 2
 704 716 l 1
 677 589 l 1
 622 589 l 1
 455 -196 l 1
 340 -196 l 1
 507 589 l 1
 437 589 l 1
 270 -196 l 1
EndSplineSet
EndChar
StartChar: periodcentered
Encoding: 278 183 244
OldEncoding: 183
Width: 277
VWidth: 2048
Flags: W
Fore
132 281 m 1
 161 417 l 1
 297 417 l 1
 268 281 l 1
 132 281 l 1
EndSplineSet
EndChar
StartChar: cedilla
Encoding: 279 184 245
OldEncoding: 184
Width: 332
VWidth: 2048
Flags: W
HStem: -205 61<40 90> -58 52<116 158>
VStem: 172 95<-89 -74>
Fore
-23 -196 m 1
 -11 -139 l 1
 18 -143 49 -144 80 -144 c 0
 133 -144 164 -129 170 -98 c 0
 172 -95 172 -92 172 -89 c 0
 172 -69 153 -58 116 -58 c 0
 97 -58 74 -61 52 -67 c 1
 74 -18 l 1
 103 -11 130 -6 158 -6 c 0
 230 -6 267 -29 267 -74 c 0
 267 -81 265 -89 264 -98 c 0
 248 -170 185 -205 71 -205 c 0
 31 -205 -2 -202 -23 -196 c 1
EndSplineSet
EndChar
StartChar: onesuperior
Encoding: 280 185 246
OldEncoding: 185
Width: 332
VWidth: 2048
Flags: W
Fore
317 356 m 1
 224 356 l 1
 277 607 l 1
 244 586 207 570 162 558 c 1
 179 635 l 1
 248 655 294 685 322 725 c 1
 397 725 l 1
 317 356 l 1
EndSplineSet
EndChar
StartChar: ordmasculine
Encoding: 281 186 247
OldEncoding: 186
Width: 364
VWidth: 2048
Flags: W
HStem: 362 83<259 278> 642 88<316 337>
VStem: 123 104<489 507> 368 104<585 601>
Fore
127 544 m 0
 139 601 164 644 199 677 c 0
 238 711 284 730 337 730 c 0
 391 730 429 711 452 676 c 0
 466 656 472 630 472 599 c 0
 472 582 471 564 466 544 c 0
 455 489 432 445 397 412 c 0
 362 379 314 362 259 362 c 0
 205 362 167 379 144 414 c 0
 130 435 123 463 123 495 c 0
 123 510 124 527 127 544 c 0
231 544 m 0
 228 529 227 515 227 503 c 0
 227 464 244 445 276 445 c 0
 319 445 348 478 362 544 c 0
 365 559 368 575 368 587 c 0
 368 624 349 642 317 642 c 0
 274 642 247 610 231 544 c 0
EndSplineSet
EndChar
StartChar: guillemotright
Encoding: 282 187 248
OldEncoding: 187
Width: 556
VWidth: 2048
Flags: W
Fore
251 34 m 1
 425 256 l 1
 346 480 l 1
 454 480 l 1
 559 256 l 1
 359 34 l 1
 251 34 l 1
60 34 m 1
 233 256 l 1
 155 480 l 1
 262 480 l 1
 368 256 l 1
 167 34 l 1
 60 34 l 1
EndSplineSet
EndChar
StartChar: onequarter
Encoding: 283 188 249
OldEncoding: 188
Width: 833
VWidth: 2048
Flags: W
HStem: -20 143<622 768> 51 72<622 696 799 835>
Fore
317 356 m 1x00
 225 356 l 1
 279 607 l 1
 244 586 205 569 162 558 c 1
 179 635 l 1
 250 655 296 685 322 725 c 1
 397 725 l 1
 317 356 l 1x00
238 -26 m 1
 159 -26 l 1
 745 725 l 1
 823 725 l 1
 238 -26 l 1
681 -20 m 1x80
 696 51 l 1
 521 51 l 1
 536 120 l 1
 771 349 l 1
 846 349 l 1
 799 123 l 1
 851 123 l 1
 835 51 l 1
 783 51 l 1x40
 768 -20 l 1
 681 -20 l 1x80
711 123 m 1x80
 734 231 l 1
 622 123 l 1
 711 123 l 1x80
EndSplineSet
EndChar
StartChar: onehalf
Encoding: 284 189 250
OldEncoding: 189
Width: 833
VWidth: 2048
Flags: W
HStem: -20 77<668 805> 281 68<725 743>
VStem: 768 96<253 267>
Fore
317 356 m 1
 225 356 l 1
 279 607 l 1
 244 586 205 569 162 558 c 1
 179 635 l 1
 250 655 296 685 322 725 c 1
 397 725 l 1
 317 356 l 1
238 -26 m 1
 159 -26 l 1
 745 725 l 1
 823 725 l 1
 238 -26 l 1
822 57 m 1
 805 -20 l 1
 507 -20 l 1
 521 28 573 83 665 144 c 0
 730 187 762 219 766 241 c 0
 768 245 768 248 768 253 c 0
 768 271 754 281 727 281 c 0
 696 281 674 261 662 224 c 1
 572 231 l 1
 598 310 655 349 743 349 c 0
 780 349 809 342 832 325 c 0
 854 311 864 291 864 267 c 0
 864 259 863 251 861 244 c 0
 855 213 837 184 805 156 c 0
 792 144 762 123 716 90 c 0
 696 77 679 66 668 57 c 1
 822 57 l 1
EndSplineSet
EndChar
StartChar: threequarters
Encoding: 285 190 251
OldEncoding: 190
Width: 833
VWidth: 2048
Flags: HW
HStem: 51 71<596 685 773 825> 349 69<159 176> 520 64<135 167> 656 69<150 169>
VStem: 201 94<619 628> 218 95<461 478> 685 87<-20 51 123 231>
Fore
118 463 m 1
 208 472 l 1
 208 437 222 418 253 418 c 0
 290 418 311 437 317 472 c 0
 319 478 319 483 319 487 c 0
 319 509 305 520 277 520 c 0
 268 520 253 518 233 513 c 1
 259 584 l 1
 303 584 328 598 334 624 c 0
 334 627 334 628 334 630 c 0
 334 647 323 656 299 656 c 0
 271 656 253 639 241 607 c 1
 156 621 l 1
 187 690 241 725 317 725 c 0
 349 725 376 717 399 702 c 0
 420 687 429 667 429 644 c 0
 429 638 429 632 428 625 c 0
 422 598 402 575 365 555 c 1
 399 541 417 518 417 489 c 0
 417 481 415 475 414 468 c 0
 406 431 383 402 345 380 c 0
 311 360 276 349 238 349 c 0
 158 349 118 385 118 455 c 0
 118 458 118 460 118 463 c 1
250 -26 m 1
 172 -26 l 1
 757 725 l 1
 834 725 l 1
 250 -26 l 1
681 -20 m 1
 696 51 l 1
 520 51 l 1
 535 120 l 1
 769 349 l 1
 846 349 l 1
 799 123 l 1
 851 123 l 1
 835 51 l 1
 783 51 l 1
 768 -20 l 1
 681 -20 l 1
711 123 m 1
 734 231 l 1
 622 123 l 1
 711 123 l 1
EndSplineSet
EndChar
StartChar: questiondown
Encoding: 286 191 252
OldEncoding: 191
Width: 610
VWidth: 2048
Flags: HW
HStem: -205 104<288 314> 382 136<236 372>
VStem: 49 133<-14 6> 236 136<382 518>
Fore
483 518 m 1
 454 382 l 1
 317 382 l 1
 346 518 l 1
 483 518 l 1
319 334 m 1
 443 334 l 1
 437 297 l 1
 426 233 379 170 293 110 c 0
 256 86 235 69 227 61 c 0
 202 40 189 18 182 -5 c 0
 181 -11 181 -18 181 -25 c 0
 181 -46 189 -63 205 -77 c 0
 225 -92 250 -100 281 -100 c 0
 353 -100 408 -60 443 20 c 1
 566 5 l 1
 513 -135 414 -205 265 -205 c 0
 198 -205 144 -189 101 -155 c 0
 64 -124 44 -86 44 -40 c 0
 44 -28 46 -14 49 0 c 0
 57 38 80 75 120 112 c 0
 139 133 176 161 227 198 c 0
 262 221 284 241 293 256 c 0
 302 270 311 296 319 334 c 1
EndSplineSet
EndChar
StartChar: AE
Encoding: 293 198 259
OldEncoding: 198
Width: 999
VWidth: 2048
Flags: HW
HStem: 0 121<584 953> 169 126<245 440> 316 121<584 912> 595 121<584 940>
VStem: 440 144<120 169 293 316 435 595>
Fore
-41 0 m 1
 443 716 l 1
 1091 716 l 1
 1065 595 l 1
 710 595 l 1
 676 435 l 1
 1004 435 l 1
 979 316 l 1
 651 316 l 1
 610 121 l 1
 979 121 l 1
 953 0 l 1
 440 0 l 1
 475 169 l 1
 227 169 l 1
 118 0 l 1
 -41 0 l 1
308 293 m 1
 504 293 l 1
 570 607 l 1
 513 607 l 1
 308 293 l 1
EndSplineSet
EndChar
StartChar: Eth
Encoding: 303 208 269
OldEncoding: 208
Width: 721
VWidth: 2048
Flags: HW
HStem: 0 121<218 346> 313 90<-2 72 218 371> 579 15G<218 282> 702 15G<72 337>
VStem: 72 144<121 313 403 595> 524 150<322 383>
Fore
224 716 m 1
 489 716 l 2
 559 716 613 708 650 691 c 0
 694 671 727 635 746 579 c 0
 757 552 763 518 763 480 c 0
 763 441 757 399 746 349 c 0
 697 116 564 0 345 0 c 2
 72 0 l 1
 138 313 l 1
 64 313 l 1
 84 403 l 1
 158 403 l 1
 224 716 l 1
343 595 m 1
 303 403 l 1
 457 403 l 1
 437 313 l 1
 284 313 l 1
 244 121 l 1
 351 121 l 2
 432 121 490 139 527 178 c 0
 556 210 581 268 599 354 c 0
 609 394 612 429 612 460 c 0
 612 521 593 561 556 578 c 0
 530 590 481 595 408 595 c 2
 343 595 l 1
EndSplineSet
EndChar
StartChar: multiply
Encoding: 310 215 276
OldEncoding: 215
Width: 583
VWidth: 2048
Flags: HW
Fore
97 205 m 1
 277 353 l 1
 161 501 l 1
 270 592 l 1
 388 445 l 1
 566 592 l 1
 636 503 l 1
 457 354 l 1
 573 205 l 1
 464 115 l 1
 346 264 l 1
 167 116 l 1
 97 205 l 1
EndSplineSet
EndChar
StartChar: Oslash
Encoding: 311 216 277
OldEncoding: 216
Width: 777
VWidth: 2048
Flags: HW
HStem: -12 116<377 403> 605 124<377 403>
VStem: 43 150<342 380> 589 150<330 380>
Fore
746 664 m 1
 842 751 l 1
 898 691 l 1
 797 599 l 1
 815 559 825 515 825 463 c 0
 825 429 822 392 812 354 c 0
 789 245 742 158 668 92 c 0
 592 23 500 -12 391 -12 c 0
 300 -12 235 8 190 49 c 1
 90 -40 l 1
 35 20 l 1
 139 115 l 1
 118 153 107 199 107 253 c 0
 107 287 112 323 120 363 c 0
 143 472 193 561 267 627 c 0
 343 694 435 730 544 730 c 0
 630 730 697 707 746 664 c 1
635 564 m 1
 609 592 569 605 520 605 c 0
 388 605 302 523 268 359 c 0
 262 326 258 297 258 270 c 0
 258 254 259 239 262 225 c 1
 635 564 l 1
671 486 m 1
 300 149 l 1
 328 120 363 104 411 104 c 0
 478 104 536 130 581 182 c 0
 621 227 650 285 664 356 c 0
 671 391 676 420 676 446 c 0
 676 461 674 474 671 486 c 1
EndSplineSet
EndChar
StartChar: Thorn
Encoding: 317 222 283
OldEncoding: 222
Width: 666
VWidth: 2048
Flags: HW
HStem: 0 15G<72 218> 702 15G<72 218>
VStem: 72 146<0 135 256 460 581 716> 472 150<346 372>
Fore
72 0 m 1
 224 716 l 1
 369 716 l 1
 342 581 l 1
 429 581 l 2
 507 581 555 579 576 575 c 0
 627 567 662 543 685 504 c 0
 699 481 705 454 705 420 c 0
 705 402 704 382 699 360 c 0
 677 259 619 190 530 158 c 0
 490 143 428 135 342 135 c 2
 247 135 l 1
 218 0 l 1
 72 0 l 1
316 460 m 1
 271 256 l 1
 349 256 l 2
 408 256 449 261 472 268 c 0
 513 284 540 314 549 360 c 0
 552 371 552 380 552 389 c 0
 552 420 536 440 506 451 c 0
 487 457 448 460 386 460 c 2
 316 460 l 1
EndSplineSet
EndChar
StartChar: germandbls
Encoding: 318 223 284
OldEncoding: 223
Width: 610
VWidth: 2048
Flags: HW
HStem: 0 15G<67 205> 621 107<271 284>
VStem: 67 136<0 490> 274 146<382 412> 340 141<566 581> 438 138<136 156>
Fore
67 0 m 1
 167 466 l 2
 185 553 213 618 248 658 c 0
 291 705 354 730 437 730 c 0
 492 730 535 719 566 697 c 0
 593 676 607 648 607 615 c 0
 607 604 607 593 604 581 c 0
 598 552 582 521 558 489 c 0
 535 460 521 441 515 431 c 1
 506 412 l 1
 504 409 504 406 504 403 c 0
 504 394 507 385 513 379 c 0
 517 369 530 349 558 316 c 0
 593 267 612 222 612 182 c 0
 612 173 610 164 609 155 c 0
 599 106 573 66 533 35 c 0
 492 3 448 -12 400 -12 c 0
 328 -12 284 18 261 81 c 1
 369 136 l 1
 377 110 392 98 412 98 c 0
 445 98 463 115 471 149 c 0
 471 153 l 0
 471 173 451 208 411 258 c 0
 374 303 354 340 354 369 c 0
 354 374 356 377 356 382 c 0
 359 400 377 432 408 478 c 0
 441 524 458 553 461 570 c 0
 463 575 463 581 463 586 c 0
 463 609 446 621 412 621 c 0
 376 621 349 602 331 566 c 0
 323 550 316 517 305 466 c 2
 205 0 l 1
 67 0 l 1
EndSplineSet
EndChar
StartChar: ae
Encoding: 325 230 291
OldEncoding: 230
Width: 889
VWidth: 2048
Flags: HW
HStem: -12 97<219 256> -12 104<593 618> 219 86<500 707> 426 104<270 284 593 609>
VStem: 43 138<139 156>
Fore
737 166 m 1
 866 141 l 1
 808 40 719 -12 604 -12 c 0
 529 -12 474 12 434 60 c 1
 365 12 291 -12 216 -12 c 0
 166 -12 127 0 101 26 c 0
 80 46 69 71 69 103 c 0
 69 115 71 127 74 141 c 0
 86 201 121 244 178 271 c 0
 207 285 264 300 346 316 c 0
 380 322 409 330 435 337 c 1
 438 351 l 2
 440 359 441 366 441 372 c 0
 441 409 415 426 368 426 c 0
 317 426 282 405 259 360 c 1
 139 385 l 1
 190 481 281 530 408 530 c 0
 477 530 526 515 556 483 c 1
 601 515 653 530 708 530 c 0
 838 530 903 466 903 337 c 0
 903 302 898 264 889 219 c 1
 544 219 l 1
 544 212 543 204 543 196 c 0
 543 127 570 94 625 94 c 0
 673 94 710 116 737 166 c 1
771 305 m 1
 774 320 776 334 776 348 c 0
 776 400 748 426 691 426 c 0
 661 426 632 414 609 388 c 0
 587 365 572 337 564 305 c 1
 771 305 l 1
414 248 m 1
 336 228 291 218 285 215 c 1
 242 202 219 182 213 153 c 0
 212 146 212 139 212 133 c 0
 212 101 231 86 274 86 c 0
 320 86 354 103 377 136 c 0
 391 158 403 196 414 248 c 1
EndSplineSet
EndChar
StartChar: eth
Encoding: 335 240 301
OldEncoding: 240
Width: 610
VWidth: 2048
Flags: HW
HStem: -12 112<291 317> 411 107<268 305> 702 15G<162 305>
VStem: 40 144<239 276> 432 143<251 268>
Fore
314 716 m 1
 457 716 l 1
 501 673 l 1
 599 716 l 1
 612 668 l 1
 533 636 l 1
 604 544 641 449 641 353 c 0
 641 323 638 296 632 267 c 0
 615 184 575 118 517 66 c 0
 455 14 383 -12 302 -12 c 0
 222 -12 166 14 127 66 c 0
 101 101 87 143 87 192 c 0
 87 213 90 236 95 261 c 0
 109 328 144 388 196 438 c 0
 251 492 313 518 379 518 c 0
 415 518 448 507 480 484 c 1
 477 492 474 503 469 513 c 0
 464 526 452 552 431 592 c 1
 297 533 l 1
 285 579 l 1
 402 630 l 1
 376 659 346 688 314 716 c 1
239 259 m 0
 235 241 233 224 233 207 c 0
 233 185 236 167 244 150 c 0
 258 116 287 100 328 100 c 0
 366 100 402 116 432 149 c 0
 460 178 478 213 486 254 c 0
 489 270 490 285 490 299 c 0
 490 322 486 342 477 360 c 0
 461 394 432 411 392 411 c 0
 353 411 319 395 290 363 c 0
 265 336 248 300 239 259 c 0
EndSplineSet
EndChar
StartChar: divide
Encoding: 342 247 308
OldEncoding: 247
Width: 548
VWidth: 2048
Flags: HW
HStem: 90 136<205 343> 290 127<25 524> 480 136<205 343>
VStem: 205 136<90 227 480 616>
Fore
308 480 m 1
 336 616 l 1
 474 616 l 1
 446 480 l 1
 308 480 l 1
86 290 m 1
 113 417 l 1
 613 417 l 1
 586 290 l 1
 86 290 l 1
225 90 m 1
 253 227 l 1
 391 227 l 1
 363 90 l 1
 225 90 l 1
EndSplineSet
EndChar
StartChar: oslash
Encoding: 343 248 309
OldEncoding: 248
Width: 610
VWidth: 2048
Flags: HW
HStem: -12 107<294 319> 426 104<305 319>
VStem: 43 136<251 276> 441 136<239 276>
Fore
567 487 m 1
 630 547 l 1
 676 503 l 1
 609 441 l 1
 630 408 641 368 641 323 c 0
 641 303 638 282 633 259 c 0
 616 181 578 115 517 64 c 0
 455 14 385 -12 307 -12 c 0
 251 -12 204 2 166 29 c 1
 95 -35 l 1
 51 11 l 1
 123 77 l 1
 101 110 90 152 90 196 c 0
 90 218 94 239 98 262 c 0
 115 342 153 406 213 457 c 0
 273 506 343 530 423 530 c 0
 481 530 529 517 567 487 c 1
469 400 m 1
 452 417 429 426 402 426 c 0
 359 426 322 409 291 376 c 0
 264 345 245 308 236 264 c 0
 230 239 228 216 228 195 c 0
 228 176 l 1
 469 400 l 1
500 340 m 1
 261 118 l 1
 277 103 300 95 330 95 c 0
 372 95 411 112 441 144 c 0
 468 173 486 212 495 256 c 0
 500 276 503 293 503 310 c 0
 503 320 501 331 500 340 c 1
EndSplineSet
EndChar
